<svg viewBox="0 0 540 731" fill="none" xmlns="http://www.w3.org/2000/svg"><path fill-rule="evenodd" clip-rule="evenodd" d="M491.56 641.942l-8.138 3.93v8.047l8.138-4.115v-7.862zM481.318 657.117l-6.033 3.111v10.605l6.033-3.474v-10.242zM473.273 641.942v7.862l8.045 4.115v-8.047l-8.045-3.93zM471.991 651.359l-5.941 3.016 8.228 4.115 5.85-3.018-8.137-4.113zM483.422 657.117v10.242l6.034 3.474v-10.605l-6.034-3.111zM492.747 651.359l-8.045 4.113 5.758 3.018 8.32-4.115-6.033-3.016zM465.043 656.113v9.6c0 .273.183.639.549.914l7.589 4.206v-10.605l-8.138-4.115zM499.787 656.113l-8.137 4.115v10.605l7.496-4.206c.365-.275.641-.641.641-.914v-9.6zM482.38 636.112a1.27 1.27 0 00-.421.07l-7.681 3.929 8.137 4.115 8.138-4.115-7.679-3.929a1.994 1.994 0 00-.494-.07z" fill="#5F7D95"/><path d="M445.021 693.666c-1.823 0-3.344-.599-4.563-1.796-1.218-1.209-1.828-2.756-1.828-4.641 0-1.875.61-3.417 1.828-4.625 1.219-1.208 2.74-1.813 4.563-1.813 1.979 0 3.557.823 4.734 2.469l-1.312.735a4.167 4.167 0 00-1.453-1.297 3.916 3.916 0 00-1.969-.516c-1.375 0-2.516.479-3.422 1.438-.906.958-1.359 2.161-1.359 3.609 0 1.469.447 2.682 1.343 3.641.907.947 2.052 1.421 3.438 1.421.708 0 1.364-.166 1.969-.5a4.317 4.317 0 001.453-1.312l1.328.734c-1.209 1.636-2.792 2.453-4.75 2.453zm12.299-.218v-1.032c-.761.834-1.755 1.25-2.984 1.25-.907 0-1.662-.286-2.266-.859-.594-.573-.891-1.281-.891-2.125 0-.865.297-1.573.891-2.125.594-.562 1.349-.844 2.266-.844 1.291 0 2.286.412 2.984 1.235v-1.625c0-.605-.214-1.068-.641-1.391-.427-.333-.974-.5-1.64-.5-1.052 0-1.969.417-2.75 1.25l-.657-.984c.959-.99 2.157-1.485 3.594-1.485 1.115 0 1.974.271 2.578.813.615.531.922 1.276.922 2.234v6.188h-1.406zm-2.484-.782c1.114 0 1.942-.375 2.484-1.125v-1.687c-.542-.75-1.37-1.125-2.484-1.125-.657 0-1.193.182-1.61.547-.406.364-.609.838-.609 1.422 0 .573.203 1.047.609 1.422.417.364.953.546 1.61.546zm8.956 1c-1.333 0-2-.703-2-2.109v-5.891h-1.484v-1.234h1.484v-2.453h1.407v2.453h1.828v1.234h-1.828v5.594c0 .344.073.625.218.844.157.208.391.312.704.312.385 0 .697-.125.937-.375l.422 1.047c-.386.386-.948.578-1.688.578zm7.282 0c-1.354 0-2.458-.437-3.312-1.312-.854-.886-1.282-2.026-1.282-3.422 0-1.333.422-2.453 1.266-3.359.854-.907 1.912-1.36 3.172-1.36 1.292 0 2.333.448 3.125 1.344.802.896 1.203 2.057 1.203 3.484v.36h-7.297c.052.916.386 1.666 1 2.25.615.573 1.365.859 2.25.859 1.094 0 2.021-.38 2.781-1.14l.672.921c-.916.917-2.109 1.375-3.578 1.375zm2.797-5.296c0-.834-.276-1.542-.828-2.125-.542-.584-1.255-.875-2.141-.875-.833 0-1.526.291-2.078.875-.552.583-.844 1.291-.875 2.125h5.922zm7.254 8.734c-.771 0-1.438-.094-2-.281-.553-.188-1.099-.542-1.641-1.063l.719-1.047c.375.448.791.766 1.25.953.468.188 1.026.282 1.672.282.927 0 1.64-.24 2.14-.719.5-.479.75-1.141.75-1.984v-1.297c-.323.468-.75.854-1.281 1.156a3.395 3.395 0 01-1.734.453c-1.219 0-2.193-.427-2.922-1.281-.729-.865-1.094-1.99-1.094-3.375 0-1.448.37-2.589 1.109-3.422.74-.844 1.709-1.266 2.907-1.266 1.239 0 2.244.526 3.015 1.578v-1.359h1.406v8.75c0 1.271-.375 2.24-1.125 2.906-.739.677-1.796 1.016-3.171 1.016zm.203-4.781a3.15 3.15 0 001.515-.407c.511-.27.901-.625 1.172-1.062v-3.938c-.271-.437-.661-.786-1.172-1.046-.51-.271-1.015-.407-1.515-.407-.875 0-1.578.318-2.11.953-.521.636-.781 1.464-.781 2.485 0 1.031.266 1.859.797 2.484.542.625 1.24.938 2.094.938zm10.818 1.343c-1.302 0-2.37-.442-3.203-1.328-.834-.885-1.25-2.021-1.25-3.406 0-1.396.416-2.531 1.25-3.406.833-.875 1.901-1.313 3.203-1.313 1.312 0 2.385.438 3.218 1.313.834.875 1.25 2.01 1.25 3.406 0 1.385-.416 2.521-1.25 3.406-.833.886-1.906 1.328-3.218 1.328zm0-1.25c.875 0 1.593-.323 2.156-.968.562-.657.844-1.495.844-2.516 0-1.01-.282-1.839-.844-2.484-.563-.657-1.281-.985-2.156-.985-.865 0-1.584.323-2.157.969-.562.646-.843 1.479-.843 2.5 0 1.031.281 1.87.843 2.516.563.645 1.282.968 2.157.968zm6.749 1.032v-9.016h1.391v1.453c.833-1.094 1.833-1.64 3-1.64v1.437l-.547-.047c-.427 0-.896.151-1.406.453-.511.302-.86.63-1.047.985v6.375h-1.391zm6.844-10.297a.927.927 0 01-.656-.266.917.917 0 01-.281-.672.92.92 0 01.281-.672.901.901 0 01.656-.281c.261 0 .485.094.672.281a.917.917 0 01.281.672.913.913 0 01-.281.672.944.944 0 01-.672.266zm-.687 10.297v-9.016h1.39v9.016h-1.39zm3.76 0v-1.078l4.969-6.704h-4.969v-1.234h6.797v1.063l-5 6.734h5.062v1.219h-6.859zm13.306.218c-1.354 0-2.459-.437-3.313-1.312-.854-.886-1.281-2.026-1.281-3.422 0-1.333.422-2.453 1.266-3.359.854-.907 1.911-1.36 3.171-1.36 1.292 0 2.334.448 3.125 1.344.803.896 1.204 2.057 1.204 3.484v.36h-7.297c.052.916.385 1.666 1 2.25.614.573 1.364.859 2.25.859 1.093 0 2.021-.38 2.781-1.14l.672.921c-.917.917-2.11 1.375-3.578 1.375zm2.797-5.296c0-.834-.276-1.542-.829-2.125-.541-.584-1.255-.875-2.14-.875-.834 0-1.526.291-2.078.875-.552.583-.844 1.291-.875 2.125h5.922z" fill="#0A2C61"/><path fill-rule="evenodd" clip-rule="evenodd" d="M40.938 636.026c-.183 0-.342.047-.432.137l-16.368 10.331c-.366.183-.456.459-.456.914 0 .276.183.642.456.915l16.185 10.151c.183.09.366.09.639.09.182 0 .275 0 .548-.09l16.368-10.151c.273-.273.455-.456.455-.915 0-.365-.272-.731-.455-.914L41.51 636.163a1.332 1.332 0 00-.572-.137z" fill="#5F7D95"/><path fill-rule="evenodd" clip-rule="evenodd" d="M25.6 657.833l-1.552 1.007c-.366.183-.458.455-.458.914 0 .366.182.638.458.914l16.365 10.239c.093.183.276.183.549.183.182 0 .365 0 .548-.183l16.368-10.239c.365-.276.455-.458.455-.914 0-.366-.272-.731-.455-.914l-1.646-1.007-14.722 9.141c-.09.093-.366.093-.548.093-.273 0-.366 0-.549-.093l-14.812-9.141z" fill="#5F7D95"/><path fill-rule="evenodd" clip-rule="evenodd" d="M25.6 651.706l-1.552 1.097c-.366.183-.458.459-.458.915 0 .458.182.641.458.914l16.365 10.148c.093.093.276.093.549.093.182 0 .365 0 .548-.093l16.368-10.148c.365-.273.455-.456.455-.914 0-.456-.272-.732-.455-.915l-1.646-1.097-14.722 9.328c-.09.09-.366.09-.548.09-.273 0-.366 0-.549-.09l-14.812-9.328z" fill="#5F7D95"/><path d="M10.764 693.534l-1.094-2.765H3.483l-1.11 2.765H.608l5-12.437h1.921l5.016 12.437h-1.781zM6.576 682.69l-2.656 6.704h5.281l-2.625-6.704zm13.396 10.844v-1.265c-.354.395-.813.744-1.375 1.046a3.882 3.882 0 01-1.844.438c-1.906 0-2.86-.958-2.86-2.875v-6.359h1.391v5.937c0 .708.162 1.229.485 1.563.323.323.833.484 1.531.484a3.09 3.09 0 001.547-.406c.49-.271.864-.589 1.125-.953v-6.625h1.39v9.015h-1.39zm7.81 3.656c-.77 0-1.437-.093-2-.281-.551-.187-1.098-.541-1.64-1.062l.719-1.047c.375.448.791.765 1.25.953.469.187 1.026.281 1.672.281.927 0 1.64-.239 2.14-.719.5-.479.75-1.14.75-1.984v-1.297c-.322.469-.75.854-1.28 1.156a3.385 3.385 0 01-1.735.454c-1.219 0-2.193-.427-2.922-1.282-.73-.864-1.094-1.989-1.094-3.375 0-1.448.37-2.588 1.11-3.422.74-.843 1.708-1.265 2.906-1.265 1.24 0 2.244.526 3.015 1.578v-1.359h1.407v8.75c0 1.27-.375 2.239-1.125 2.906-.74.677-1.797 1.015-3.172 1.015zm.204-4.781a3.15 3.15 0 001.515-.406c.51-.271.901-.625 1.172-1.063v-3.937c-.27-.438-.661-.786-1.171-1.047-.51-.271-1.016-.406-1.516-.406-.875 0-1.578.318-2.11.953-.52.635-.78 1.464-.78 2.484 0 1.032.265 1.86.796 2.485.542.625 1.24.937 2.094.937zm17.771 1.125v-6.125c0-1.239-.557-1.859-1.672-1.859-.469 0-.927.14-1.375.422-.437.281-.77.599-1 .953v6.609h-1.406v-6.125c0-1.239-.552-1.859-1.656-1.859-.459 0-.907.146-1.344.437a3.576 3.576 0 00-1.031.969v6.578h-1.39v-9.015h1.39v1.312c.208-.364.604-.708 1.187-1.031.594-.333 1.167-.5 1.719-.5.698 0 1.24.161 1.625.484.396.323.667.719.812 1.188.303-.479.74-.875 1.313-1.188.573-.323 1.14-.484 1.703-.484 1.677 0 2.516.906 2.516 2.719v6.515h-1.391zm8.262.219c-1.354 0-2.459-.438-3.313-1.313-.854-.885-1.281-2.026-1.281-3.421 0-1.334.422-2.454 1.266-3.36.854-.906 1.911-1.359 3.171-1.359 1.292 0 2.334.448 3.125 1.344.803.895 1.204 2.057 1.204 3.484v.359h-7.297c.052.917.385 1.667 1 2.25.614.573 1.364.86 2.25.86 1.093 0 2.02-.38 2.781-1.141l.672.922c-.917.917-2.11 1.375-3.578 1.375zm2.797-5.297c0-.833-.276-1.542-.829-2.125-.541-.583-1.255-.875-2.14-.875-.833 0-1.526.292-2.078.875-.552.583-.844 1.292-.875 2.125h5.922zm9.722 5.078v-5.89c0-.802-.188-1.349-.563-1.641-.364-.302-.849-.453-1.453-.453-.52 0-1.036.14-1.547.422-.5.281-.875.609-1.125.984v6.578h-1.39v-9.015h1.39v1.312c.386-.448.86-.812 1.422-1.094a3.887 3.887 0 011.782-.437c1.916 0 2.874.969 2.874 2.906v6.328h-1.39zm6.467.219c-1.333 0-2-.703-2-2.109v-5.891h-1.484v-1.234h1.484v-2.454h1.406v2.454h1.828v1.234h-1.828v5.594c0 .343.073.625.219.843.156.209.39.313.703.313.386 0 .698-.125.938-.375l.421 1.047c-.385.385-.947.578-1.687.578z" fill="#0A2C61"/><path fill-rule="evenodd" clip-rule="evenodd" d="M265.841 520.727v3.004c0 .636.271 1.092.91 1.182 1.364.364 2.73.821 3.822 1.549.2.159.451.231.697.231.309 0 .606-.119.759-.321l2.185-2.187 2.276 2.277-2.184 2.184c-.274.364-.456 1.003-.092 1.456.82 1.274 1.366 2.548 1.548 3.915.182.546.636.91 1.182.91h3.097v3.187h-3.097c-.546 0-1 .364-1.182.91-.274 1.364-.728 2.73-1.548 3.823-.364.453-.182 1.181.092 1.545l2.184 2.095-2.276 2.277-2.185-2.095c-.164-.22-.497-.341-.835-.341-.219 0-.442.052-.621.159-1.274.821-2.458 1.367-3.822 1.638-.639.093-.91.546-.91 1.092v3.095h-3.187v-3.095c0-.546-.364-.999-1-1.092-1.277-.364-2.641-.817-3.825-1.638a1.237 1.237 0 00-1.456.182l-2.185 2.095-2.273-2.277 2.184-2.095c.364-.364.453-1.092.089-1.545-.817-1.185-1.363-2.459-1.545-3.823-.182-.546-.639-.91-1.185-.91h-3.094v-3.187h3.094c.546 0 1.003-.364 1.185-.91.271-1.367.728-2.73 1.545-3.915.364-.453.275-1.092-.089-1.456l-2.184-2.184 2.273-2.277 2.185 2.187c.205.202.497.321.791.321.231 0 .465-.072.665-.231 1.274-.728 2.548-1.367 3.825-1.549.636-.09 1-.546 1-1.182v-3.004h3.187zm-3.459-2.638c-1.366 0-2.369.999-2.369 2.366v2.184c-1.092.364-2.092.636-3.002 1.274l-1.456-1.548a2.334 2.334 0 00-1.661-.682c-.616 0-1.251.228-1.797.682l-2.277 2.276c-.91.911-.91 2.459 0 3.459l1.549 1.456c-.639.91-.914 1.913-1.278 3.005h-2.184c-1.364 0-2.366 1-2.366 2.366v3.187c0 1.364 1.002 2.366 2.366 2.366h2.184c.364 1 .639 2.092 1.278 2.913l-1.549 1.548c-.91.91-.91 2.367 0 3.366l2.277 2.277a2.38 2.38 0 001.693.682c.627 0 1.262-.228 1.765-.682l1.456-1.456c.91.546 1.91.91 3.002 1.274v2.092c0 1.366 1.003 2.458 2.369 2.458h3.184c1.367 0 2.367-1.092 2.367-2.458v-2.092c1.002-.364 2.094-.728 3.004-1.274l1.456 1.456a2.322 2.322 0 001.65.682 2.56 2.56 0 001.719-.682l2.274-2.277c.913-.91.913-2.366 0-3.366l-1.456-1.548c.546-.91.91-1.913 1.274-2.913h2.187c1.364 0 2.367-1.002 2.367-2.366v-3.187c0-1.366-1.185-2.366-2.367-2.366h-2.187c-.364-1.092-.728-2.095-1.274-3.005l1.456-1.456c.913-.91.913-2.366 0-3.459l-2.274-2.276a2.32 2.32 0 00-1.649-.682c-.604 0-1.22.228-1.72.682l-1.456 1.548c-.91-.638-2.002-.91-3.004-1.274v-2.184c0-1.367-1-2.366-2.367-2.366h-3.184z" fill="#5F7D95"/><path fill-rule="evenodd" clip-rule="evenodd" d="M264.11 530.923c3.005 0 5.553 2.548 5.553 5.553 0 3.094-2.548 5.642-5.553 5.642-3.094 0-5.643-2.548-5.643-5.642 0-3.005 2.549-5.553 5.643-5.553zm0-2.367c-4.461 0-8.009 3.459-8.009 7.92a7.963 7.963 0 008.009 8.009c4.369 0 7.919-3.551 7.919-8.009 0-4.372-3.64-7.92-7.919-7.92z" fill="#5F7D95"/><path d="M303 357.438V345h1.547v12.438H303zm15.287 0v-6.126c0-1.239-.557-1.859-1.672-1.859-.469 0-.927.141-1.375.422-.437.281-.771.599-1 .953v6.61h-1.406v-6.126c0-1.239-.552-1.859-1.656-1.859-.459 0-.907.146-1.344.438a3.553 3.553 0 00-1.031.968v6.579h-1.391v-9.016h1.391v1.312c.208-.364.604-.708 1.187-1.031.594-.333 1.167-.5 1.719-.5.698 0 1.239.162 1.625.485.396.322.667.718.812 1.187.302-.479.74-.875 1.313-1.187.573-.323 1.141-.485 1.703-.485 1.677 0 2.516.906 2.516 2.719v6.516h-1.391zm8.637.218c-1.282 0-2.297-.526-3.047-1.578v4.797h-1.391v-12.453h1.391v1.344a3.725 3.725 0 013.047-1.563c1.208 0 2.177.422 2.906 1.266.729.843 1.094 1.995 1.094 3.453 0 1.448-.365 2.599-1.094 3.453-.719.854-1.688 1.281-2.906 1.281zm-.36-1.25c.875 0 1.573-.312 2.094-.937.531-.636.797-1.485.797-2.547 0-1.031-.26-1.865-.781-2.5-.521-.646-1.224-.969-2.11-.969a3.12 3.12 0 00-1.578.422c-.489.281-.859.62-1.109 1.016v4.062c.25.396.62.74 1.109 1.031a3.11 3.11 0 001.578.422zm6.594 1.032v-9.016h1.39v1.453c.834-1.094 1.834-1.641 3-1.641v1.438l-.547-.047c-.427 0-.895.151-1.406.453-.51.302-.859.63-1.047.984v6.376h-1.39zm10.078.218c-1.302 0-2.37-.442-3.203-1.328-.833-.885-1.25-2.021-1.25-3.406 0-1.396.417-2.531 1.25-3.406s1.901-1.313 3.203-1.313c1.313 0 2.385.438 3.219 1.313.833.875 1.25 2.01 1.25 3.406 0 1.385-.417 2.521-1.25 3.406-.834.886-1.906 1.328-3.219 1.328zm0-1.25c.875 0 1.594-.323 2.156-.968.563-.657.844-1.495.844-2.516 0-1.011-.281-1.839-.844-2.484-.562-.657-1.281-.985-2.156-.985a2.76 2.76 0 00-2.156.969c-.563.646-.844 1.479-.844 2.5 0 1.031.281 1.87.844 2.516.562.645 1.281.968 2.156.968zm9.156 1.032l-3.75-9.016h1.5l3.015 7.39 2.985-7.39h1.515l-3.75 9.016h-1.515zm10.798.218c-1.355 0-2.459-.437-3.313-1.312-.854-.886-1.281-2.026-1.281-3.422 0-1.333.422-2.453 1.265-3.36.855-.906 1.912-1.359 3.172-1.359 1.292 0 2.334.448 3.125 1.344.802.896 1.203 2.057 1.203 3.484v.36h-7.296c.052.916.385 1.666 1 2.25.614.573 1.364.859 2.25.859 1.093 0 2.02-.38 2.781-1.141l.672.922c-.917.917-2.11 1.375-3.578 1.375zm2.796-5.297c0-.833-.276-1.541-.828-2.125-.541-.583-1.255-.875-2.14-.875-.834 0-1.526.292-2.078.875-.552.584-.844 1.292-.875 2.125h5.921zm10.16 5.079v-1.344a3.888 3.888 0 01-1.297 1.125 3.493 3.493 0 01-1.734.437c-1.208 0-2.182-.427-2.922-1.281-.729-.854-1.094-2-1.094-3.437 0-1.438.37-2.584 1.11-3.438.739-.865 1.708-1.297 2.906-1.297.604 0 1.172.141 1.703.422.531.281.974.667 1.328 1.156V345h1.406v12.438h-1.406zm-2.703-1.032c.563 0 1.094-.135 1.594-.406s.87-.604 1.109-1v-4.094c-.239-.396-.609-.734-1.109-1.015a3.11 3.11 0 00-1.594-.438c-.864 0-1.562.318-2.094.953-.531.636-.797 1.479-.797 2.532 0 1.031.261 1.869.782 2.515.531.636 1.234.953 2.109.953zM397.641 357.438v-10.25l-4.235 10.25h-.64l-4.219-10.25v10.25H387V345h2.219l3.859 9.359 3.891-9.359h2.219v12.438h-1.547zm8.327.218c-1.302 0-2.37-.442-3.203-1.328-.834-.885-1.25-2.021-1.25-3.406 0-1.396.416-2.531 1.25-3.406.833-.875 1.901-1.313 3.203-1.313 1.312 0 2.385.438 3.219 1.313.833.875 1.25 2.01 1.25 3.406 0 1.385-.417 2.521-1.25 3.406-.834.886-1.907 1.328-3.219 1.328zm0-1.25c.875 0 1.594-.323 2.156-.968.563-.657.844-1.495.844-2.516 0-1.011-.281-1.839-.844-2.484-.562-.657-1.281-.985-2.156-.985a2.76 2.76 0 00-2.156.969c-.563.646-.844 1.479-.844 2.5 0 1.031.281 1.87.844 2.516.562.645 1.281.968 2.156.968zm13.265 1.032v-1.344a3.898 3.898 0 01-1.297 1.125 3.495 3.495 0 01-1.734.437c-1.209 0-2.182-.427-2.922-1.281-.729-.854-1.094-2-1.094-3.437 0-1.438.37-2.584 1.11-3.438.739-.865 1.708-1.297 2.906-1.297.604 0 1.172.141 1.703.422.531.281.974.667 1.328 1.156V345h1.406v12.438h-1.406zm-2.703-1.032c.562 0 1.094-.135 1.594-.406s.869-.604 1.109-1v-4.094c-.24-.396-.609-.734-1.109-1.015a3.112 3.112 0 00-1.594-.438c-.865 0-1.563.318-2.094.953-.531.636-.797 1.479-.797 2.532 0 1.031.261 1.869.782 2.515.531.636 1.234.953 2.109.953zm10.977 1.25c-1.354 0-2.458-.437-3.312-1.312-.854-.886-1.281-2.026-1.281-3.422 0-1.333.421-2.453 1.265-3.36.854-.906 1.912-1.359 3.172-1.359 1.292 0 2.333.448 3.125 1.344.802.896 1.203 2.057 1.203 3.484v.36h-7.297c.052.916.386 1.666 1 2.25.615.573 1.365.859 2.25.859 1.094 0 2.021-.38 2.782-1.141l.671.922c-.916.917-2.109 1.375-3.578 1.375zm2.797-5.297c0-.833-.276-1.541-.828-2.125-.542-.583-1.255-.875-2.141-.875-.833 0-1.526.292-2.078.875-.552.584-.843 1.292-.875 2.125h5.922zm3.644 5.079V345h1.391v12.438h-1.391z" fill="#0A2C61"/><path fill-rule="evenodd" clip-rule="evenodd" d="M196.95 463.33c63.766-36.821 145.307-14.977 182.127 48.788a133.327 133.327 0 01-48.788 182.127c-63.766 36.821-145.307 14.977-182.128-48.788-36.82-63.766-14.977-145.307 48.789-182.127zm21.424 37.101c-43.276 24.988-58.1 80.327-33.111 123.602 24.988 43.275 80.327 58.1 123.602 33.111 43.275-24.988 58.1-80.327 33.111-123.602-24.989-43.275-80.327-58.1-123.602-33.111z" fill="#000" fill-opacity=".108"/><path d="M263.2 418.271l-.154 45.073" stroke="#A1C3FA" stroke-width="2" stroke-miterlimit="10" stroke-linejoin="round"/><path d="M263.223 411.691a3.29 3.29 0 11-.022 6.58 3.29 3.29 0 01.022-6.58z" fill="#A1C3FA" stroke="#A1C3FA" stroke-width="2" stroke-miterlimit="10"/><path d="M400.395 658.885l-32.988-19.047" stroke="#0944A1" stroke-width="2" stroke-miterlimit="10" stroke-linejoin="round"/><path d="M406.093 662.175a3.29 3.29 0 11-5.699-3.293 3.29 3.29 0 015.699 3.293z" fill="#0944A1" stroke="#0944A1" stroke-width="2" stroke-miterlimit="10"/><path d="M127.79 655.856l35.312-20.36" stroke="#307BF3" stroke-width="2" stroke-miterlimit="10" stroke-linejoin="round"/><path d="M122.089 659.142a3.29 3.29 0 115.701-3.286 3.29 3.29 0 01-5.701 3.286v0z" fill="#307BF3" stroke="#307BF3" stroke-width="2" stroke-miterlimit="10"/><path d="M218.819 589.103l-.766-2.109-5.328-.001-.797 2.109h-3.016l4.814-12.437h3.328l4.78 12.439-3.015-.001zm-3.437-9.797l-1.938 5.359 3.89.001-1.952-5.36zm13.374 9.799v-1.141c-.802.906-1.86 1.359-3.172 1.359-.99 0-1.724-.25-2.203-.75-.469-.5-.703-1.193-.703-2.079v-6.406l2.375.001v5.468c0 1.104.552 1.657 1.656 1.657.812 0 1.495-.339 2.047-1.016v-6.109h2.375v9.016h-2.375zm7.755.22c-1.709-.001-2.563-.818-2.563-2.454l.001-4.703h-1.485v-2.078h1.485v-2.453h2.391l-.001 2.453 1.829.001-.001 2.078-1.828-.001v4.063c0 .292.068.531.203.719.146.177.349.265.609.265.375 0 .651-.083.829-.25l.499 1.782c-.406.385-1.062.578-1.968.578zm7.462.001c-1.396 0-2.542-.449-3.438-1.344-.885-.896-1.328-2.027-1.328-3.391.001-1.365.443-2.49 1.329-3.375.896-.896 2.042-1.344 3.437-1.343 1.386 0 2.526.448 3.422 1.344.896.885 1.344 2.011 1.344 3.375 0 1.386-.448 2.521-1.344 3.406-.896.885-2.037 1.328-3.422 1.328zm0-2.11c.677.001 1.229-.244 1.656-.734.438-.489.656-1.119.657-1.89 0-.75-.219-1.37-.657-1.86-.427-.5-.979-.75-1.656-.75-.666 0-1.219.239-1.656.719-.427.479-.641 1.109-.641 1.89 0 .792.214 1.427.641 1.906.437.48.989.719 1.656.719zm12.599 1.893v-5.453c0-1.115-.552-1.672-1.656-1.672-.854 0-1.536.354-2.047 1.062v6.062h-2.375l.001-9.016 2.375.001-.001 1.187c.282-.354.688-.677 1.219-.968.542-.292 1.188-.438 1.938-.438.989.001 1.724.261 2.203.782.479.511.719 1.208.718 2.094v6.359h-2.375zm8.911.22c-1.395 0-2.541-.448-3.437-1.344-.885-.896-1.328-2.027-1.328-3.391 0-1.365.443-2.49 1.328-3.375.896-.896 2.042-1.343 3.438-1.343 1.385 0 2.526.448 3.422 1.344.896.886 1.343 2.011 1.343 3.375 0 1.386-.448 2.521-1.344 3.406-.896.886-2.036 1.328-3.422 1.328zm.001-2.109c.677 0 1.229-.245 1.656-.735.437-.489.656-1.119.656-1.89 0-.75-.218-1.37-.656-1.86-.427-.5-.979-.75-1.656-.75-.667 0-1.219.24-1.656.719-.428.479-.641 1.109-.641 1.89 0 .792.213 1.427.64 1.907.438.479.99.719 1.657.719zm17.692 1.893l.001-5.688c0-.958-.448-1.437-1.344-1.437a1.87 1.87 0 00-1.109.343 2.888 2.888 0 00-.75.703l-.001 6.078h-2.39v-5.687c0-.959-.448-1.438-1.344-1.438-.406 0-.776.114-1.109.343-.323.23-.573.469-.75.719v6.063l-2.375-.001v-9.015h2.375v1.187c.208-.343.599-.661 1.172-.952a3.833 3.833 0 011.781-.453c1.302 0 2.136.547 2.5 1.641.282-.459.709-.844 1.282-1.156a3.634 3.634 0 011.812-.485c1.76.001 2.641.907 2.641 2.72l-.001 6.515h-2.391zm8.911.22c-1.396 0-2.541-.448-3.437-1.344-.886-.896-1.328-2.027-1.328-3.391 0-1.365.443-2.49 1.328-3.375.896-.896 2.042-1.343 3.438-1.343 1.385 0 2.526.448 3.422 1.344.895.886 1.343 2.011 1.343 3.375 0 1.386-.448 2.521-1.344 3.406-.896.886-2.036 1.328-3.422 1.328zm0-2.109c.677 0 1.23-.245 1.657-.735.437-.489.656-1.119.656-1.89 0-.75-.219-1.37-.656-1.86-.427-.5-.979-.75-1.656-.75-.667 0-1.219.24-1.657.719-.427.479-.64 1.109-.64 1.89 0 .792.213 1.427.64 1.907.438.479.99.719 1.656.719zm12.6 1.892v-1.141c-.802.907-1.86 1.36-3.172 1.359-.99 0-1.724-.25-2.203-.75-.469-.5-.703-1.193-.703-2.078V580.1h2.375v5.469c0 1.104.552 1.656 1.656 1.656.812 0 1.495-.338 2.047-1.015v-6.11l2.375.001v9.015h-2.375zm7.973.22c-.781 0-1.531-.12-2.25-.36-.718-.25-1.312-.594-1.781-1.031l1.032-1.656c.354.333.828.62 1.421.859.605.24 1.167.36 1.688.36 1.01 0 1.516-.323 1.516-.969 0-.25-.136-.437-.407-.562a4.44 4.44 0 00-.968-.313l-1.297-.266c-1.792-.385-2.688-1.281-2.688-2.687 0-.834.344-1.511 1.032-2.032.698-.531 1.588-.796 2.672-.796 1.406 0 2.614.412 3.625 1.235l-.938 1.625c-.281-.292-.656-.537-1.125-.735a3.788 3.788 0 00-1.547-.313c-.437 0-.786.089-1.047.266-.25.167-.375.375-.375.625 0 .229.131.401.391.516.26.104.588.198.984.281.407.083.839.177 1.297.281.458.105.886.261 1.281.469.396.209.724.495.985.86.27.364.406.849.406 1.453 0 .875-.36 1.578-1.078 2.109-.709.521-1.652.781-2.829.781zM227.328 615.105l.001-12.438h2.64v10.11l5.265.001v2.328l-7.906-.001zm13.724.22c-1.417 0-2.573-.437-3.469-1.313-.896-.875-1.344-2.015-1.344-3.422.001-1.343.443-2.463 1.329-3.359.896-.906 2.01-1.359 3.344-1.359 1.323 0 2.406.459 3.25 1.376.843.906 1.265 2.104 1.265 3.594v.515l-6.703-.001c.073.573.328 1.068.765 1.485.448.406 1.058.609 1.828.609.375 0 .792-.078 1.25-.234a3.17 3.17 0 001.157-.671l1.046 1.531c-.447.417-1.005.729-1.671.937a6.74 6.74 0 01-2.047.312zm2.078-5.577c-.042-.594-.271-1.073-.687-1.438-.407-.365-.917-.547-1.532-.547-.625 0-1.135.187-1.531.562-.396.375-.625.849-.687 1.422l4.437.001zm9.41 5.36v-.937c-.656.771-1.604 1.156-2.843 1.156-.875 0-1.62-.277-2.235-.829-.604-.552-.906-1.271-.906-2.156 0-.875.287-1.578.86-2.109.583-.532 1.344-.797 2.281-.797 1.292 0 2.24.365 2.844 1.094v-1.203c0-.458-.182-.823-.547-1.094-.354-.281-.828-.422-1.422-.422-1 0-1.875.354-2.625 1.062l-.906-1.578c1.094-.948 2.406-1.421 3.938-1.421 1.27 0 2.244.297 2.921.891.677.583 1.016 1.422 1.016 2.516l-.001 5.828-2.375-.001zm-1.89-1.375c.864 0 1.495-.265 1.891-.797v-1.109c-.396-.521-1.026-.781-1.891-.781-.479 0-.885.119-1.219.359-.323.229-.484.562-.484 1 0 .416.161.745.484.984.333.229.74.344 1.219.344zm6.615 1.376v-9.016l2.375.001v1.234c.323-.396.74-.734 1.25-1.015a3.28 3.28 0 011.625-.438v2.313l-.656-.063c-.427 0-.854.104-1.282.313-.427.198-.739.437-.937.718v5.953h-2.375zm12.794.002v-5.453c0-1.115-.552-1.672-1.656-1.672-.854 0-1.536.354-2.047 1.062v6.062h-2.375v-9.016l2.375.001v1.187c.282-.354.688-.677 1.219-.968.542-.292 1.188-.438 1.938-.437.989 0 1.724.26 2.203.781.479.511.718 1.209.718 2.094v6.359h-2.375zm5.896-9.983a1.399 1.399 0 01-1-.407 1.377 1.377 0 01-.406-1.016c0-.395.136-.724.406-.984a1.394 1.394 0 011-.406c.407 0 .745.136 1.016.406.271.261.406.589.406.985 0 .406-.135.745-.406 1.015a1.38 1.38 0 01-1.016.407zm-1.172 9.984v-9.016h2.375v9.016h-2.375zm10.798.001v-5.453c0-1.114-.552-1.672-1.656-1.672-.854 0-1.536.354-2.047 1.062v6.063l-2.375-.001v-9.015h2.375v1.188c.282-.354.688-.677 1.219-.969.542-.292 1.188-.437 1.938-.437.989 0 1.724.261 2.203.781.479.511.718 1.209.718 2.094v6.36l-2.375-.001zm8.427 3.658c-.792 0-1.495-.099-2.11-.297-.614-.198-1.208-.547-1.781-1.048l1.063-1.718c.677.75 1.619 1.125 2.828 1.125.781 0 1.385-.203 1.812-.609.438-.396.657-.953.657-1.672v-.906c-.75.938-1.672 1.406-2.766 1.406-1.208 0-2.177-.412-2.906-1.235-.719-.823-1.078-1.937-1.078-3.344 0-1.396.359-2.51 1.078-3.343.719-.834 1.688-1.25 2.907-1.25 1.125 0 2.046.459 2.765 1.376v-1.157l2.391.001-.001 8.406c0 1.365-.422 2.417-1.266 3.156-.843.739-2.041 1.109-3.593 1.109zm.438-5.828a2.45 2.45 0 001.156-.297c.385-.198.677-.437.875-.719v-2.906c-.198-.302-.49-.547-.875-.734a2.447 2.447 0 00-1.156-.297c-.667 0-1.214.218-1.641.656-.417.427-.625 1.036-.625 1.828 0 .781.208 1.39.625 1.828.427.427.974.641 1.641.641z" fill="#869FB2"/><path fill-rule="evenodd" clip-rule="evenodd" d="M386.52 508.506c26.253 46.091 24.562 103.025-4.379 147.472-28.942 44.447-80.269 68.935-132.949 63.43l2.575-24.728c43.404 4.54 85.695-15.641 109.545-52.275 23.85-36.633 25.25-83.562 3.626-121.557l21.582-12.342z" fill="#0944A1"/><path fill-rule="evenodd" clip-rule="evenodd" d="M387.322 509.78c-24.306-43.586-69.81-71.11-119.699-72.402-49.889-1.292-96.756 23.839-123.286 66.108l22.445 14.088a114.738 114.738 0 01100.155-53.705c40.529 1.05 77.495 23.409 97.241 58.818l23.144-12.907z" fill="#A1C3FA"/><path fill-rule="evenodd" clip-rule="evenodd" d="M388.456 537.438l-36.825-9.865 46.69-26.961-9.865 36.826z" fill="#A1C3FA"/><path fill-rule="evenodd" clip-rule="evenodd" d="M143.526 504.816c-26.218 42.983-27.565 96.675-3.536 140.919 24.029 44.244 69.799 72.347 120.127 73.758l.746-26.578c-40.852-1.146-78.003-23.957-97.508-59.87-19.504-35.913-18.41-79.494 2.87-114.384l-22.699-13.845z" fill="#307BF3"/><path fill-rule="evenodd" clip-rule="evenodd" d="M237.681 707.447l23.211-23.222.01 46.433-23.221-23.211z" fill="#0944A1"/><path fill-rule="evenodd" clip-rule="evenodd" d="M167.373 489.553l9.238 37.032-46.27-27.794 37.032-9.238z" fill="#307BF3"/><path d="M263.956 73.583l-.14-33.574" stroke="#5F7D95" stroke-width="2" stroke-miterlimit="10" stroke-linejoin="round"/><path d="M263.965 75.504a.96.96 0 10-.009-1.921.96.96 0 00.009 1.921v0z" fill="#5F7D95" stroke="#5F7D95" stroke-width="2" stroke-miterlimit="10"/><path d="M264.028 39.92l-.154 12.533" stroke="#5F7D95" stroke-width="2" stroke-miterlimit="10" stroke-linejoin="round"/><path d="M264.051 38a.96.96 0 10-.022 1.922.96.96 0 00.022-1.922z" fill="#5F7D95" stroke="#5F7D95" stroke-width="2" stroke-miterlimit="10"/><path d="M263.956 241.583l-.14-33.574" stroke="#5F7D95" stroke-width="2" stroke-miterlimit="10" stroke-linejoin="round"/><path d="M263.965 243.504a.96.96 0 10-.008-1.92.96.96 0 00.008 1.92v0z" fill="#5F7D95" stroke="#5F7D95" stroke-width="2" stroke-miterlimit="10"/><path d="M264.028 207.921l-.154 12.532" stroke="#5F7D95" stroke-width="2" stroke-miterlimit="10" stroke-linejoin="round"/><path d="M264.051 206a.961.961 0 10-.022 1.922.961.961 0 00.022-1.922z" fill="#5F7D95" stroke="#5F7D95" stroke-width="2" stroke-miterlimit="10"/><path d="M263.956 157.583l-.14-33.574" stroke="#5F7D95" stroke-width="2" stroke-miterlimit="10" stroke-linejoin="round"/><path d="M263.965 159.504a.96.96 0 10-.008-1.92.96.96 0 00.008 1.92v0z" fill="#5F7D95" stroke="#5F7D95" stroke-width="2" stroke-miterlimit="10"/><path d="M264.028 123.921l-.154 12.532" stroke="#5F7D95" stroke-width="2" stroke-miterlimit="10" stroke-linejoin="round"/><path d="M264.051 122a.961.961 0 10-.022 1.922.961.961 0 00.022-1.922z" fill="#5F7D95" stroke="#5F7D95" stroke-width="2" stroke-miterlimit="10"/><path d="M262.956 326.583l-.14-33.574" stroke="#5F7D95" stroke-width="2" stroke-miterlimit="10" stroke-linejoin="round"/><path d="M262.965 328.504a.96.96 0 10-.008-1.92.96.96 0 00.008 1.92v0z" fill="#5F7D95" stroke="#5F7D95" stroke-width="2" stroke-miterlimit="10"/><path d="M263.028 292.921l-.154 12.532" stroke="#5F7D95" stroke-width="2" stroke-miterlimit="10" stroke-linejoin="round"/><path d="M263.051 291a.961.961 0 10-.022 1.922.961.961 0 00.022-1.922z" fill="#5F7D95" stroke="#5F7D95" stroke-width="2" stroke-miterlimit="10"/><path d="M303 267.438V255h4.25c1.896 0 3.432.589 4.609 1.766 1.188 1.166 1.782 2.651 1.782 4.453 0 1.823-.594 3.317-1.782 4.484-1.187 1.156-2.724 1.735-4.609 1.735H303zm4.25-1.376c1.417 0 2.568-.442 3.453-1.328.886-.895 1.328-2.067 1.328-3.515 0-1.438-.437-2.604-1.312-3.5-.865-.896-2.021-1.344-3.469-1.344h-2.703v9.687h2.703zm12.825 1.594c-1.354 0-2.458-.437-3.312-1.312-.855-.886-1.282-2.026-1.282-3.422 0-1.333.422-2.453 1.266-3.36.854-.906 1.911-1.359 3.172-1.359 1.291 0 2.333.448 3.125 1.344.802.896 1.203 2.057 1.203 3.484v.36h-7.297c.052.916.385 1.666 1 2.25.615.573 1.365.859 2.25.859 1.094 0 2.021-.38 2.781-1.141l.672.922c-.916.917-2.109 1.375-3.578 1.375zm2.797-5.297c0-.833-.276-1.541-.828-2.125-.542-.583-1.255-.875-2.141-.875-.833 0-1.526.292-2.078.875-.552.584-.844 1.292-.875 2.125h5.922zm3.644 5.079V255h1.391v12.438h-1.391zm4.885-10.297a.925.925 0 01-.656-.266.913.913 0 01-.281-.672c0-.26.093-.484.281-.672a.9.9 0 01.656-.281c.261 0 .485.094.672.281a.917.917 0 01.281.672.913.913 0 01-.281.672.944.944 0 01-.672.266zm-.687 10.297v-9.016h1.39v9.016h-1.39zm6.604 0l-3.75-9.016h1.5l3.015 7.39 2.985-7.39h1.515l-3.75 9.016h-1.515zm10.797.218c-1.354 0-2.458-.437-3.312-1.312-.854-.886-1.281-2.026-1.281-3.422 0-1.333.422-2.453 1.265-3.36.854-.906 1.912-1.359 3.172-1.359 1.292 0 2.333.448 3.125 1.344.802.896 1.203 2.057 1.203 3.484v.36h-7.297c.052.916.386 1.666 1 2.25.615.573 1.365.859 2.25.859 1.094 0 2.021-.38 2.782-1.141l.672.922c-.917.917-2.11 1.375-3.579 1.375zm2.797-5.297c0-.833-.276-1.541-.828-2.125-.542-.583-1.255-.875-2.14-.875-.834 0-1.527.292-2.079.875-.552.584-.843 1.292-.875 2.125h5.922zm3.644 5.079v-9.016h1.391v1.453c.833-1.094 1.833-1.641 3-1.641v1.438l-.547-.047c-.427 0-.896.151-1.406.453-.511.302-.86.63-1.047.984v6.376h-1.391zM361.641 23.438v-10.25l-4.235 10.25h-.64l-4.219-10.25v10.25H351V11h2.219l3.859 9.36 3.891-9.36h2.219v12.438h-1.547zm8.327.218c-1.302 0-2.37-.442-3.203-1.328-.834-.885-1.25-2.02-1.25-3.406 0-1.396.416-2.531 1.25-3.406.833-.875 1.901-1.313 3.203-1.313 1.312 0 2.385.438 3.219 1.313.833.875 1.25 2.01 1.25 3.406 0 1.385-.417 2.52-1.25 3.406-.834.886-1.907 1.328-3.219 1.328zm0-1.25c.875 0 1.594-.323 2.156-.968.563-.657.844-1.495.844-2.516 0-1.01-.281-1.839-.844-2.485-.562-.656-1.281-.984-2.156-.984a2.76 2.76 0 00-2.156.969c-.563.646-.844 1.479-.844 2.5 0 1.031.281 1.87.844 2.515.562.646 1.281.97 2.156.97zm13.265 1.032v-1.344a3.891 3.891 0 01-1.297 1.125 3.49 3.49 0 01-1.734.437c-1.209 0-2.182-.427-2.922-1.281-.729-.854-1.094-2-1.094-3.438 0-1.437.37-2.583 1.11-3.437.739-.865 1.708-1.297 2.906-1.297.604 0 1.172.14 1.703.422.531.281.974.667 1.328 1.156V11h1.406v12.438h-1.406zm-2.703-1.032a3.3 3.3 0 001.594-.406c.5-.27.869-.604 1.109-1v-4.094c-.24-.396-.609-.734-1.109-1.015a3.116 3.116 0 00-1.594-.438c-.865 0-1.563.318-2.094.953-.531.636-.797 1.48-.797 2.532 0 1.03.261 1.87.782 2.515.531.636 1.234.953 2.109.953zm10.977 1.25c-1.354 0-2.458-.437-3.312-1.312-.854-.886-1.281-2.026-1.281-3.422 0-1.334.421-2.453 1.265-3.36.854-.906 1.912-1.359 3.172-1.359 1.292 0 2.333.448 3.125 1.344.802.896 1.203 2.057 1.203 3.484v.36h-7.297c.052.916.386 1.666 1 2.25.615.573 1.365.859 2.25.859 1.094 0 2.021-.38 2.782-1.14l.671.921c-.916.917-2.109 1.375-3.578 1.375zm2.797-5.297c0-.833-.276-1.541-.828-2.125-.542-.583-1.255-.875-2.141-.875-.833 0-1.526.292-2.078.875-.552.584-.843 1.292-.875 2.125h5.922zm3.644 5.078V11h1.391v12.438h-1.391zM303 23.438V11h1.547v12.438H303zm10.49 0v-5.891c0-.802-.187-1.35-.562-1.64-.365-.303-.849-.454-1.453-.454-.521 0-1.037.14-1.547.422-.5.281-.875.61-1.125.984v6.578h-1.391v-9.015h1.391v1.312a4.503 4.503 0 011.422-1.093 3.875 3.875 0 011.781-.438c1.916 0 2.875.969 2.875 2.906v6.328h-1.391zm4.889-10.297a.924.924 0 01-.656-.266.915.915 0 01-.281-.672c0-.26.093-.484.281-.672a.898.898 0 01.656-.281c.261 0 .484.094.672.281a.919.919 0 01.281.672c0 .26-.094.485-.281.672a.945.945 0 01-.672.266zm-.687 10.296v-9.015h1.39v9.015h-1.39zm6.463.22c-1.333 0-2-.704-2-2.11v-5.89h-1.484v-1.235h1.484v-2.453h1.406v2.453h1.828v1.234h-1.828v5.594c0 .344.073.625.219.844.156.208.391.312.703.312.385 0 .698-.125.938-.375l.421 1.047c-.385.386-.948.578-1.687.578zm3.907-10.516a.928.928 0 01-.657-.266.919.919 0 01-.281-.672c0-.26.094-.484.281-.672a.902.902 0 01.657-.281.92.92 0 01.672.281.919.919 0 01.281.672c0 .26-.094.485-.281.672a.946.946 0 01-.672.266zm-.688 10.296v-9.015h1.391v9.015h-1.391zm9.823 0v-1.03c-.761.833-1.755 1.25-2.985 1.25-.906 0-1.661-.287-2.265-.86-.594-.573-.891-1.281-.891-2.125 0-.865.297-1.573.891-2.125.594-.563 1.349-.844 2.265-.844 1.292 0 2.287.412 2.985 1.235v-1.625c0-.605-.214-1.068-.641-1.391-.427-.334-.974-.5-1.64-.5-1.052 0-1.969.416-2.75 1.25l-.657-.985c.959-.99 2.157-1.484 3.594-1.484 1.115 0 1.974.271 2.578.813.615.53.922 1.276.922 2.234v6.188h-1.406zm-2.485-.78c1.115 0 1.943-.376 2.485-1.126v-1.687c-.542-.75-1.37-1.125-2.485-1.125-.656 0-1.192.182-1.609.547-.406.364-.609.838-.609 1.422 0 .572.203 1.046.609 1.421.417.365.953.547 1.609.547zm6.692.78V11h1.39v12.438h-1.39zM309.391 105.875c-1.823 0-3.344-.599-4.563-1.797-1.219-1.208-1.828-2.755-1.828-4.64 0-1.876.609-3.417 1.828-4.626 1.219-1.208 2.74-1.812 4.563-1.812 1.979 0 3.557.823 4.734 2.469l-1.312.734a4.173 4.173 0 00-1.454-1.297 3.912 3.912 0 00-1.968-.515c-1.375 0-2.516.479-3.422 1.437-.906.959-1.36 2.162-1.36 3.61 0 1.468.448 2.682 1.344 3.64.906.948 2.052 1.422 3.438 1.422a4.01 4.01 0 001.968-.5 4.322 4.322 0 001.454-1.312l1.328.734c-1.209 1.635-2.792 2.453-4.75 2.453zm10.596 0c-1.302 0-2.37-.443-3.203-1.328-.834-.886-1.25-2.021-1.25-3.406 0-1.396.416-2.532 1.25-3.407.833-.875 1.901-1.312 3.203-1.312 1.312 0 2.385.437 3.218 1.312.834.875 1.25 2.01 1.25 3.407 0 1.385-.416 2.52-1.25 3.406-.833.885-1.906 1.328-3.218 1.328zm0-1.25c.875 0 1.593-.323 2.156-.969.562-.656.844-1.495.844-2.515 0-1.011-.282-1.839-.844-2.485-.563-.656-1.281-.984-2.156-.984-.865 0-1.584.323-2.157.969-.562.645-.843 1.479-.843 2.5 0 1.031.281 1.869.843 2.515.563.646 1.282.969 2.157.969zm6.749 1.031V93.219h1.391v12.437h-1.391zm4.198 0V93.219h1.39v12.437h-1.39zm8.26.219c-1.354 0-2.458-.437-3.313-1.313-.854-.885-1.281-2.026-1.281-3.421 0-1.334.422-2.454 1.266-3.36.854-.906 1.911-1.36 3.172-1.36 1.291 0 2.333.449 3.125 1.345.802.895 1.203 2.057 1.203 3.484v.359h-7.297c.052.917.385 1.667 1 2.25.615.573 1.365.86 2.25.86 1.094 0 2.021-.38 2.781-1.141l.672.922c-.917.917-2.109 1.375-3.578 1.375zm2.797-5.297c0-.833-.276-1.541-.828-2.125-.542-.583-1.255-.875-2.141-.875-.833 0-1.526.292-2.078.875-.552.584-.844 1.292-.875 2.125h5.922zm7.613 5.297c-1.323 0-2.407-.448-3.25-1.344-.834-.896-1.25-2.026-1.25-3.39 0-1.355.416-2.48 1.25-3.375.843-.896 1.927-1.344 3.25-1.344 1.396 0 2.494.52 3.297 1.562l-.922.86c-.573-.781-1.339-1.172-2.297-1.172-.927 0-1.682.323-2.266.969-.573.635-.859 1.468-.859 2.5 0 1.041.286 1.885.859 2.531.573.635 1.328.953 2.266.953.937 0 1.703-.391 2.297-1.172l.922.859c-.803 1.042-1.901 1.563-3.297 1.563zm7.531 0c-1.333 0-2-.703-2-2.109v-5.891h-1.484v-1.234h1.484v-2.454h1.407v2.454h1.828v1.234h-1.828v5.594c0 .343.073.625.218.843.157.209.391.313.704.313.385 0 .697-.125.937-.375l.422 1.047c-.385.385-.948.578-1.688.578zM306.938 189.438v-11.063H303V177h9.438v1.375h-3.954v11.063h-1.546zm5.922 0v-9.016h1.391v1.453c.833-1.094 1.833-1.641 3-1.641v1.438l-.547-.047c-.427 0-.896.151-1.407.453-.51.302-.859.63-1.046.984v6.376h-1.391zm11.782 0v-1.032c-.761.834-1.756 1.25-2.985 1.25-.906 0-1.661-.286-2.265-.859-.594-.573-.891-1.281-.891-2.125 0-.865.297-1.573.891-2.125.593-.563 1.348-.844 2.265-.844 1.292 0 2.287.412 2.985 1.235v-1.626c0-.604-.214-1.067-.641-1.39-.427-.333-.974-.5-1.641-.5-1.052 0-1.968.417-2.75 1.25l-.656-.984c.958-.99 2.156-1.485 3.594-1.485 1.114 0 1.974.271 2.578.813.614.531.922 1.276.922 2.234v6.188h-1.406zm-2.485-.782c1.115 0 1.943-.375 2.485-1.125v-1.687c-.542-.75-1.37-1.125-2.485-1.125-.656 0-1.193.182-1.609.547-.406.364-.61.838-.61 1.422 0 .572.204 1.046.61 1.421.416.365.953.547 1.609.547zm7.379-9.515a.925.925 0 01-.656-.266.914.914 0 01-.282-.672c0-.26.094-.484.282-.672a.9.9 0 01.656-.281.92.92 0 01.672.281.92.92 0 01.281.672.917.917 0 01-.281.672.947.947 0 01-.672.266zm-.688 10.297v-9.016h1.391v9.016h-1.391zm10.276 0v-5.891c0-.802-.187-1.349-.562-1.641-.365-.302-.849-.453-1.453-.453-.521 0-1.037.141-1.547.422-.5.281-.875.609-1.125.984v6.579h-1.391v-9.016h1.391v1.312a4.495 4.495 0 011.422-1.093 3.87 3.87 0 011.781-.438c1.916 0 2.875.969 2.875 2.906v6.329h-1.391z" fill="#0A2C61"/><path fill-rule="evenodd" clip-rule="evenodd" d="M250.205 334.234v2.011h-2.104v-2.011h2.104zm28.618 0v2.011h-2.011v-2.011h2.011zm-4.115 2.011v1.097c0 .549.458 1.005 1.007 1.005h1.097v22.494h-1.097c-.549 0-1.007.455-1.007 1.004v1.097h-22.492v-1.097c0-.549-.458-1.004-1.007-1.004h-1.004v-22.494h1.004c.549 0 1.007-.456 1.007-1.005v-1.097h22.492zm-24.596 26.697v2.011h-2.011v-2.011h2.011zm28.711 0v2.011h-2.011v-2.011h2.011zm-31.726-30.812c-.641 0-1.097.459-1.097 1.097v4.023c0 .641.456 1.097 1.097 1.097h1.004v22.494h-1.004c-.641 0-1.097.455-1.097 1.004v4.115c0 .639.456 1.097 1.097 1.097h4.112c.549 0 1.007-.458 1.007-1.097v-1.007h22.492v1.007c0 .639.458 1.097 1.007 1.097h4.112c.641 0 1.1-.458 1.1-1.097v-4.115c0-.549-.459-1.004-1.1-1.004h-1.004v-22.494h1.004c.641 0 1.1-.456 1.1-1.097v-4.023c0-.638-.459-1.097-1.1-1.097h-4.112c-.549 0-1.007.459-1.007 1.097v1.007h-22.492v-1.007c0-.638-.458-1.097-1.007-1.097h-4.112z" fill="#5F7D95"/><path fill-rule="evenodd" clip-rule="evenodd" d="M272.696 342.372v12.891l-4.388-4.388c-.182-.183-.458-.366-.731-.366-.276 0-.641.183-.731.366l-3.201 3.474-3.567-3.567a.97.97 0 00-.696-.273c-.262 0-.537.09-.767.273l-4.388 4.388v-12.798h18.469zm-13.256 10.697l3.656 3.657h-7.313l3.657-3.657zm8.227.09l3.66 3.657h-5.395v-.09l-.825-.825 2.56-2.742zm-14.354-12.798c-.548 0-1.007.455-1.007 1.097v16.272c0 .641.459 1.1 1.007 1.1h20.39c.549 0 1.005-.459 1.005-1.1v-16.272c0-.642-.456-1.097-1.005-1.097h-20.39z" fill="#5F7D95"/><path fill-rule="evenodd" clip-rule="evenodd" d="M263.372 345.57c.638 0 1.097.458 1.097 1.007 0 .548-.459 1.004-1.097 1.004a1.014 1.014 0 01-1.007-1.004c0-.549.458-1.007 1.007-1.007zm0-2.101c-1.648 0-3.018 1.37-3.018 3.108.09 1.735 1.462 3.108 3.018 3.108a3.085 3.085 0 003.108-3.108 3.083 3.083 0 00-3.108-3.108zM280.79 253.301c.353.091.596.249.903.516.172.42.257.818.08 1.148-1.06 3.015-2.493 5.656-4.517 8.047l-5.783-9.668c2.965-.552 6.166-.572 9.317-.043zm-24.074 4.796c-1.023 1.052-2.159 2.171-3.051 3.445a25.51 25.51 0 00-1.481-.436c-.993-.256-1.993-.429-2.993-.437.267-.307.71-.568.932-.699 2.104-1.242 4.252-1.912 6.593-1.873zm12.392-4.327l6.479 10.975c-4.626 4.823-10.917 7.714-17.74 7.931l-4.21-7.006c3.462-5.783 9.055-9.981 15.471-11.9zm-17.358 13.389l3.926 6.65-1.846 1.687-4.516-7.649 2.436-.688zm-2.84 4.815l1.137 1.796c-.533.239-1.265.519-1.971.713-1.017.301-1.813.472-2.102.493.29-.396.692-.857 1.448-1.602.621-.592 1.11-1.03 1.488-1.4zm16.943 1.729a12.231 12.231 0 01-5.799 5.369c.739-1.406 1.102-2.816 1.289-4.272 1.634-.146 3.161-.597 4.51-1.097zm15.758-22.742a2.66 2.66 0 00-.295-.061c-2.977-.486-5.867-.571-8.896-.131-2.807.312-5.683 1.263-8.429 2.435-1.596.717-3.234 1.61-4.633 2.661-3.484-.709-7.242.015-10.367 1.933-1.53.83-2.886 2.076-4.064 3.372-.38.374-.34.948-.165 1.369.195.331.525.511.701.556.266.069.353.091.552.047 1.794-.385 3.689-.285 5.449.169.193.049.386.102.576.163-.2.417-.38.746-.581 1.166l-4.358 1.225c-.733.283-1.136 1.119-.631 1.718l1.178 1.995c-.71.569-1.579 1.38-2.445 2.192-.691.855-1.312 1.447-1.624 1.93-.648 1.056-.766 1.87-.284 2.559.271.457.696.695 1.188.822.344.088.72.122 1.1.143.773-.082 1.482-.275 2.499-.577 1.108-.278 2.148-.67 3.099-1.081l1.244 2.105c.172.294.448.485.742.561.375.096.782.01 1.067-.284l3.177-3.221c.465.025.84.029 1.328-.034a12.548 12.548 0 01-2.623 5.432c-.29.397-.339.948-.078 1.391.116.281.422.485.755.57.165.043.34.055.501.034 1.704-.405 3.364-1.013 4.916-1.929 3.212-1.896 5.552-4.773 6.704-8.143 1.615-.804 3.145-1.633 4.588-2.858 2.443-1.817 4.553-3.809 6.269-6.094 1.828-2.349 3.196-5.099 4.186-7.852.424-.547.431-1.673-.18-2.582-.531-.901-1.296-1.477-2.166-1.701z" fill="#5F7D95"/><path fill-rule="evenodd" clip-rule="evenodd" d="M266.642 260.794c.616.159 1.177.539 1.503 1.094.632 1.195.268 2.605-.84 3.26-.553.329-1.228.39-1.844.232-.618-.16-1.177-.539-1.505-1.095-.654-1.108-.269-2.605.84-3.26.556-.328 1.228-.39 1.846-.231zm.574-2.32c-1.169-.301-2.478-.143-3.685.534-2.219 1.308-2.991 4.304-1.68 6.522.654 1.108 1.73 1.857 2.919 2.163 1.192.307 2.495.171 3.603-.483 2.217-1.309 2.989-4.305 1.68-6.522-.643-1.153-1.67-1.913-2.837-2.214zM273.703 171.775c.549 0 1.005.455 1.005 1.004v20.39c0 .549-.456 1.004-1.005 1.004h-20.3c-.638 0-1.004-.455-1.004-1.004v-20.39c0-.549.366-1.004 1.004-1.004h20.3zm-18.469-6.309c-.548 0-1.007.455-1.007 1.004v3.111h-1.097c-1.645 0-3.018 1.37-3.018 3.108v1.004h-3.108c-.548 0-1.004.459-1.004 1.007 0 .549.456 1.004 1.004 1.004h3.108v2.104h-3.108c-.548 0-1.004.459-1.004 1.007 0 .639.456 1.097 1.004 1.097h3.108v2.011h-3.108c-.548 0-1.004.456-1.004 1.005 0 .641.456 1.096 1.004 1.096h3.108v2.015h-3.108c-.548 0-1.004.455-1.004 1.004 0 .641.456 1.097 1.004 1.097h3.108v2.011h-3.108c-.548 0-1.004.458-1.004 1.007 0 .638.456 1.097 1.004 1.097h3.108v1.004c0 1.738 1.373 3.111 3.018 3.111h1.097v3.015c0 .642.459 1.097 1.007 1.097.549 0 1.005-.455 1.005-1.097v-3.291h2.104v3.108c0 .549.455 1.008 1.004 1.008.548 0 1.007-.459 1.007-1.008v-3.108h2.101v3.108c0 .549.458 1.008 1.007 1.008.548 0 1.007-.459 1.007-1.008v-3.108h2.101v3.108c0 .549.459 1.008 1.007 1.008.549 0 1.004-.459 1.004-1.008v-3.108h2.104v3.108c0 .549.456 1.008 1.004 1.008.549 0 1.007-.459 1.007-1.008v-3.108h1.007a3.084 3.084 0 003.109-3.108v-1.007h3.108c.548 0 1.004-.455 1.004-1.004 0-.548-.456-1.007-1.004-1.007h-3.108v-2.101h3.108c.548 0 1.004-.459 1.004-1.007 0-.639-.456-1.097-1.004-1.097h-3.108v-2.011h3.108c.548 0 1.004-.459 1.004-1.007 0-.639-.456-1.097-1.004-1.097h-3.108v-2.011h3.108v.275c.548 0 1.004-.458 1.004-1.097 0-.548-.456-1.007-1.004-1.007h-3.108v-2.104h3.108c.548 0 1.004-.455 1.004-1.004 0-.548-.456-1.007-1.004-1.007h-3.108v-1.004a3.083 3.083 0 00-3.109-3.108h-1.007v-3.111c0-.549-.458-1.004-1.007-1.004-.548 0-1.004.455-1.004 1.004v3.111h-2.104v-3.111c0-.549-.455-1.004-1.004-1.004-.548 0-1.007.455-1.007 1.004v3.111h-2.101v-3.111c0-.549-.459-1.004-1.007-1.004-.549 0-1.007.455-1.007 1.004v3.111h-2.101v-3.111c0-.549-.459-1.004-1.007-1.004-.549 0-1.004.455-1.004 1.004v3.111h-2.104v-3.111c0-.549-.456-1.004-1.005-1.004z" fill="#5F7D95"/><path fill-rule="evenodd" clip-rule="evenodd" d="M255.417 173.693c-.548 0-1.007.459-1.007 1.007 0 .639.459 1.097 1.007 1.097.549 0 1.004-.458 1.004-1.097 0-.548-.455-1.007-1.004-1.007zM255.417 190.061c-.548 0-1.007.456-1.007 1.004s.459 1.007 1.007 1.007c.549 0 1.004-.459 1.004-1.007 0-.548-.455-1.004-1.004-1.004zM271.782 190.061c-.548 0-1.007.456-1.007 1.004s.459 1.007 1.007 1.007c.549 0 1.007-.459 1.007-1.007 0-.548-.458-1.004-1.007-1.004zM271.782 173.693c-.548 0-1.007.459-1.007 1.007 0 .549.459 1.097 1.007 1.097.549 0 1.007-.548 1.007-1.097 0-.548-.458-1.007-1.007-1.007zM264.559 176.894v.366c0 .458.276.824.731.914.549.183 1.097.548 1.556.914.229.116.499.232.757.232.148 0 .296-.04.43-.139l.365-.183 1.007 1.646-.365.272c-.366.183-.549.642-.459 1.007a6.03 6.03 0 010 1.829c-.09.455.093.821.459 1.004l.365.276-1.007 1.645-.365-.183a1.201 1.201 0 00-.531-.128c-.227 0-.456.067-.656.221-.459.456-1.007.731-1.556.914-.455.183-.731.639-.731.914v.366h-2.011v-.366c0-.458-.276-.731-.732-.914-.548-.183-1.097-.548-1.555-.914-.229-.116-.499-.232-.757-.232a.692.692 0 00-.43.139l-.366.183-1.007-1.645.366-.276c.366-.183.548-.639.458-1.004a6.095 6.095 0 010-1.829c.09-.458-.092-.824-.458-1.007l-.366-.272 1.007-1.646.366.183c.168.128.36.194.548.194.221 0 .444-.09.639-.287.458-.456 1.007-.731 1.555-.914.456-.09.732-.549.732-.914v-.366h2.011zm-2.925-2.194c-.642 0-1.097.456-1.097 1.004v.732c-.276.092-.642.368-.915.551l-.548-.366a1.284 1.284 0 00-.473-.09c-.354 0-.711.142-.9.456l-2.011 3.564c-.273.458-.183 1.097.276 1.372l.638.366v1.097l-.638.366c-.366.183-.642.914-.276 1.369l2.011 3.567c.174.29.494.47.822.47a.879.879 0 00.551-.194l.548-.276c.366.183.732.459.915.549v.641c0 .638.455 1.097 1.097 1.097h4.115c.548 0 1.004-.459 1.004-1.097v-.641c.366-.09.641-.366.914-.549l.549.276c.171.101.383.154.586.154.342 0 .67-.143.786-.43l2.101-3.567a1.16 1.16 0 00-.365-1.369l-.549-.366v-1.097l.549-.366c.458-.275.641-.914.365-1.372l-2.101-3.564c-.125-.314-.502-.496-.873-.496a.957.957 0 00-.499.13l-.549.366c-.366-.183-.731-.459-.914-.551v-.732c0-.548-.456-1.004-1.004-1.004h-4.115z" fill="#5F7D95"/><path fill-rule="evenodd" clip-rule="evenodd" d="M263.555 181.831c.548 0 1.004.458 1.004 1.007 0 .548-.456 1.004-1.004 1.004a1.012 1.012 0 01-1.007-1.004c0-.549.455-1.007 1.007-1.007zm0-1.919c-1.739 0-3.111 1.37-3.111 3.016a3.085 3.085 0 003.111 3.111 3.085 3.085 0 003.108-3.111c0-1.646-1.373-3.016-3.108-3.016zM246 94.71v15.085l4.112-2.011v-10.97L246 94.71zM280.834 94.71l-4.115 2.104v10.97l4.115 2.011V94.71z" fill="#5F7D95"/><path fill-rule="evenodd" clip-rule="evenodd" d="M263.462 93.154c5.029 0 9.142 4.115 9.142 9.145 0 5.029-4.113 9.141-9.142 9.141-5.029 0-9.145-4.112-9.145-9.141 0-5.03 4.116-9.145 9.145-9.145zm-12.343-6.216c-.548 0-1.007.459-1.007 1.097v1.007h-1.004A3.08 3.08 0 00246 92.15v.273l5.575 2.742c.366.276.641.642.641.917v12.25c0 .366-.275.732-.641.914L246 111.989v.366a3.083 3.083 0 003.108 3.111h28.708c1.645 0 3.018-1.373 3.018-3.111v-.366l-5.578-2.743a1.003 1.003 0 01-.548-.914v-12.25c0-.275.182-.64.548-.917l5.578-2.742v-.273a3.083 3.083 0 00-3.108-3.108h-25.51v-1.007c0-.638-.458-1.097-1.097-1.097z" fill="#5F7D95"/><path fill-rule="evenodd" clip-rule="evenodd" d="M263.462 96.997c2.835 0 5.119 2.284 5.119 5.209-.09 2.835-2.377 5.122-5.119 5.122a5.112 5.112 0 01-5.119-5.122c0-2.925 2.284-5.21 5.119-5.21zm0-1.922c-3.84 0-7.041 3.201-7.041 7.131 0 3.842 3.201 7.04 7.041 7.04 3.932 0 7.13-3.198 7.13-7.04 0-3.93-3.198-7.13-7.13-7.13zM259.347 84.927c-.366 0-.639.183-.914.548l-.639 1.463h11.429l-.825-1.463a1.004 1.004 0 00-.914-.548h-8.137z" fill="#5F7D95"/><path fill-rule="evenodd" clip-rule="evenodd" d="M263.462 99.19a3.08 3.08 0 00-3.108 3.109c0 1.645 1.37 3.018 3.108 3.018s3.108-1.373 3.108-3.018c0-1.739-1.463-3.108-3.108-3.108zM250.205 2.104v2.011h-2.104V2.104h2.104zm28.618 0v2.011h-2.011V2.104h2.011zm-4.115 2.011v1.097c0 .549.458 1.004 1.007 1.004h1.097V28.71h-1.097c-.549 0-1.007.456-1.007 1.005v1.097h-22.492v-1.097c0-.549-.458-1.005-1.007-1.005h-1.004V6.216h1.004c.549 0 1.007-.455 1.007-1.004V4.115h22.492zm-24.596 26.697v2.01h-2.011v-2.01h2.011zm28.711 0v2.01h-2.011v-2.01h2.011zM247.097 0C246.456 0 246 .459 246 1.097v4.022c0 .642.456 1.097 1.097 1.097h1.004V28.71h-1.004c-.641 0-1.097.456-1.097 1.005v4.115c0 .638.456 1.097 1.097 1.097h4.112c.549 0 1.007-.459 1.007-1.097v-1.007h22.492v1.007c0 .638.458 1.097 1.007 1.097h4.112c.641 0 1.1-.459 1.1-1.097v-4.115c0-.549-.459-1.005-1.1-1.005h-1.004V6.216h1.004c.641 0 1.1-.455 1.1-1.097V1.097c0-.638-.459-1.097-1.1-1.097h-4.112c-.549 0-1.007.459-1.007 1.097v1.007h-22.492V1.097c0-.638-.458-1.097-1.007-1.097h-4.112z" fill="#5F7D95"/><path fill-rule="evenodd" clip-rule="evenodd" d="M272.696 10.242v12.89l-4.388-4.387c-.182-.183-.458-.366-.731-.366-.276 0-.641.183-.731.366l-3.201 3.473-3.567-3.566a.97.97 0 00-.696-.273c-.262 0-.537.09-.767.273l-4.388 4.388V10.242h18.469zM259.44 20.938l3.656 3.656h-7.313l3.657-3.656zm8.227.09l3.66 3.656h-5.395v-.09l-.825-.824 2.56-2.742zM253.313 8.23c-.548 0-1.007.456-1.007 1.097V25.6c0 .642.459 1.1 1.007 1.1h20.39c.549 0 1.005-.458 1.005-1.1V9.327c0-.641-.456-1.097-1.005-1.097h-20.39z" fill="#5F7D95"/><path fill-rule="evenodd" clip-rule="evenodd" d="M263.372 13.44c.638 0 1.097.458 1.097 1.007 0 .548-.459 1.004-1.097 1.004a1.014 1.014 0 01-1.007-1.004c0-.549.458-1.007 1.007-1.007zm0-2.101c-1.648 0-3.018 1.37-3.018 3.108.09 1.735 1.462 3.108 3.018 3.108a3.084 3.084 0 003.108-3.108 3.083 3.083 0 00-3.108-3.108z" fill="#5F7D95"/></svg>