<svg version="1.1" viewBox="0.0 0.0 960.0 540.0" fill="none" stroke="none" stroke-linecap="square" stroke-miterlimit="10" xmlns:xlink="http://www.w3.org/1999/xlink" xmlns="http://www.w3.org/2000/svg"><clipPath id="g9046d6eec0_3_0.0"><path d="m0 0l960.0 0l0 540.0l-960.0 0l0 -540.0z" clip-rule="nonzero"/></clipPath><g clip-path="url(#g9046d6eec0_3_0.0)"><path fill="#000000" fill-opacity="0.0" d="m0 0l960.0 0l0 540.0l-960.0 0z" fill-rule="evenodd"/><path fill="#000000" fill-opacity="0.0" d="m434.15723 142.94757l91.68506 0l0 35.055115l-91.68506 0z" fill-rule="evenodd"/><path fill="#ffffff" d="m464.77444 167.39513l0 -11.0625l-3.9375 0l0 -1.375l9.4375 0l0 1.375l-3.953125 0l0 11.0625l-1.546875 0zm5.922394 0l0 -9.015625l1.390625 0l0 1.453125q1.25 -1.640625 3.0 -1.640625l0 1.4375l-0.546875 -0.046875q-0.640625 0 -1.40625 0.453125q-0.765625 0.453125 -1.046875 0.984375l0 6.375l-1.390625 0zm11.781586 0l0 -1.03125q-1.140625 1.25 -2.984375 1.25q-1.359375 0 -2.265625 -0.859375q-0.890625 -0.859375 -0.890625 -2.125q0 -1.296875 0.890625 -2.125q0.890625 -0.84375 2.265625 -0.84375q1.9375 0 2.984375 1.234375l0 -1.625q0 -0.90625 -0.640625 -1.390625q-0.640625 -0.5 -1.640625 -0.5q-1.578125 0 -2.75 1.25l-0.65625 -0.984375q1.4375 -1.484375 3.59375 -1.484375q1.671875 0 2.578125 0.8125q0.921875 0.796875 0.921875 2.234375l0 6.1875l-1.40625 0zm-2.484375 -0.78125q1.671875 0 2.484375 -1.125l0 -1.6875q-0.8125 -1.125 -2.484375 -1.125q-0.984375 0 -1.609375 0.546875q-0.609375 0.546875 -0.609375 1.421875q0 0.859375 0.609375 1.421875q0.625 0.546875 1.609375 0.546875zm7.378723 -9.515625q-0.375 0 -0.65625 -0.265625q-0.28125 -0.28125 -0.28125 -0.671875q0 -0.390625 0.28125 -0.671875q0.28125 -0.28125 0.65625 -0.28125q0.390625 0 0.671875 0.28125q0.28125 0.28125 0.28125 0.671875q0 0.390625 -0.28125 0.671875q-0.28125 0.265625 -0.671875 0.265625zm-0.6875 10.296875l0 -9.015625l1.390625 0l0 9.015625l-1.390625 0zm10.275787 0l0 -5.890625q0 -1.203125 -0.5625 -1.640625q-0.546875 -0.453125 -1.453125 -0.453125q-0.78125 0 -1.546875 0.421875q-0.75 0.421875 -1.125 0.984375l0 6.578125l-1.390625 0l0 -9.015625l1.390625 0l0 1.3125q0.578125 -0.671875 1.421875 -1.09375q0.859375 -0.4375 1.78125 -0.4375q2.875 0 2.875 2.90625l0 6.328125l-1.390625 0z" fill-rule="nonzero"/><path fill="#000000" fill-opacity="0.0" d="m641.5171 138.4903l113.79523 0l0 50.64566l-113.79523 0z" fill-rule="evenodd"/><path fill="#ffffff" d="m670.9879 165.4103l0 -12.4375l4.25 0q2.84375 0 4.609375 1.765625q1.78125 1.75 1.78125 4.453125q0 2.734375 -1.78125 4.484375q-1.78125 1.734375 -4.609375 1.734375l-4.25 0zm4.25 -1.375q2.125 0 3.453125 -1.328125q1.328125 -1.34375 1.328125 -3.515625q0 -2.15625 -1.3125 -3.5q-1.296875 -1.34375 -3.46875 -1.34375l-2.703125 0l0 9.6875l2.703125 0zm12.825012 1.59375q-2.03125 0 -3.3125 -1.3125q-1.28125 -1.328125 -1.28125 -3.421875q0 -2.0 1.265625 -3.359375q1.28125 -1.359375 3.171875 -1.359375q1.9375 0 3.125 1.34375q1.203125 1.34375 1.203125 3.484375l0 0.359375l-7.296875 0q0.078125 1.375 1.0 2.25q0.921875 0.859375 2.25 0.859375q1.640625 0 2.78125 -1.140625l0.671875 0.921875q-1.375 1.375 -3.578125 1.375zm2.796875 -5.296875q0 -1.25 -0.828125 -2.125q-0.8125 -0.875 -2.140625 -0.875q-1.25 0 -2.078125 0.875q-0.828125 0.875 -0.875 2.125l5.921875 0zm3.644104 5.078125l0 -12.4375l1.390625 0l0 12.4375l-1.390625 0zm4.885132 -10.296875q-0.375 0 -0.65625 -0.265625q-0.28125 -0.28125 -0.28125 -0.671875q0 -0.390625 0.28125 -0.671875q0.28125 -0.28125 0.65625 -0.28125q0.390625 0 0.671875 0.28125q0.28125 0.28125 0.28125 0.671875q0 0.390625 -0.28125 0.671875q-0.28125 0.265625 -0.671875 0.265625zm-0.6875 10.296875l0 -9.015625l1.390625 0l0 9.015625l-1.390625 0zm6.603943 0l-3.75 -9.015625l1.5 0l3.015625 7.390625l2.984375 -7.390625l1.515625 0l-3.75 9.015625l-1.515625 0zm10.797791 0.21875q-2.03125 0 -3.3125 -1.3125q-1.28125 -1.328125 -1.28125 -3.421875q0 -2.0 1.265625 -3.359375q1.28125 -1.359375 3.171875 -1.359375q1.9375 0 3.125 1.34375q1.203125 1.34375 1.203125 3.484375l0 0.359375l-7.296875 0q0.078125 1.375 1.0 2.25q0.921875 0.859375 2.25 0.859375q1.640625 0 2.78125 -1.140625l0.671875 0.921875q-1.375 1.375 -3.578125 1.375zm2.796875 -5.296875q0 -1.25 -0.828125 -2.125q-0.8125 -0.875 -2.140625 -0.875q-1.25 0 -2.078125 0.875q-0.828125 0.875 -0.875 2.125l5.921875 0zm3.644104 5.078125l0 -9.015625l1.390625 0l0 1.453125q1.25 -1.640625 3.0 -1.640625l0 1.4375l-0.546875 -0.046875q-0.640625 0 -1.40625 0.453125q-0.765625 0.453125 -1.046875 0.984375l0 6.375l-1.390625 0z" fill-rule="nonzero"/><path fill="#5f7d95" d="m716.4755 113.881195c0.35247803 0.09081268 0.59521484 0.24880981 0.90234375 0.515892c0.17224121 0.4202881 0.25769043 0.8182297 0.08013916 1.1484222c-1.0600586 3.0148163 -2.4923706 5.656273 -4.5164185 8.046837l-5.78302 -9.667648c2.9646606 -0.55205536 6.165161 -0.5719528 9.316956 -0.043502808zm-24.074585 4.79583l0 0c-1.0228882 1.0522537 -2.1584473 2.170967 -3.050476 3.444893c-0.4901123 -0.15906525 -0.9859009 -0.30766296 -1.4810791 -0.43523407c-0.99328613 -0.25585938 -1.9927368 -0.42977905 -2.9933472 -0.43692017c0.26708984 -0.3071289 0.7103882 -0.5688553 0.9320679 -0.69971466c2.104187 -1.2421417 4.251892 -1.9121552 6.5928345 -1.873024zm12.392334 -4.3263245l6.4786377 10.974617c-4.6257935 4.8232574 -10.91687 7.7138367 -17.739624 7.9314117l-4.2099 -7.0068283c3.461731 -5.7824936 9.054321 -9.980774 15.470886 -11.8992zm-17.358154 13.388161l3.9258423 6.650223l-1.8459473 1.687561l-4.515747 -7.6495056l2.435852 -0.6882782zm-2.8395386 4.814987l1.1364746 1.7964478c-0.53289795 0.23866272 -1.2644043 0.51864624 -1.9707642 0.7126312c-1.0175171 0.30177307 -1.8134155 0.4726715 -2.102295 0.4937439c0.29016113 -0.39666748 0.6921387 -0.8569946 1.447998 -1.6021271c0.62091064 -0.5919037 1.1096802 -1.029892 1.4885864 -1.4006958zm16.942566 1.7298889l0 0c-1.2518921 2.3119812 -3.2523193 4.240219 -5.798584 5.3684845c0.7381592 -1.4060669 1.1013794 -2.816208 1.2883911 -4.271744c1.6337891 -0.14601135 3.1611938 -0.59690857 4.510193 -1.0967407zm15.7578125 -22.742134c-0.09790039 -0.025230408 -0.19378662 -0.046936035 -0.29455566 -0.06096649c-2.9776 -0.48656464 -5.8676147 -0.5716629 -8.895935 -0.13148499c-2.807373 0.31212616 -5.683777 1.2628479 -8.429321 2.4352417c-1.5958862 0.7166977 -3.234314 1.6103821 -4.6328125 2.661354c-3.4840088 -0.70951843 -7.2417603 0.014175415 -10.367554 1.9329681c-1.5293579 0.8292923 -2.8858643 2.0760803 -4.063965 3.3717804c-0.3796997 0.37360382 -0.3395996 0.9478073 -0.16461182 1.3688126c0.19525146 0.33075714 0.52471924 0.51110077 0.70098877 0.5565033c0.26574707 0.068473816 0.35253906 0.09081268 0.55181885 0.046691895c1.7939453 -0.38523102 3.6894531 -0.2848053 5.449341 0.16854095c0.1930542 0.049728394 0.38537598 0.102256775 0.5755615 0.16317749c-0.19989014 0.41693115 -0.38024902 0.7463989 -0.5808716 1.1661301l-4.3583374 1.2253494c-0.73223877 0.2827835 -1.135498 1.118721 -0.6303711 1.7172775l1.1777954 1.9950562c-0.7104492 0.5688629 -1.5788574 1.3804474 -2.444519 2.192749c-0.69140625 0.8542023 -1.3123169 1.4461212 -1.6248169 1.9295197c-0.64801025 1.0563202 -0.7652588 1.8704681 -0.2831421 2.5585632c0.27001953 0.45741272 0.69506836 0.6952057 1.1875 0.822052c0.34417725 0.088653564 0.72021484 0.12286377 1.0999146 0.14309692c0.77282715 -0.08137512 1.4819336 -0.2746277 2.4995117 -0.57640076c1.1071167 -0.27870178 2.147705 -0.6700134 3.0980835 -1.0815735l1.2449341 2.1048584c0.1716919 0.29484558 0.44781494 0.48532104 0.74157715 0.56100464c0.37493896 0.096572876 0.7819824 0.010482788 1.0665283 -0.28320312l3.1777954 -3.2211456c0.46514893 0.024337769 0.84002686 0.028427124 1.3275146 -0.033966064l0 0c-0.38970947 1.8717499 -1.2647705 3.8094177 -2.6224976 5.431793c-0.29016113 0.39666748 -0.33966064 0.94781494 -0.077941895 1.391159c0.11578369 0.28042603 0.4212036 0.48443604 0.7541504 0.5701904c0.1651001 0.042526245 0.34088135 0.054992676 0.5015259 0.033721924c1.7036743 -0.40548706 3.3638916 -1.0131226 4.9155884 -1.9291382c3.2125244 -1.8964539 5.5526123 -4.7724915 6.7041626 -8.142639c1.6154175 -0.8041687 3.1447754 -1.6334534 4.5879517 -2.857895c2.4432373 -1.8171539 4.5527344 -3.8097763 6.269104 -6.0946198c1.8282471 -2.3485107 3.196106 -5.099045 4.185608 -7.8515778c0.42437744 -0.54707336 0.43103027 -1.6731491 -0.17913818 -2.5821838c-0.5317993 -0.9007721 -1.2963867 -1.476654 -2.166565 -1.700798z" fill-rule="evenodd"/><path fill="#5f7d95" d="m702.3276 121.374344c0.61553955 0.1585617 1.1769409 0.5388794 1.5023193 1.094101c0.63201904 1.1951065 0.2687378 2.6052475 -0.83966064 3.2595596c-0.5531006 0.32891083 -1.2283936 0.39066315 -1.8439331 0.23210144c-0.61834717 -0.1592865 -1.1769409 -0.5388794 -1.505127 -1.0948257c-0.6542969 -1.1083679 -0.2687378 -2.6052475 0.83966064 -3.259552c0.55596924 -0.32819366 1.2283936 -0.39066315 1.8467407 -0.23138428zm0.57366943 -2.3196259c-1.1694946 -0.30126953 -2.4782715 -0.14312744 -3.6848755 0.53359985c-2.2195435 1.3078918 -2.991455 4.3044434 -1.6800537 6.521904c0.6542969 1.1083755 1.7295532 1.8567505 2.9186401 2.163063c1.1918945 0.30703735 2.494873 0.1712799 3.6032715 -0.4830246c2.2167358 -1.3086166 2.9886475 -4.305168 1.6800537 -6.5219116c-0.64282227 -1.1531372 -1.6702881 -1.9130859 -2.8370361 -2.2136307z" fill-rule="evenodd"/><path fill="#5f7d95" d="m707.5596 422.9421l-8.137512 3.9294434l0 8.047516l8.137512 -4.1151733l0 -7.861786z" fill-rule="evenodd"/><path fill="#5f7d95" d="m697.31805 438.1172l-6.0334473 3.1110535l0 10.604279l6.0334473 -3.473816l0 -10.241516z" fill-rule="evenodd"/><path fill="#5f7d95" d="m689.27344 422.9421l0 7.861786l8.044617 4.1151733l0 -8.047516l-8.044617 -3.9294434z" fill-rule="evenodd"/><path fill="#5f7d95" d="m687.9907 432.3594l-5.940613 3.0152893l8.227478 4.1151733l5.850586 -3.0181885l-8.137451 -4.112274z" fill-rule="evenodd"/><path fill="#5f7d95" d="m699.42206 438.1172l0 10.241516l6.0335083 3.473816l0 -10.604279l-6.0335083 -3.1110535z" fill-rule="evenodd"/><path fill="#5f7d95" d="m708.7465 432.3594l-8.044617 4.112274l5.7577515 3.0181885l8.3203125 -4.1151733l-6.0334473 -3.0152893z" fill-rule="evenodd"/><path fill="#5f7d95" d="m681.0431 437.11307l0 9.600128c0 0.27279663 0.1828003 0.63845825 0.5484619 0.91415405l7.5889893 4.2051697l0 -10.604279l-8.137451 -4.1151733z" fill-rule="evenodd"/><path fill="#5f7d95" d="m715.787 437.11307l-8.137451 4.1151733l0 10.604279l7.4960938 -4.2051697c0.36566162 -0.2756958 0.6413574 -0.6413574 0.6413574 -0.91415405l0 -9.600128z" fill-rule="evenodd"/><path fill="#5f7d95" d="m698.38025 417.1118c-0.14801025 0 -0.28442383 0.023223877 -0.4208374 0.06964111l-7.6818237 3.9294434l8.137451 4.1151733l8.137512 -4.1151733l-7.678955 -3.9294434c-0.18286133 -0.046417236 -0.34539795 -0.06964111 -0.49334717 -0.06964111z" fill-rule="evenodd"/><path fill="#000000" fill-opacity="0.0" d="m641.5171 447.52756l113.79523 0l0 50.64566l-113.79523 0z" fill-rule="evenodd"/><path fill="#ffffff" d="m661.02075 474.66632q-2.734375 0 -4.5625 -1.796875q-1.828125 -1.8125 -1.828125 -4.640625q0 -2.8125 1.828125 -4.625q1.828125 -1.8125 4.5625 -1.8125q2.96875 0 4.734375 2.46875l-1.3125 0.734375q-0.546875 -0.796875 -1.453125 -1.296875q-0.90625 -0.515625 -1.96875 -0.515625q-2.0625 0 -3.421875 1.4375q-1.359375 1.4375 -1.359375 3.609375q0 2.203125 1.34375 3.640625q1.359375 1.421875 3.4375 1.421875q1.0625 0 1.96875 -0.5q0.90625 -0.515625 1.453125 -1.3125l1.328125 0.734375q-1.8125 2.453125 -4.75 2.453125zm12.299133 -0.21875l0 -1.03125q-1.140625 1.25 -2.984375 1.25q-1.359375 0 -2.265625 -0.859375q-0.890625 -0.859375 -0.890625 -2.125q0 -1.296875 0.890625 -2.125q0.890625 -0.84375 2.265625 -0.84375q1.9375 0 2.984375 1.234375l0 -1.625q0 -0.90625 -0.640625 -1.390625q-0.640625 -0.5 -1.640625 -0.5q-1.578125 0 -2.75 1.25l-0.65625 -0.984375q1.4375 -1.484375 3.59375 -1.484375q1.671875 0 2.578125 0.8125q0.921875 0.796875 0.921875 2.234375l0 6.1875l-1.40625 0zm-2.484375 -0.78125q1.671875 0 2.484375 -1.125l0 -1.6875q-0.8125 -1.125 -2.484375 -1.125q-0.984375 0 -1.609375 0.546875q-0.609375 0.546875 -0.609375 1.421875q0 0.859375 0.609375 1.421875q0.625 0.546875 1.609375 0.546875zm8.956848 1.0q-2.0 0 -2.0 -2.109375l0 -5.890625l-1.484375 0l0 -1.234375l1.484375 0l0 -2.453125l1.40625 0l0 2.453125l1.828125 0l0 1.234375l-1.828125 0l0 5.59375q0 0.515625 0.21875 0.84375q0.234375 0.3125 0.703125 0.3125q0.578125 0 0.9375 -0.375l0.421875 1.046875q-0.578125 0.578125 -1.6875 0.578125zm7.2817993 0q-2.03125 0 -3.3125 -1.3125q-1.28125 -1.328125 -1.28125 -3.421875q0 -2.0 1.265625 -3.359375q1.28125 -1.359375 3.171875 -1.359375q1.9375 0 3.125 1.34375q1.203125 1.34375 1.203125 3.484375l0 0.359375l-7.296875 0q0.078125 1.375 1.0 2.25q0.921875 0.859375 2.25 0.859375q1.640625 0 2.78125 -1.140625l0.671875 0.921875q-1.375 1.375 -3.578125 1.375zm2.796875 -5.296875q0 -1.25 -0.828125 -2.125q-0.8125 -0.875 -2.140625 -0.875q-1.25 0 -2.078125 0.875q-0.828125 0.875 -0.875 2.125l5.921875 0zm7.253479 8.734375q-1.15625 0 -2.0 -0.28125q-0.828125 -0.28125 -1.640625 -1.0625l0.71875 -1.046875q0.5625 0.671875 1.25 0.953125q0.703125 0.28125 1.671875 0.28125q1.390625 0 2.140625 -0.71875q0.75 -0.71875 0.75 -1.984375l0 -1.296875q-0.484375 0.703125 -1.28125 1.15625q-0.78125 0.453125 -1.734375 0.453125q-1.828125 0 -2.921875 -1.28125q-1.09375 -1.296875 -1.09375 -3.375q0 -2.171875 1.109375 -3.421875q1.109375 -1.265625 2.90625 -1.265625q1.859375 0 3.015625 1.578125l0 -1.359375l1.40625 0l0 8.75q0 1.90625 -1.125 2.90625q-1.109375 1.015625 -3.171875 1.015625zm0.203125 -4.78125q0.765625 0 1.515625 -0.40625q0.765625 -0.40625 1.171875 -1.0625l0 -3.9375q-0.40625 -0.65625 -1.171875 -1.046875q-0.765625 -0.40625 -1.515625 -0.40625q-1.3125 0 -2.109375 0.953125q-0.78125 0.953125 -0.78125 2.484375q0 1.546875 0.796875 2.484375q0.8125 0.9375 2.09375 0.9375zm10.818054 1.34375q-1.953125 0 -3.203125 -1.328125q-1.25 -1.328125 -1.25 -3.40625q0 -2.09375 1.25 -3.40625q1.25 -1.3125 3.203125 -1.3125q1.96875 0 3.21875 1.3125q1.25 1.3125 1.25 3.40625q0 2.078125 -1.25 3.40625q-1.25 1.328125 -3.21875 1.328125zm0 -1.25q1.3125 0 2.15625 -0.96875q0.84375 -0.984375 0.84375 -2.515625q0 -1.515625 -0.84375 -2.484375q-0.84375 -0.984375 -2.15625 -0.984375q-1.296875 0 -2.15625 0.96875q-0.84375 0.96875 -0.84375 2.5q0 1.546875 0.84375 2.515625q0.84375 0.96875 2.15625 0.96875zm6.7495117 1.03125l0 -9.015625l1.390625 0l0 1.453125q1.25 -1.640625 3.0 -1.640625l0 1.4375l-0.546875 -0.046875q-0.640625 0 -1.40625 0.453125q-0.765625 0.453125 -1.046875 0.984375l0 6.375l-1.390625 0zm6.844055 -10.296875q-0.375 0 -0.65625 -0.265625q-0.28125 -0.28125 -0.28125 -0.671875q0 -0.390625 0.28125 -0.671875q0.28125 -0.28125 0.65625 -0.28125q0.390625 0 0.671875 0.28125q0.28125 0.28125 0.28125 0.671875q0 0.390625 -0.28125 0.671875q-0.28125 0.265625 -0.671875 0.265625zm-0.6875 10.296875l0 -9.015625l1.390625 0l0 9.015625l-1.390625 0zm3.7601929 0l0 -1.078125l4.96875 -6.703125l-4.96875 0l0 -1.234375l6.796875 0l0 1.0625l-5.0 6.734375l5.0625 0l0 1.21875l-6.859375 0zm13.305725 0.21875q-2.03125 0 -3.3125 -1.3125q-1.28125 -1.328125 -1.28125 -3.421875q0 -2.0 1.265625 -3.359375q1.28125 -1.359375 3.171875 -1.359375q1.9375 0 3.125 1.34375q1.203125 1.34375 1.203125 3.484375l0 0.359375l-7.296875 0q0.078125 1.375 1.0 2.25q0.921875 0.859375 2.25 0.859375q1.640625 0 2.78125 -1.140625l0.671875 0.921875q-1.375 1.375 -3.578125 1.375zm2.796875 -5.296875q0 -1.25 -0.828125 -2.125q-0.8125 -0.875 -2.140625 -0.875q-1.25 0 -2.078125 0.875q-0.828125 0.875 -0.875 2.125l5.921875 0z" fill-rule="nonzero"/><path fill="#5f7d95" d="m256.93826 417.0263c-0.18283081 0 -0.34243774 0.046447754 -0.43240356 0.13641357l-16.367859 10.331482c-0.36566162 0.18283081 -0.45562744 0.4585266 -0.45562744 0.91415405c0 0.2756958 0.18283081 0.6413574 0.45562744 0.91415405l16.185028 10.15155c0.18283081 0.08996582 0.36566162 0.08996582 0.63845825 0.08996582c0.18283081 0 0.2756958 0 0.54849243 -0.08996582l16.367828 -10.15155c0.27279663 -0.27279663 0.45562744 -0.45562744 0.45562744 -0.91415405c0 -0.36566162 -0.27279663 -0.73132324 -0.45562744 -0.91415405l-16.367828 -10.331482c-0.18283081 -0.08996582 -0.3888855 -0.13641357 -0.5717163 -0.13641357z" fill-rule="evenodd"/><path fill="#5f7d95" d="m241.60066 438.8327l-1.5526276 1.007019c-0.36566162 0.18283081 -0.4585266 0.45562744 -0.4585266 0.91415405c0 0.36566162 0.18283081 0.63845825 0.4585266 0.9141846l16.36496 10.238586c0.09286499 0.18283081 0.2756958 0.18283081 0.54849243 0.18283081c0.18283081 0 0.36566162 0 0.54849243 -0.18283081l16.367828 -10.238586c0.36566162 -0.27572632 0.45562744 -0.45855713 0.45562744 -0.9141846c0 -0.36566162 -0.27279663 -0.73132324 -0.45562744 -0.91415405l-1.6454773 -1.007019l-14.722351 9.141602c-0.08996582 0.09286499 -0.36566162 0.09286499 -0.54849243 0.09286499c-0.27279663 0 -0.36566162 0 -0.54849243 -0.09286499l-14.812332 -9.141602z" fill-rule="evenodd"/><path fill="#5f7d95" d="m241.60066 432.70636l-1.5526276 1.0969849c-0.36566162 0.18283081 -0.4585266 0.45855713 -0.4585266 0.9141846c0 0.4585266 0.18283081 0.6413574 0.4585266 0.91415405l16.36496 10.148651c0.09286499 0.09286499 0.2756958 0.09286499 0.54849243 0.09286499c0.18283081 0 0.36566162 0 0.54849243 -0.09286499l16.367828 -10.148651c0.36566162 -0.27279663 0.45562744 -0.45562744 0.45562744 -0.91415405c0 -0.45562744 -0.27279663 -0.73135376 -0.45562744 -0.9141846l-1.6454773 -1.0969849l-14.722351 9.327362c-0.08996582 0.08996582 -0.36566162 0.08996582 -0.54849243 0.08996582c-0.27279663 0 -0.36566162 0 -0.54849243 -0.08996582l-14.812332 -9.327362z" fill-rule="evenodd"/><path fill="#000000" fill-opacity="0.0" d="m207.4357 447.61417l99.055115 0l0 50.64569l-99.055115 0z" fill-rule="evenodd"/><path fill="#ffffff" d="m226.76382 474.53418l-1.09375 -2.765625l-6.1875 0l-1.109375 2.765625l-1.765625 0l5.0 -12.4375l1.921875 0l5.015625 12.4375l-1.78125 0zm-4.1875 -10.84375l-2.65625 6.703125l5.28125 0l-2.625 -6.703125zm13.395569 10.84375l0 -1.265625q-0.53125 0.59375 -1.375 1.046875q-0.828125 0.4375 -1.84375 0.4375q-2.859375 0 -2.859375 -2.875l0 -6.359375l1.390625 0l0 5.9375q0 1.0625 0.484375 1.5625q0.484375 0.484375 1.53125 0.484375q0.828125 0 1.546875 -0.40625q0.734375 -0.40625 1.125 -0.953125l0 -6.625l1.390625 0l0 9.015625l-1.390625 0zm7.810852 3.65625q-1.15625 0 -2.0 -0.28125q-0.828125 -0.28125 -1.640625 -1.0625l0.71875 -1.046875q0.5625 0.671875 1.25 0.953125q0.703125 0.28125 1.671875 0.28125q1.390625 0 2.140625 -0.71875q0.75 -0.71875 0.75 -1.984375l0 -1.296875q-0.484375 0.703125 -1.28125 1.15625q-0.78125 0.453125 -1.734375 0.453125q-1.828125 0 -2.921875 -1.28125q-1.09375 -1.296875 -1.09375 -3.375q0 -2.171875 1.109375 -3.421875q1.109375 -1.265625 2.90625 -1.265625q1.859375 0 3.015625 1.578125l0 -1.359375l1.40625 0l0 8.75q0 1.90625 -1.125 2.90625q-1.109375 1.015625 -3.171875 1.015625zm0.203125 -4.78125q0.765625 0 1.515625 -0.40625q0.765625 -0.40625 1.171875 -1.0625l0 -3.9375q-0.40625 -0.65625 -1.171875 -1.046875q-0.765625 -0.40625 -1.515625 -0.40625q-1.3125 0 -2.109375 0.953125q-0.78125 0.953125 -0.78125 2.484375q0 1.546875 0.796875 2.484375q0.8125 0.9375 2.09375 0.9375zm17.77118 1.125l0 -6.125q0 -1.859375 -1.671875 -1.859375q-0.703125 0 -1.375 0.421875q-0.65625 0.421875 -1.0 0.953125l0 6.609375l-1.40625 0l0 -6.125q0 -1.859375 -1.6562347 -1.859375q-0.6875 0 -1.34375 0.4375q-0.65625 0.421875 -1.03125 0.96875l0 6.578125l-1.390625 0l0 -9.015625l1.390625 0l0 1.3125q0.3125 -0.546875 1.1875 -1.03125q0.890625 -0.5 1.71875 -0.5q1.0468597 0 1.6249847 0.484375q0.59375 0.484375 0.8125 1.1875q0.453125 -0.71875 1.3125 -1.1875q0.859375 -0.484375 1.703125 -0.484375q2.515625 0 2.515625 2.71875l0 6.515625l-1.390625 0zm8.261749 0.21875q-2.03125 0 -3.3125 -1.3125q-1.28125 -1.328125 -1.28125 -3.421875q0 -2.0 1.265625 -3.359375q1.28125 -1.359375 3.171875 -1.359375q1.9375 0 3.125 1.34375q1.203125 1.34375 1.203125 3.484375l0 0.359375l-7.296875 0q0.078125 1.375 1.0 2.25q0.921875 0.859375 2.25 0.859375q1.640625 0 2.78125 -1.140625l0.671875 0.921875q-1.375 1.375 -3.578125 1.375zm2.796875 -5.296875q0 -1.25 -0.828125 -2.125q-0.8125 -0.875 -2.140625 -0.875q-1.25 0 -2.078125 0.875q-0.828125 0.875 -0.875 2.125l5.921875 0zm9.722229 5.078125l0 -5.890625q0 -1.203125 -0.5625 -1.640625q-0.546875 -0.453125 -1.453125 -0.453125q-0.78125 0 -1.546875 0.421875q-0.75 0.421875 -1.125 0.984375l0 6.578125l-1.390625 0l0 -9.015625l1.390625 0l0 1.3125q0.578125 -0.671875 1.421875 -1.09375q0.859375 -0.4375 1.78125 -0.4375q2.875 0 2.875 2.90625l0 6.328125l-1.390625 0zm6.467102 0.21875q-2.0 0 -2.0 -2.109375l0 -5.890625l-1.484375 0l0 -1.234375l1.484375 0l0 -2.453125l1.40625 0l0 2.453125l1.828125 0l0 1.234375l-1.828125 0l0 5.59375q0 0.515625 0.21875 0.84375q0.234375 0.3125 0.703125 0.3125q0.578125 0 0.9375 -0.375l0.421875 1.046875q-0.578125 0.578125 -1.6875 0.578125z" fill-rule="nonzero"/><path fill="#000000" fill-opacity="0.0" d="m202.08923 138.49081l113.79529 0l0 50.645676l-113.79529 0z" fill-rule="evenodd"/><path fill="#ffffff" d="m237.87984 165.62956q-2.734375 0 -4.5625 -1.796875q-1.828125 -1.8125 -1.828125 -4.640625q0 -2.8125 1.828125 -4.625q1.828125 -1.8125 4.5625 -1.8125q2.96875 0 4.734375 2.46875l-1.3125 0.734375q-0.546875 -0.796875 -1.453125 -1.296875q-0.90625 -0.515625 -1.96875 -0.515625q-2.0625 0 -3.421875 1.4375q-1.359375 1.4375 -1.359375 3.609375q0 2.203125 1.34375 3.640625q1.359375 1.421875 3.4375 1.421875q1.0625 0 1.96875 -0.5q0.90625 -0.515625 1.453125 -1.3125l1.328125 0.734375q-1.8125 2.453125 -4.75 2.453125zm10.596008 0q-1.953125 0 -3.203125 -1.328125q-1.25 -1.328125 -1.25 -3.40625q0 -2.09375 1.25 -3.40625q1.25 -1.3125 3.203125 -1.3125q1.96875 0 3.21875 1.3125q1.25 1.3125 1.25 3.40625q0 2.078125 -1.25 3.40625q-1.25 1.328125 -3.21875 1.328125zm0 -1.25q1.3125 0 2.15625 -0.96875q0.84375 -0.984375 0.84375 -2.515625q0 -1.515625 -0.84375 -2.484375q-0.84375 -0.984375 -2.15625 -0.984375q-1.296875 0 -2.15625 0.96875q-0.84375 0.96875 -0.84375 2.5q0 1.546875 0.84375 2.515625q0.84375 0.96875 2.15625 0.96875zm6.7494965 1.03125l0 -12.4375l1.390625 0l0 12.4375l-1.390625 0zm4.1976624 0l0 -12.4375l1.390625 0l0 12.4375l-1.390625 0zm8.260162 0.21875q-2.03125 0 -3.3125 -1.3125q-1.28125 -1.328125 -1.28125 -3.421875q0 -2.0 1.265625 -3.359375q1.28125 -1.359375 3.171875 -1.359375q1.9375 0 3.125 1.34375q1.203125 1.34375 1.203125 3.484375l0 0.359375l-7.296875 0q0.078125 1.375 1.0 2.25q0.921875 0.859375 2.25 0.859375q1.640625 0 2.78125 -1.140625l0.671875 0.921875q-1.375 1.375 -3.578125 1.375zm2.796875 -5.296875q0 -1.25 -0.828125 -2.125q-0.8125 -0.875 -2.140625 -0.875q-1.25 0 -2.078125 0.875q-0.828125 0.875 -0.875 2.125l5.921875 0zm7.6128235 5.296875q-1.984375 0 -3.25 -1.34375q-1.25 -1.34375 -1.25 -3.390625q0 -2.03125 1.25 -3.375q1.265625 -1.34375 3.25 -1.34375q2.09375 0 3.296875 1.5625l-0.921875 0.859375q-0.859375 -1.171875 -2.296875 -1.171875q-1.390625 0 -2.265625 0.96875q-0.859375 0.953125 -0.859375 2.5q0 1.5625 0.859375 2.53125q0.859375 0.953125 2.265625 0.953125q1.40625 0 2.296875 -1.171875l0.921875 0.859375q-1.203125 1.5625 -3.296875 1.5625zm7.5317383 0q-2.0 0 -2.0 -2.109375l0 -5.890625l-1.484375 0l0 -1.234375l1.484375 0l0 -2.453125l1.40625 0l0 2.453125l1.828125 0l0 1.234375l-1.828125 0l0 5.59375q0 0.515625 0.21875 0.84375q0.234375 0.3125 0.703125 0.3125q0.578125 0 0.9375 -0.375l0.421875 1.046875q-0.578125 0.578125 -1.6875 0.578125z" fill-rule="nonzero"/><path fill="#5f7d95" d="m241.5713 119.94998l0 15.085114l4.112274 -2.0111542l0 -10.96994l-4.112274 -2.1040192z" fill-rule="evenodd"/><path fill="#5f7d95" d="m259.03323 124.430824c-1.7383423 0 -3.108139 1.3697891 -3.108139 3.1081467c0 1.6454926 1.3697968 3.0181885 3.108139 3.0181885c1.7383728 0 3.1081543 -1.3726959 3.1081543 -3.0181885c0 -1.7383575 -1.4626465 -3.1081467 -3.1081543 -3.1081467z" fill-rule="evenodd"/><path fill="#5f7d95" d="m276.4052 119.94998l-4.1151733 2.1040192l0 10.96994l4.1151733 2.0111542l0 -15.085114z" fill-rule="evenodd"/><path fill="#5f7d95" d="m259.03323 118.394455c5.029358 0 9.141632 4.1151733 9.141632 9.144516c0 5.0293427 -4.112274 9.141617 -9.141632 9.141617c-5.0293274 0 -9.144516 -4.112274 -9.144516 -9.141617c0 -5.0293427 4.1151886 -9.144516 9.144516 -9.144516zm-12.342621 -6.216301c-0.54849243 0 -1.0070343 0.45853424 -1.0070343 1.0969925l0 1.0070343l-1.0041199 0c-1.7383575 0 -3.1081543 1.3697891 -3.1081543 3.1081467l0 0.27279663l5.574936 2.742485c0.36566162 0.2756958 0.6413574 0.64136505 0.6413574 0.91706085l0 12.2497635c0 0.36566162 -0.2756958 0.73132324 -0.6413574 0.9141693l-5.574936 2.7424774l0 0.36566162c0 1.7383575 1.3697968 3.1110535 3.1081543 3.1110535l28.707565 0c1.6455078 0 3.0181885 -1.3726959 3.0181885 -3.1110535l0 -0.36566162l-5.5778503 -2.7424774c-0.36566162 -0.18284607 -0.54849243 -0.5485077 -0.54849243 -0.9141693l0 -12.2497635c0 -0.2756958 0.18283081 -0.64136505 0.54849243 -0.91706085l5.5778503 -2.742485l0 -0.27279663c0 -1.7383575 -1.3726807 -3.1081467 -3.1081543 -3.1081467l-25.50946 0l0 -1.0070343c0 -0.63845825 -0.4585266 -1.0969925 -1.0969849 -1.0969925z" fill-rule="evenodd"/><path fill="#5f7d95" d="m259.03323 122.23683c2.8353577 0 5.1193237 2.2839508 5.1193237 5.2092743c-0.08996582 2.8353424 -2.376831 5.1222076 -5.1193237 5.1222076c-2.8353577 0 -5.119293 -2.2868652 -5.119293 -5.1222076c0 -2.9253235 2.2839355 -5.2092743 5.119293 -5.2092743zm0 -1.9211884c-3.8394775 0 -7.0404816 3.2010193 -7.0404816 7.1304626c0 3.8423767 3.201004 7.040497 7.0404816 7.040497c3.9323425 0 7.1304626 -3.19812 7.1304626 -7.040497c0 -3.9294434 -3.19812 -7.1304626 -7.1304626 -7.1304626z" fill-rule="evenodd"/><path fill="#5f7d95" d="m254.91806 110.167c-0.36566162 0 -0.63845825 0.18283081 -0.91415405 0.54850006l-0.6384735 1.4626541l11.428482 0l-0.82418823 -1.4626541c-0.18286133 -0.36566925 -0.54852295 -0.54850006 -0.9141846 -0.54850006z" fill-rule="evenodd"/><path fill="#5f7d95" d="m490.24207 114.23638c0.54852295 0 1.0041504 0.45563507 1.0041504 1.0041275l0 20.390152c0 0.54849243 -0.45562744 1.0041351 -1.0041504 1.0041351l-20.30017 0c-0.63845825 0 -1.0041199 -0.4556427 -1.0041199 -1.0041351l0 -20.390152c0 -0.54849243 0.36566162 -1.0041275 1.0041199 -1.0041275zm-18.468964 -6.3091583c-0.54849243 0 -1.007019 0.45562744 -1.007019 1.0041199l0 3.1110535l-1.0969849 0c-1.6455078 0 -3.0181885 1.3697891 -3.0181885 3.1081467l0 1.0041275l-3.1081543 0c-0.54849243 0 -1.0041199 0.45853424 -1.0041199 1.0070267c0 0.54850006 0.45562744 1.0041275 1.0041199 1.0041275l3.1081543 0l0 2.1040268l-3.1081543 0c-0.54849243 0 -1.0041199 0.4585266 -1.0041199 1.0070267c0 0.63845825 0.45562744 1.0969925 1.0041199 1.0969925l3.1081543 0l0 2.0111542l-3.1081543 0c-0.54849243 0 -1.0041199 0.45563507 -1.0041199 1.0041275c0 0.64136505 0.45562744 1.0969925 1.0041199 1.0969925l3.1081543 0l0 2.0140533l-3.1081543 0c-0.54849243 0 -1.0041199 0.4556427 -1.0041199 1.0041351c0 0.6413574 0.45562744 1.0969849 1.0041199 1.0969849l3.1081543 0l0 2.0111542l-3.1081543 0c-0.54849243 0 -1.0041199 0.45854187 -1.0041199 1.0070343c0 0.63845825 0.45562744 1.0970001 1.0041199 1.0970001l3.1081543 0l0 1.0041199c0 1.7383575 1.3726807 3.1110535 3.0181885 3.1110535l1.0969849 0l0 3.015274c0 0.6413727 0.4585266 1.0970001 1.007019 1.0970001c0.54852295 0 1.0041504 -0.45562744 1.0041504 -1.0970001l0 -3.2909698l2.104004 0l0 3.108139c0 0.5485077 0.45562744 1.0070343 1.0041199 1.0070343c0.54852295 0 1.0070496 -0.4585266 1.0070496 -1.0070343l0 -3.108139l2.1011047 0l0 3.108139c0 0.5485077 0.4585266 1.0070343 1.0070496 1.0070343c0.54849243 0 1.007019 -0.4585266 1.007019 -1.0070343l0 -3.108139l2.1011047 0l0 3.108139c0 0.5485077 0.45855713 1.0070343 1.0070496 1.0070343c0.54849243 0 1.0041199 -0.4585266 1.0041199 -1.0070343l0 -3.108139l2.1040344 0l0 3.108139c0 0.5485077 0.45562744 1.0070343 1.0041199 1.0070343c0.54849243 0 1.007019 -0.4585266 1.007019 -1.0070343l0 -3.108139l1.007019 0c1.7354736 0 3.1081543 -1.3726959 3.1081543 -3.1081543l0 -1.0070343l3.1081543 0c0.54849243 0 1.0041199 -0.45562744 1.0041199 -1.0041199c0 -0.54849243 -0.45562744 -1.0070343 -1.0041199 -1.0070343l-3.1081543 0l0 -2.10112l3.1081543 0c0.54849243 0 1.0041199 -0.4585266 1.0041199 -1.007019c0 -0.6384735 -0.45562744 -1.0970001 -1.0041199 -1.0970001l-3.1081543 0l0 -2.0111542l3.1081543 0c0.54849243 0 1.0041199 -0.4585266 1.0041199 -1.0070267c0 -0.6384659 -0.45562744 -1.0969925 -1.0041199 -1.0969925l-3.1081543 0l0 -2.0111542l3.1081543 0l0 0.2756958c0.54849243 0 1.0041199 -0.45853424 1.0041199 -1.0969925c0 -0.54850006 -0.45562744 -1.0070267 -1.0041199 -1.0070267l-3.1081543 0l0 -2.1040268l3.1081543 0c0.54849243 0 1.0041199 -0.45562744 1.0041199 -1.0041275c0 -0.54849243 -0.45562744 -1.0070267 -1.0041199 -1.0070267l-3.1081543 0l0 -1.0041275c0 -1.7383575 -1.3726807 -3.1081467 -3.1081543 -3.1081467l-1.007019 0l0 -3.1110535c0 -0.54849243 -0.4585266 -1.0041199 -1.007019 -1.0041199c-0.54849243 0 -1.0041199 0.45562744 -1.0041199 1.0041199l0 3.1110535l-2.1040344 0l0 -3.1110535c0 -0.54849243 -0.45562744 -1.0041199 -1.0041199 -1.0041199c-0.54849243 0 -1.0070496 0.45562744 -1.0070496 1.0041199l0 3.1110535l-2.1011047 0l0 -3.1110535c0 -0.54849243 -0.4585266 -1.0041199 -1.007019 -1.0041199c-0.54852295 0 -1.0070496 0.45562744 -1.0070496 1.0041199l0 3.1110535l-2.1011047 0l0 -3.1110535c0 -0.54849243 -0.4585266 -1.0041199 -1.0070496 -1.0041199c-0.54849243 0 -1.0041199 0.45562744 -1.0041199 1.0041199l0 3.1110535l-2.104004 0l0 -3.1110535c0 -0.54849243 -0.45562744 -1.0041199 -1.0041504 -1.0041199z" fill-rule="evenodd"/><path fill="#5f7d95" d="m471.95593 116.15467c-0.54849243 0 -1.007019 0.45853424 -1.007019 1.0070267c0 0.6384659 0.4585266 1.0970001 1.007019 1.0970001c0.54852295 0 1.0041504 -0.45853424 1.0041504 -1.0970001c0 -0.54849243 -0.45562744 -1.0070267 -1.0041504 -1.0070267z" fill-rule="evenodd"/><path fill="#5f7d95" d="m471.95593 132.52252c-0.54849243 0 -1.007019 0.45562744 -1.007019 1.0041199c0 0.54849243 0.4585266 1.0070343 1.007019 1.0070343c0.54852295 0 1.0041504 -0.45854187 1.0041504 -1.0070343c0 -0.54849243 -0.45562744 -1.0041199 -1.0041504 -1.0041199z" fill-rule="evenodd"/><path fill="#5f7d95" d="m488.3209 132.52252c-0.54849243 0 -1.007019 0.45562744 -1.007019 1.0041199c0 0.54849243 0.4585266 1.0070343 1.007019 1.0070343c0.54849243 0 1.007019 -0.45854187 1.007019 -1.0070343c0 -0.54849243 -0.4585266 -1.0041199 -1.007019 -1.0041199z" fill-rule="evenodd"/><path fill="#5f7d95" d="m488.3209 116.15467c-0.54849243 0 -1.007019 0.45853424 -1.007019 1.0070267c0 0.54850006 0.4585266 1.0970001 1.007019 1.0970001c0.54849243 0 1.007019 -0.54850006 1.007019 -1.0970001c0 -0.54849243 -0.4585266 -1.0070267 -1.007019 -1.0070267z" fill-rule="evenodd"/><path fill="#5f7d95" d="m481.09756 119.35569l0 0.36566162c0 0.45853424 0.2756958 0.82419586 0.73132324 0.9141617c0.54849243 0.18283081 1.0969849 0.54850006 1.555542 0.9141617c0.22924805 0.11608124 0.4991455 0.2321701 0.7574463 0.2321701c0.14801025 0 0.29599 -0.040634155 0.4295044 -0.13930511l0.36566162 -0.18283081l1.007019 1.6454926l-0.36566162 0.27279663c-0.36566162 0.18283081 -0.54849243 0.64136505 -0.4585266 1.0070267c0.09286499 0.6384659 0.09286499 1.1869583 0 1.8283234c-0.08996582 0.45562744 0.09286499 0.8212967 0.4585266 1.0041275l0.36566162 0.27570343l-1.007019 1.6454926l-0.36566162 -0.18283081c-0.16253662 -0.08126831 -0.34536743 -0.1277008 -0.5310974 -0.1277008c-0.22634888 0 -0.45562744 0.0667572 -0.6558533 0.2205658c-0.45855713 0.45562744 -1.0070496 0.73132324 -1.555542 0.91415405c-0.45562744 0.18283081 -0.73132324 0.63845825 -0.73132324 0.9141693l0 0.36566162l-2.0111694 0l0 -0.36566162c0 -0.45854187 -0.2756958 -0.7313385 -0.73132324 -0.9141693c-0.54849243 -0.18283081 -1.0969849 -0.54849243 -1.5555115 -0.91415405c-0.22927856 -0.11608887 -0.49917603 -0.23217773 -0.7574463 -0.23217773c-0.14801025 0 -0.2960205 0.037734985 -0.4295349 0.13931274l-0.36566162 0.18283081l-1.007019 -1.6454926l0.36566162 -0.27570343c0.36566162 -0.18283081 0.54849243 -0.63845825 0.4585266 -1.0041275c-0.09286499 -0.64136505 -0.09286499 -1.1898575 0 -1.8283234c0.08996582 -0.4585266 -0.09286499 -0.82419586 -0.4585266 -1.0070267l-0.36566162 -0.27279663l1.007019 -1.6454926l0.36566162 0.18283081c0.16833496 0.12769318 0.35986328 0.19444275 0.54852295 0.19444275c0.22055054 0 0.44400024 -0.08996582 0.63845825 -0.28730774c0.4585266 -0.45562744 1.007019 -0.7313309 1.5555115 -0.9141617c0.45562744 -0.08996582 0.73132324 -0.54849243 0.73132324 -0.9141617l0 -0.36566162zm-2.9253235 -2.1939926c-0.6413574 0 -1.0969849 0.45563507 -1.0969849 1.0041275l0 0.7313309c-0.2756958 0.09286499 -0.6413574 0.36856842 -0.91415405 0.55139923l-0.54852295 -0.36566162c-0.14508057 -0.058044434 -0.3076172 -0.08996582 -0.47302246 -0.08996582c-0.35406494 0 -0.71102905 0.14220428 -0.8996582 0.45562744l-2.011139 3.5637817c-0.27282715 0.4585266 -0.18286133 1.0969925 0.2756958 1.3726883l0.63845825 0.36566925l0 1.0969925l-0.63845825 0.36566162c-0.36566162 0.18283081 -0.64138794 0.9141617 -0.2756958 1.3697891l2.011139 3.5666885c0.1741333 0.2902069 0.49334717 0.47013855 0.82128906 0.47013855c0.19155884 0 0.38308716 -0.060943604 0.5513916 -0.19444275l0.54852295 -0.2756958c0.36566162 0.18283081 0.73132324 0.4585266 0.91415405 0.54849243l0 0.6413574c0 0.6384735 0.45562744 1.0970001 1.0969849 1.0970001l4.1151733 0c0.54849243 0 1.0041199 -0.4585266 1.0041199 -1.0970001l0 -0.6413574c0.36569214 -0.08996582 0.64138794 -0.36566162 0.9141846 -0.54849243l0.54849243 0.2756958c0.17123413 0.10157776 0.38308716 0.1538086 0.58621216 0.1538086c0.34246826 0 0.67037964 -0.14219666 0.7864685 -0.4295044l2.1011353 -3.5666885c0.18283081 -0.45562744 0.09286499 -1.0041199 -0.36566162 -1.3697891l-0.54849243 -0.36566162l0 -1.0969925l0.54849243 -0.36566925c0.4585266 -0.2756958 0.6413574 -0.9141617 0.36566162 -1.3726883l-2.1011353 -3.5637817c-0.12478638 -0.31342316 -0.5020447 -0.4962616 -0.87353516 -0.4962616c-0.17700195 0 -0.35113525 0.040634155 -0.4991455 0.13059998l-0.54849243 0.36566162c-0.36566162 -0.18283081 -0.73132324 -0.45853424 -0.9141846 -0.55139923l0 -0.7313309c0 -0.54849243 -0.45562744 -1.0041275 -1.0041199 -1.0041275z" fill-rule="evenodd"/><path fill="#5f7d95" d="m480.09344 124.29216c0.54849243 0 1.0041199 0.45853424 1.0041199 1.0070267c0 0.54850006 -0.45562744 1.0041275 -1.0041199 1.0041275c-0.5514221 0 -1.0070496 -0.45562744 -1.0070496 -1.0041275c0 -0.54849243 0.45562744 -1.0070267 1.0070496 -1.0070267zm0 -1.9182892c-1.7383728 0 -3.1110535 1.3697891 -3.1110535 3.0152817c0 1.7383575 1.3726807 3.1110458 3.1110535 3.1110458c1.7354431 0 3.1081543 -1.3726883 3.1081543 -3.1110458c0 -1.6454926 -1.3727112 -3.0152817 -3.1081543 -3.0152817z" fill-rule="evenodd"/><path fill="#5f7d95" d="m481.8407 301.7265l0 3.0047913c0 0.63565063 0.27157593 1.0921326 0.9100952 1.1817017c1.3637085 0.3640442 2.7303467 0.82055664 3.8224487 1.548645c0.19937134 0.15890503 0.45074463 0.23114014 0.6963196 0.23114014c0.30914307 0 0.6067505 -0.11846924 0.7598572 -0.32070923l2.1842651 -2.1871643l2.2767334 2.2767334l-2.1842651 2.1842651c-0.2744751 0.3640442 -0.45651245 1.0025635 -0.09246826 1.4561768c0.82055664 1.2741394 1.3666382 2.5483093 1.548645 3.914917c0.18203735 0.546051 0.6356201 0.9100952 1.1817017 0.9100952l3.0972595 0l0 3.1868286l-3.0972595 0c-0.54608154 0 -0.9996643 0.3640442 -1.1817017 0.91012573c-0.2744751 1.3637085 -0.7280884 2.7303162 -1.548645 3.8224487c-0.3640442 0.45361328 -0.18200684 1.1817017 0.09246826 1.5457458l2.1842651 2.094696l-2.2767334 2.2767334l-2.1842651 -2.094696c-0.16467285 -0.21960449 -0.49694824 -0.34094238 -0.83496094 -0.34094238c-0.21960449 0 -0.44207764 0.052001953 -0.6212158 0.15890503c-1.2741394 0.82055664 -2.4587402 1.3666077 -3.8224487 1.6382141c-0.6385193 0.092437744 -0.9100952 0.546051 -0.9100952 1.0921326l0 3.0943604l-3.1868591 0l0 -3.0943604c0 -0.54608154 -0.3640442 -0.9996948 -0.9996643 -1.0921326c-1.2770386 -0.3640442 -2.640747 -0.8176575 -3.825348 -1.6382141c-0.17913818 -0.106903076 -0.387146 -0.15890503 -0.5951843 -0.15890503c-0.31781006 0 -0.6385193 0.12133789 -0.86099243 0.34094238l-2.1842651 2.094696l-2.2738342 -2.2767334l2.1842651 -2.094696c0.3640442 -0.3640442 0.45361328 -1.0921326 0.08956909 -1.5457458c-0.8176575 -1.1845703 -1.3637085 -2.4587402 -1.5457458 -3.8224487c-0.18200684 -0.54608154 -0.6385193 -0.91012573 -1.1846008 -0.91012573l-3.0943604 0l0 -3.1868286l3.0943604 0c0.54608154 0 1.002594 -0.3640442 1.1846008 -0.9100952c0.27157593 -1.3666077 0.7280884 -2.7303467 1.5457458 -3.914917c0.3640442 -0.45361328 0.2744751 -1.0921326 -0.08956909 -1.4561768l-2.1842651 -2.1842651l2.2738342 -2.2767334l2.1842651 2.1871643c0.20513916 0.20223999 0.49694824 0.32070923 0.7916565 0.32070923c0.23114014 0 0.46514893 -0.07223511 0.66452026 -0.23114014c1.2741394 -0.7280884 2.5483093 -1.3666077 3.825348 -1.548645c0.6356201 -0.08956909 0.9996643 -0.546051 0.9996643 -1.1817017l0 -3.0047913zm-3.458435 -2.6378784c-1.3666077 0 -2.3691711 0.9996643 -2.3691711 2.366272l0 2.1842651c-1.0921326 0.3640442 -2.0917969 0.63565063 -3.0019226 1.2741699l-1.4561768 -1.548645c-0.45651245 -0.45361328 -1.0487976 -0.68185425 -1.6613159 -0.68185425c-0.6154175 0 -1.2510376 0.22824097 -1.7970886 0.68185425l-2.2767334 2.2767334c-0.9100952 0.9100952 -0.9100952 2.4587402 0 3.4584045l1.548645 1.4561768c-0.6385498 0.91012573 -0.9130249 1.9126892 -1.2770691 3.0048218l-2.1842651 0c-1.3637085 0 -2.366272 0.9996643 -2.366272 2.366272l0 3.1868286c0 1.363739 1.0025635 2.3663025 2.366272 2.3663025l2.1842651 0c0.3640442 0.9996643 0.6385193 2.0917969 1.2770691 2.9123535l-1.548645 1.5486145c-0.9100952 0.91012573 -0.9100952 2.3663025 0 3.3659668l2.2767334 2.2767334c0.45358276 0.45361328 1.0690002 0.68185425 1.6930847 0.68185425c0.6269531 0 1.2626038 -0.22824097 1.7653198 -0.68185425l1.4561768 -1.4561768c0.91012573 0.546051 1.90979 0.9100952 3.0019226 1.2741394l0 2.0918274c0 1.3666077 1.0025635 2.4587402 2.3691711 2.4587402l3.1839294 0c1.3666382 0 2.3663025 -1.0921326 2.3663025 -2.4587402l0 -2.0918274c1.0025635 -0.3640442 2.094696 -0.7280884 3.0047913 -1.2741394l1.4561768 1.4561768c0.45651245 0.45361328 1.045929 0.68185425 1.6497803 0.68185425c0.6038513 0 1.2192383 -0.22824097 1.7190857 -0.68185425l2.2738342 -2.2767334c0.9129944 -0.9100952 0.9129944 -2.366272 0 -3.3659668l-1.4561768 -1.5486145c0.546051 -0.91012573 0.9100952 -1.9126892 1.2741394 -2.9123535l2.1871643 0c1.3637085 0 2.3663025 -1.0025635 2.3663025 -2.3663025l0 -3.1868286c0 -1.3666077 -1.1846008 -2.366272 -2.3663025 -2.366272l-2.1871643 0c-0.3640442 -1.0921326 -0.7280884 -2.094696 -1.2741394 -3.0048218l1.4561768 -1.4561768c0.9129944 -0.9100952 0.9129944 -2.366272 0 -3.4584045l-2.2738342 -2.2767334c-0.45651245 -0.45361328 -1.0458984 -0.68185425 -1.6497498 -0.68185425c-0.6038513 0 -1.2192688 0.22824097 -1.7191162 0.68185425l-1.4561768 1.548645c-0.9100952 -0.6385193 -2.0022278 -0.91012573 -3.0047913 -1.2741699l0 -2.1842651c0 -1.3666077 -0.9996643 -2.366272 -2.3663025 -2.366272z" fill-rule="evenodd"/><path fill="#5f7d95" d="m480.11002 311.9226c3.0048218 0 5.553131 2.5483093 5.553131 5.553131c0 3.0943604 -2.5483093 5.6426697 -5.553131 5.6426697c-3.0943604 0 -5.6426697 -2.5483093 -5.6426697 -5.6426697c0 -3.0048218 2.5483093 -5.553131 5.6426697 -5.553131zm0 -2.366272c-4.460968 0 -8.008942 3.4584045 -8.008942 7.919403c0 4.4580994 3.5479736 8.008972 8.008942 8.008972c4.3685303 0 7.919403 -3.5508728 7.919403 -8.008972c0 -4.3714294 -3.6404114 -7.919403 -7.919403 -7.919403z" fill-rule="evenodd"/><path fill="#000000" fill-opacity="0.0" d="m33.87664 224.71523l113.79528 0l0 50.645676l-113.79528 0z" fill-rule="evenodd"/><path fill="#ffffff" d="m70.90329 251.63522l0 -12.4375l1.546875 0l0 12.4375l-1.546875 0zm10.490097 0l0 -5.890625q0 -1.203125 -0.5625 -1.640625q-0.546875 -0.453125 -1.453125 -0.453125q-0.78125 0 -1.546875 0.421875q-0.75 0.421875 -1.125 0.984375l0 6.578125l-1.390625 0l0 -9.015625l1.390625 0l0 1.3125q0.578125 -0.671875 1.421875 -1.09375q0.859375 -0.4375 1.78125 -0.4375q2.875 0 2.875 2.90625l0 6.328125l-1.390625 0zm4.888977 -10.296875q-0.375 0 -0.65625 -0.265625q-0.28125 -0.28125 -0.28125 -0.671875q0 -0.390625 0.28125 -0.671875q0.28125 -0.28125 0.65625 -0.28125q0.390625 0 0.671875 0.28125q0.28125 0.28125 0.28125 0.671875q0 0.390625 -0.28125 0.671875q-0.28125 0.265625 -0.671875 0.265625zm-0.6875 10.296875l0 -9.015625l1.390625 0l0 9.015625l-1.390625 0zm6.4632874 0.21875q-2.0 0 -2.0 -2.109375l0 -5.890625l-1.484375 0l0 -1.234375l1.484375 0l0 -2.453125l1.40625 0l0 2.453125l1.828125 0l0 1.234375l-1.828125 0l0 5.59375q0 0.515625 0.21875 0.84375q0.234375 0.3125 0.703125 0.3125q0.578125 0 0.9375 -0.375l0.421875 1.046875q-0.578125 0.578125 -1.6875 0.578125zm3.9068146 -10.515625q-0.375 0 -0.65625 -0.265625q-0.28125 -0.28125 -0.28125 -0.671875q0 -0.390625 0.28125 -0.671875q0.28125 -0.28125 0.65625 -0.28125q0.390625 0 0.671875 0.28125q0.28125 0.28125 0.28125 0.671875q0 0.390625 -0.28125 0.671875q-0.28125 0.265625 -0.671875 0.265625zm-0.6875 10.296875l0 -9.015625l1.390625 0l0 9.015625l-1.390625 0zm9.822662 0l0 -1.03125q-1.140625 1.25 -2.984375 1.25q-1.359375 0 -2.265625 -0.859375q-0.890625 -0.859375 -0.890625 -2.125q0 -1.296875 0.890625 -2.125q0.890625 -0.84375 2.265625 -0.84375q1.9375 0 2.984375 1.234375l0 -1.625q0 -0.90625 -0.640625 -1.390625q-0.640625 -0.5 -1.640625 -0.5q-1.578125 0 -2.75 1.25l-0.65625 -0.984375q1.4375 -1.484375 3.59375 -1.484375q1.671875 0 2.578125 0.8125q0.921875 0.796875 0.921875 2.234375l0 6.1875l-1.40625 0zm-2.484375 -0.78125q1.671875 0 2.484375 -1.125l0 -1.6875q-0.8125 -1.125 -2.484375 -1.125q-0.984375 0 -1.609375 0.546875q-0.609375 0.546875 -0.609375 1.421875q0 0.859375 0.609375 1.421875q0.625 0.546875 1.609375 0.546875zm6.691223 0.78125l0 -12.4375l1.390625 0l0 12.4375l-1.390625 0z" fill-rule="nonzero"/><path fill="#ffffff" d="m77.27165 273.63522l0 -10.25l-4.234375 10.25l-0.640625 0l-4.21875 -10.25l0 10.25l-1.546875 0l0 -12.4375l2.21875 0l3.859375 9.359375l3.890625 -9.359375l2.21875 0l0 12.4375l-1.546875 0zm8.327286 0.21875q-1.953125 0 -3.203125 -1.328125q-1.25 -1.328125 -1.25 -3.40625q0 -2.09375 1.25 -3.40625q1.25 -1.3125 3.203125 -1.3125q1.96875 0 3.21875 1.3125q1.25 1.3125 1.25 3.40625q0 2.078125 -1.25 3.40625q-1.25 1.328125 -3.21875 1.328125zm0 -1.25q1.3125 0 2.15625 -0.96875q0.84375 -0.984375 0.84375 -2.515625q0 -1.515625 -0.84375 -2.484375q-0.84375 -0.984375 -2.15625 -0.984375q-1.296875 0 -2.15625 0.96875q-0.84375 0.96875 -0.84375 2.5q0 1.546875 0.84375 2.515625q0.84375 0.96875 2.15625 0.96875zm13.265121 1.03125l0 -1.34375q-0.5 0.6875 -1.296875 1.125q-0.78125 0.4375 -1.734375 0.4375q-1.8125 0 -2.921875 -1.28125q-1.09375 -1.28125 -1.09375 -3.4375q0 -2.15625 1.109375 -3.4375q1.109375 -1.296875 2.90625 -1.296875q0.90625 0 1.703125 0.421875q0.796875 0.421875 1.328125 1.15625l0 -4.78125l1.40625 0l0 12.4375l-1.40625 0zm-2.703125 -1.03125q0.84375 0 1.59375 -0.40625q0.75 -0.40625 1.109375 -1.0l0 -4.09375q-0.359375 -0.59375 -1.109375 -1.015625q-0.75 -0.4375 -1.59375 -0.4375q-1.296875 0 -2.09375 0.953125q-0.796875 0.953125 -0.796875 2.53125q0 1.546875 0.78125 2.515625q0.796875 0.953125 2.109375 0.953125zm10.977341 1.25q-2.03125 0 -3.3125 -1.3125q-1.28125 -1.328125 -1.28125 -3.421875q0 -2.0 1.265625 -3.359375q1.28125 -1.359375 3.171875 -1.359375q1.9375 0 3.125 1.34375q1.203125 1.34375 1.203125 3.484375l0 0.359375l-7.296875 0q0.078125 1.375 1.0 2.25q0.921875 0.859375 2.25 0.859375q1.640625 0 2.78125 -1.140625l0.671875 0.921875q-1.375 1.375 -3.578125 1.375zm2.796875 -5.296875q0 -1.25 -0.828125 -2.125q-0.8125 -0.875 -2.140625 -0.875q-1.25 0 -2.078125 0.875q-0.828125 0.875 -0.875 2.125l5.921875 0zm3.6440887 5.078125l0 -12.4375l1.390625 0l0 12.4375l-1.390625 0z" fill-rule="nonzero"/><path fill="#5f7d95" d="m75.53268 289.4686l0 2.0111694l-2.1040192 0l0 -2.0111694zm28.617607 0l0 2.0111694l-2.0111542 0l0 -2.0111694zm-4.115181 2.0111694l0 1.0969849c0 0.54849243 0.45853424 1.0041199 1.0070343 1.0041199l1.0969925 0l0 22.494171l-1.0969925 0c-0.54850006 0 -1.0070343 0.45562744 -1.0070343 1.0041504l0 1.0969849l-22.491272 0l0 -1.0969849c0 -0.54852295 -0.4585266 -1.0041504 -1.0070267 -1.0041504l-1.0041275 0l0 -22.494171l1.0041275 0c0.54850006 0 1.0070267 -0.45562744 1.0070267 -1.0041199l0 -1.0969849zm-24.595291 26.696411l0 2.011139l-2.0111542 0l0 -2.011139zm28.710472 0l0 2.011139l-2.0111542 0l0 -2.011139zm-31.725754 -30.811584c-0.64136505 0 -1.0969925 0.4585266 -1.0969925 1.0969849l0 4.0223083c0 0.6413574 0.45562744 1.0969849 1.0969925 1.0969849l1.0041275 0l0 22.494171l-1.0041275 0c-0.64136505 0 -1.0969925 0.45562744 -1.0969925 1.0041504l0 4.1151733c0 0.63845825 0.45562744 1.0969849 1.0969925 1.0969849l4.112274 0c0.54850006 0 1.0070267 -0.4585266 1.0070267 -1.0969849l0 -1.0070496l22.491272 0l0 1.0070496c0 0.63845825 0.45853424 1.0969849 1.0070343 1.0969849l4.112274 0c0.64136505 0 1.0998917 -0.4585266 1.0998917 -1.0969849l0 -4.1151733c0 -0.54852295 -0.4585266 -1.0041504 -1.0998917 -1.0041504l-1.0041275 0l0 -22.494171l1.0041275 0c0.64136505 0 1.0998917 -0.45562744 1.0998917 -1.0969849l0 -4.0223083c0 -0.63845825 -0.4585266 -1.0969849 -1.0998917 -1.0969849l-4.112274 0c-0.54850006 0 -1.0070343 0.4585266 -1.0070343 1.0969849l0 1.007019l-22.491272 0l0 -1.007019c0 -0.63845825 -0.4585266 -1.0969849 -1.0070267 -1.0969849z" fill-rule="evenodd"/><path fill="#5f7d95" d="m98.02395 297.60608l0 0.08996582l0 12.801178l-4.38797 -4.38797c-0.18283081 -0.18283081 -0.45853424 -0.36566162 -0.7313309 -0.36566162c-0.27570343 0 -0.64136505 0.18283081 -0.7313309 0.36566162l-3.2010117 3.473816l-3.566681 -3.566681c-0.18283844 -0.18283081 -0.43241882 -0.27279663 -0.6965103 -0.27279663c-0.2611847 0 -0.5368881 0.08996582 -0.7661514 0.27279663l-4.3879776 4.38797l0 -12.798279zm-13.25679 10.697144l3.6566467 3.6566467l-7.3132935 0l3.6566467 -3.6566467zm8.227455 0.08996582l3.659546 3.6566467l-5.3950043 0l0 -0.08996582l-0.82419586 -0.82418823l2.5596542 -2.7424927zm-14.35379 -12.798248c-0.54849243 0 -1.0070267 0.45562744 -1.0070267 1.0969849l0 16.272064c0 0.64138794 0.45853424 1.0999146 1.0070267 1.0999146l20.39016 0c0.54849243 0 1.0041199 -0.4585266 1.0041199 -1.0999146l0 -16.272064c0 -0.6413574 -0.45562744 -1.0969849 -1.0041199 -1.0969849z" fill-rule="evenodd"/><path fill="#5f7d95" d="m88.6995 300.8042c0.6384659 0 1.0970001 0.4585266 1.0970001 1.0070496c0 0.54849243 -0.45853424 1.0041199 -1.0970001 1.0041199c-0.54849243 0 -1.0070267 -0.45562744 -1.0070267 -1.0041199c0 -0.54852295 0.45853424 -1.0070496 1.0070267 -1.0070496zm0 -2.1011047c-1.6483917 0 -3.0181808 1.3697815 -3.0181808 3.1081543c0.08996582 1.7354431 1.4626617 3.1081238 3.0181808 3.1081238c1.7354584 0 3.1081543 -1.3726807 3.1081543 -3.1081238c0 -1.7383728 -1.3726959 -3.1081543 -3.1081543 -3.1081543z" fill-rule="evenodd"/><path fill="#000000" fill-opacity="0.0" d="m818.979 224.71523l113.79529 0l0 50.645676l-113.79529 0z" fill-rule="evenodd"/><path fill="#ffffff" d="m838.6274 251.63522l0 -12.4375l1.546875 0l0 12.4375l-1.546875 0zm15.286987 0l0 -6.125q0 -1.859375 -1.671875 -1.859375q-0.703125 0 -1.375 0.421875q-0.65625 0.421875 -1.0 0.953125l0 6.609375l-1.40625 0l0 -6.125q0 -1.859375 -1.65625 -1.859375q-0.6875 0 -1.34375 0.4375q-0.65625 0.421875 -1.03125 0.96875l0 6.578125l-1.390625 0l0 -9.015625l1.390625 0l0 1.3125q0.3125 -0.546875 1.1875 -1.03125q0.890625 -0.5 1.71875 -0.5q1.046875 0 1.625 0.484375q0.59375 0.484375 0.8125 1.1875q0.453125 -0.71875 1.3125 -1.1875q0.859375 -0.484375 1.703125 -0.484375q2.515625 0 2.515625 2.71875l0 6.515625l-1.390625 0zm8.636719 0.21875q-1.921875 0 -3.046875 -1.578125l0 4.796875l-1.390625 0l0 -12.453125l1.390625 0l0 1.34375q0.484375 -0.6875 1.28125 -1.125q0.8125 -0.4375 1.765625 -0.4375q1.8125 0 2.90625 1.265625q1.09375 1.265625 1.09375 3.453125q0 2.171875 -1.09375 3.453125q-1.078125 1.28125 -2.90625 1.28125zm-0.359375 -1.25q1.3125 0 2.09375 -0.9375q0.796875 -0.953125 0.796875 -2.546875q0 -1.546875 -0.78125 -2.5q-0.78125 -0.96875 -2.109375 -0.96875q-0.84375 0 -1.578125 0.421875q-0.734375 0.421875 -1.109375 1.015625l0 4.0625q0.375 0.59375 1.109375 1.03125q0.734375 0.421875 1.578125 0.421875zm6.5932617 1.03125l0 -9.015625l1.390625 0l0 1.453125q1.25 -1.640625 3.0 -1.640625l0 1.4375l-0.546875 -0.046875q-0.640625 0 -1.40625 0.453125q-0.765625 0.453125 -1.046875 0.984375l0 6.375l-1.390625 0zm10.07843 0.21875q-1.953125 0 -3.203125 -1.328125q-1.25 -1.328125 -1.25 -3.40625q0 -2.09375 1.25 -3.40625q1.25 -1.3125 3.203125 -1.3125q1.96875 0 3.21875 1.3125q1.25 1.3125 1.25 3.40625q0 2.078125 -1.25 3.40625q-1.25 1.328125 -3.21875 1.328125zm0 -1.25q1.3125 0 2.15625 -0.96875q0.84375 -0.984375 0.84375 -2.515625q0 -1.515625 -0.84375 -2.484375q-0.84375 -0.984375 -2.15625 -0.984375q-1.296875 0 -2.15625 0.96875q-0.84375 0.96875 -0.84375 2.5q0 1.546875 0.84375 2.515625q0.84375 0.96875 2.15625 0.96875zm9.155762 1.03125l-3.75 -9.015625l1.5 0l3.015625 7.390625l2.984375 -7.390625l1.515625 0l-3.75 9.015625l-1.515625 0zm10.797791 0.21875q-2.03125 0 -3.3125 -1.3125q-1.28125 -1.328125 -1.28125 -3.421875q0 -2.0 1.265625 -3.359375q1.28125 -1.359375 3.171875 -1.359375q1.9375 0 3.125 1.34375q1.203125 1.34375 1.203125 3.484375l0 0.359375l-7.296875 0q0.078125 1.375 1.0 2.25q0.921875 0.859375 2.25 0.859375q1.640625 0 2.78125 -1.140625l0.671875 0.921875q-1.375 1.375 -3.578125 1.375zm2.796875 -5.296875q0 -1.25 -0.828125 -2.125q-0.8125 -0.875 -2.140625 -0.875q-1.25 0 -2.078125 0.875q-0.828125 0.875 -0.875 2.125l5.921875 0zm10.159729 5.078125l0 -1.34375q-0.5 0.6875 -1.296875 1.125q-0.78125 0.4375 -1.734375 0.4375q-1.8125 0 -2.921875 -1.28125q-1.09375 -1.28125 -1.09375 -3.4375q0 -2.15625 1.109375 -3.4375q1.109375 -1.296875 2.90625 -1.296875q0.90625 0 1.703125 0.421875q0.796875 0.421875 1.328125 1.15625l0 -4.78125l1.40625 0l0 12.4375l-1.40625 0zm-2.703125 -1.03125q0.84375 0 1.59375 -0.40625q0.75 -0.40625 1.109375 -1.0l0 -4.09375q-0.359375 -0.59375 -1.109375 -1.015625q-0.75 -0.4375 -1.59375 -0.4375q-1.296875 0 -2.09375 0.953125q-0.796875 0.953125 -0.796875 2.53125q0 1.546875 0.78125 2.515625q0.796875 0.953125 2.109375 0.953125z" fill-rule="nonzero"/><path fill="#ffffff" d="m862.374 273.63522l0 -10.25l-4.234375 10.25l-0.640625 0l-4.21875 -10.25l0 10.25l-1.546875 0l0 -12.4375l2.21875 0l3.859375 9.359375l3.890625 -9.359375l2.21875 0l0 12.4375l-1.546875 0zm8.3272705 0.21875q-1.953125 0 -3.203125 -1.328125q-1.25 -1.328125 -1.25 -3.40625q0 -2.09375 1.25 -3.40625q1.25 -1.3125 3.203125 -1.3125q1.96875 0 3.21875 1.3125q1.25 1.3125 1.25 3.40625q0 2.078125 -1.25 3.40625q-1.25 1.328125 -3.21875 1.328125zm0 -1.25q1.3125 0 2.15625 -0.96875q0.84375 -0.984375 0.84375 -2.515625q0 -1.515625 -0.84375 -2.484375q-0.84375 -0.984375 -2.15625 -0.984375q-1.296875 0 -2.15625 0.96875q-0.84375 0.96875 -0.84375 2.5q0 1.546875 0.84375 2.515625q0.84375 0.96875 2.15625 0.96875zm13.265137 1.03125l0 -1.34375q-0.5 0.6875 -1.296875 1.125q-0.78125 0.4375 -1.734375 0.4375q-1.8125 0 -2.921875 -1.28125q-1.09375 -1.28125 -1.09375 -3.4375q0 -2.15625 1.109375 -3.4375q1.109375 -1.296875 2.90625 -1.296875q0.90625 0 1.703125 0.421875q0.796875 0.421875 1.328125 1.15625l0 -4.78125l1.40625 0l0 12.4375l-1.40625 0zm-2.703125 -1.03125q0.84375 0 1.59375 -0.40625q0.75 -0.40625 1.109375 -1.0l0 -4.09375q-0.359375 -0.59375 -1.109375 -1.015625q-0.75 -0.4375 -1.59375 -0.4375q-1.296875 0 -2.09375 0.953125q-0.796875 0.953125 -0.796875 2.53125q0 1.546875 0.78125 2.515625q0.796875 0.953125 2.109375 0.953125zm10.977356 1.25q-2.03125 0 -3.3125 -1.3125q-1.28125 -1.328125 -1.28125 -3.421875q0 -2.0 1.265625 -3.359375q1.28125 -1.359375 3.171875 -1.359375q1.9375 0 3.125 1.34375q1.203125 1.34375 1.203125 3.484375l0 0.359375l-7.296875 0q0.078125 1.375 1.0 2.25q0.921875 0.859375 2.25 0.859375q1.640625 0 2.78125 -1.140625l0.671875 0.921875q-1.375 1.375 -3.578125 1.375zm2.796875 -5.296875q0 -1.25 -0.828125 -2.125q-0.8125 -0.875 -2.140625 -0.875q-1.25 0 -2.078125 0.875q-0.828125 0.875 -0.875 2.125l5.921875 0zm3.644043 5.078125l0 -12.4375l1.390625 0l0 12.4375l-1.390625 0z" fill-rule="nonzero"/><path fill="#5f7d95" d="m862.61926 289.4682l0 2.0111694l-2.104004 0l0 -2.0111694zm28.617615 0l0 2.0111694l-2.0111084 0l0 -2.0111694zm-4.1151733 2.0111694l0 1.0969849c0 0.54849243 0.45855713 1.0041199 1.007019 1.0041199l1.0970459 0l0 22.494202l-1.0970459 0c-0.5484619 0 -1.007019 0.45562744 -1.007019 1.0041199l0 1.0969849l-22.491272 0l0 -1.0969849c0 -0.54849243 -0.4584961 -1.0041199 -1.007019 -1.0041199l-1.0041504 0l0 -22.494202l1.0041504 0c0.54852295 0 1.007019 -0.45562744 1.007019 -1.0041199l0 -1.0969849zm-24.595276 26.696411l0 2.0111694l-2.0111694 0l0 -2.0111694zm28.71045 0l0 2.0111694l-2.0111084 0l0 -2.0111694zm-31.725708 -30.811584c-0.64141846 0 -1.0970459 0.4585266 -1.0970459 1.0969849l0 4.0223083c0 0.6413574 0.45562744 1.0969849 1.0970459 1.0969849l1.0040894 0l0 22.494202l-1.0040894 0c-0.64141846 0 -1.0970459 0.45562744 -1.0970459 1.0041199l0 4.1151733c0 0.63845825 0.45562744 1.0969849 1.0970459 1.0969849l4.1122437 0c0.54852295 0 1.007019 -0.4585266 1.007019 -1.0969849l0 -1.007019l22.491272 0l0 1.007019c0 0.63845825 0.45855713 1.0969849 1.007019 1.0969849l4.1123047 0c0.6413574 0 1.0999146 -0.4585266 1.0999146 -1.0969849l0 -4.1151733c0 -0.54849243 -0.45855713 -1.0041199 -1.0999146 -1.0041199l-1.0041504 0l0 -22.494202l1.0041504 0c0.6413574 0 1.0999146 -0.45562744 1.0999146 -1.0969849l0 -4.0223083c0 -0.63845825 -0.45855713 -1.0969849 -1.0999146 -1.0969849l-4.1123047 0c-0.5484619 0 -1.007019 0.4585266 -1.007019 1.0969849l0 1.007019l-22.491272 0l0 -1.007019c0 -0.63845825 -0.4584961 -1.0969849 -1.007019 -1.0969849z" fill-rule="evenodd"/><path fill="#5f7d95" d="m885.1106 297.6057l0 0.08996582l0 12.801147l-4.3880005 -4.38797c-0.18286133 -0.18283081 -0.45855713 -0.36566162 -0.73132324 -0.36566162c-0.2756958 0 -0.6413574 0.18283081 -0.73132324 0.36566162l-3.2010498 3.473816l-3.5666504 -3.566681c-0.18286133 -0.18283081 -0.43243408 -0.27279663 -0.6965332 -0.27279663c-0.26116943 0 -0.53686523 0.08996582 -0.7661133 0.27279663l-4.3880005 4.38797l0 -12.798248zm-13.256836 10.697113l3.6566772 3.6566467l-7.3132935 0l3.6566162 -3.6566467zm8.227478 0.08996582l3.659546 3.6566467l-5.3950195 0l0 -0.08996582l-0.82421875 -0.82418823l2.5596924 -2.7424927zm-14.353821 -12.798248c-0.5484619 0 -1.007019 0.45562744 -1.007019 1.0969849l0 16.272095c0 0.6413574 0.45855713 1.099884 1.007019 1.099884l20.390198 0c0.5484619 0 1.0040894 -0.4585266 1.0040894 -1.099884l0 -16.272095c0 -0.6413574 -0.45562744 -1.0969849 -1.0040894 -1.0969849z" fill-rule="evenodd"/><path fill="#5f7d95" d="m875.78613 300.8038c0.63842773 0 1.0969849 0.45855713 1.0969849 1.0070496c0 0.54849243 -0.45855713 1.0041199 -1.0969849 1.0041199c-0.54852295 0 -1.007019 -0.45562744 -1.007019 -1.0041199c0 -0.54849243 0.4584961 -1.0070496 1.007019 -1.0070496zm0 -2.1011047c-1.6483765 0 -3.0181885 1.3697815 -3.0181885 3.1081543c0.08996582 1.7354431 1.4626465 3.1081543 3.0181885 3.1081543c1.7354126 0 3.1081543 -1.3727112 3.1081543 -3.1081543c0 -1.7383728 -1.3727417 -3.1081543 -3.1081543 -3.1081543z" fill-rule="evenodd"/><path fill="#000000" fill-opacity="0.0" d="m436.64896 149.49786l-122.58325 -0.5144348" fill-rule="evenodd"/><path stroke="#5f7d95" stroke-width="2.0" stroke-linejoin="round" stroke-linecap="butt" d="m429.06903 149.46605l-115.00333 -0.48262024" fill-rule="evenodd"/><path fill="#5f7d95" stroke="#5f7d95" stroke-width="2.0" stroke-linecap="butt" d="m435.64896 149.49367c-0.0076293945 1.8170013 -1.4867859 3.283783 -3.303772 3.2761536c-1.8170166 -0.0076141357 -3.283783 -1.4867706 -3.2761536 -3.303772c0.007598877 -1.8170013 1.4867554 -3.2837982 3.303772 -3.2761688c1.8169861 0.0076293945 3.283783 1.4867859 3.2761536 3.3037872z" fill-rule="nonzero"/><path fill="#000000" fill-opacity="0.0" d="m306.18527 149.803l50.50647 -0.61813354" fill-rule="evenodd"/><path stroke="#5f7d95" stroke-width="2.0" stroke-linejoin="round" stroke-linecap="butt" d="m313.7647 149.71024l42.927063 -0.52537537" fill-rule="evenodd"/><path fill="#5f7d95" stroke="#5f7d95" stroke-width="2.0" stroke-linecap="butt" d="m307.1852 149.79076c-0.022247314 -1.8168793 1.4326172 -3.307785 3.2494812 -3.330017c1.8168945 -0.022232056 3.3078003 1.4326172 3.330017 3.2494965c0.022247314 1.8168793 -1.4326172 3.307785 -3.2494812 3.330017c-1.8168945 0.022232056 -3.3077698 -1.4326172 -3.330017 -3.2494965z" fill-rule="nonzero"/><path fill="#000000" fill-opacity="0.0" d="m743.65515 171.81674l75.88312 55.91942" fill-rule="evenodd"/><path stroke="#5f7d95" stroke-width="2.0" stroke-linejoin="round" stroke-linecap="butt" d="m749.7573 176.31349l69.781006 51.42267" fill-rule="evenodd"/><path fill="#5f7d95" stroke="#5f7d95" stroke-width="2.0" stroke-linecap="butt" d="m744.4602 172.40999c1.0779419 -1.4627533 3.1375732 -1.7747192 4.600281 -0.6967926c1.4627686 1.0779114 1.7747192 3.1375427 0.6968384 4.600281c-1.0779419 1.4627533 -3.1375732 1.7747192 -4.600342 0.6967926c-1.4627075 -1.0779114 -1.7747192 -3.1375427 -0.69677734 -4.600281z" fill-rule="nonzero"/><path fill="#000000" fill-opacity="0.0" d="m824.0681 231.91159l-30.926025 -23.605011" fill-rule="evenodd"/><path stroke="#5f7d95" stroke-width="2.0" stroke-linejoin="round" stroke-linecap="butt" d="m818.04266 227.31256l-24.900513 -19.005981" fill-rule="evenodd"/><path fill="#5f7d95" stroke="#5f7d95" stroke-width="2.0" stroke-linecap="butt" d="m823.2732 231.30487c-1.102478 1.4443512 -3.1670532 1.7215271 -4.611389 0.61909485c-1.444397 -1.1024475 -1.7215576 -3.167038 -0.6191406 -4.6114044c1.102478 -1.4443512 3.1670532 -1.7215271 4.611389 -0.6190796c1.444397 1.1024475 1.7215576 3.167038 0.6191406 4.611389z" fill-rule="nonzero"/><path fill="#000000" fill-opacity="0.0" d="m651.9797 149.49655l-122.58325 -0.5144348" fill-rule="evenodd"/><path stroke="#5f7d95" stroke-width="2.0" stroke-linejoin="round" stroke-linecap="butt" d="m644.3997 149.46474l-115.003296 -0.48262024" fill-rule="evenodd"/><path fill="#5f7d95" stroke="#5f7d95" stroke-width="2.0" stroke-linecap="butt" d="m650.9797 149.49236c-0.0076293945 1.8170013 -1.4867554 3.283783 -3.303772 3.2761536c-1.8170166 -0.0076141357 -3.2838135 -1.4867706 -3.276184 -3.303772c0.0076293945 -1.8170013 1.4867554 -3.2837982 3.303772 -3.2761688c1.8170166 0.0076293945 3.2838135 1.4867859 3.276184 3.3037872z" fill-rule="nonzero"/><path fill="#000000" fill-opacity="0.0" d="m521.516 149.80168l50.50647 -0.61813354" fill-rule="evenodd"/><path stroke="#5f7d95" stroke-width="2.0" stroke-linejoin="round" stroke-linecap="butt" d="m529.09546 149.70892l42.927002 -0.52537537" fill-rule="evenodd"/><path fill="#5f7d95" stroke="#5f7d95" stroke-width="2.0" stroke-linecap="butt" d="m522.5159 149.78944c-0.022216797 -1.8168793 1.4326172 -3.307785 3.2494507 -3.330017c1.8168945 -0.022232056 3.3078003 1.4326172 3.330017 3.2494965c0.022277832 1.8168793 -1.4325562 3.307785 -3.2494507 3.330017c-1.8168945 0.022232056 -3.3078003 -1.4326172 -3.330017 -3.2494965z" fill-rule="nonzero"/><path fill="#000000" fill-opacity="0.0" d="m207.43555 171.81674l-75.88313 55.91942" fill-rule="evenodd"/><path stroke="#5f7d95" stroke-width="2.0" stroke-linejoin="round" stroke-linecap="butt" d="m201.33344 176.31349l-69.78102 51.42267" fill-rule="evenodd"/><path fill="#5f7d95" stroke="#5f7d95" stroke-width="2.0" stroke-linecap="butt" d="m206.63052 172.40999c1.0779266 1.462738 0.7659607 3.5223694 -0.6967926 4.600281c-1.4627533 1.0779266 -3.5223694 0.7659607 -4.600296 -0.6967926c-1.0779114 -1.462738 -0.76594543 -3.5223694 0.6967926 -4.600281c1.4627533 -1.0779266 3.5223694 -0.7659607 4.600296 0.6967926z" fill-rule="nonzero"/><path fill="#000000" fill-opacity="0.0" d="m127.0226 231.91159l30.92598 -23.605011" fill-rule="evenodd"/><path stroke="#5f7d95" stroke-width="2.0" stroke-linejoin="round" stroke-linecap="butt" d="m133.04799 227.31258l24.900589 -19.005997" fill-rule="evenodd"/><path fill="#5f7d95" stroke="#5f7d95" stroke-width="2.0" stroke-linecap="butt" d="m127.817505 231.30487c-1.1024475 -1.4443665 -0.825264 -3.5089417 0.61909485 -4.611389c1.4443512 -1.1024475 3.5089417 -0.8252716 4.611389 0.61909485c1.1024475 1.4443512 0.82525635 3.5089417 -0.61909485 4.611389c-1.4443512 1.1024475 -3.5089417 0.82525635 -4.611389 -0.61909485z" fill-rule="nonzero"/><path fill="#000000" fill-opacity="0.1076" d="m412.95004 244.32956l0 0c63.765625 -36.820435 145.30673 -14.9770355 182.12717 48.788605l0 0c17.681763 30.621307 22.475098 67.01254 13.325439 101.16803c-9.149597 34.155457 -31.492676 63.277344 -62.114014 80.95914l0 0c-63.765656 36.820404 -145.30676 14.97702 -182.1272 -48.788605l0 0c-36.820435 -63.765625 -14.97702 -145.30673 48.788605 -182.12717zm21.423492 37.101227l0 0c-43.275177 24.988556 -58.099426 80.32727 -33.11087 123.60245c24.988556 43.275177 80.32727 58.099396 123.60245 33.11084l0 0c43.275146 -24.988556 58.099426 -80.32724 33.11084 -123.60242l0 0c-24.988525 -43.275177 -80.32724 -58.099426 -123.60242 -33.11087z" fill-rule="evenodd"/><path fill="#000000" fill-opacity="0.0" d="m479.2264 191.69102l-0.1802063 52.65277" fill-rule="evenodd"/><path stroke="#a1c3fa" stroke-width="2.0" stroke-linejoin="round" stroke-linecap="butt" d="m479.20047 199.27098l-0.15429688 45.072815" fill-rule="evenodd"/><path fill="#a1c3fa" stroke="#a1c3fa" stroke-width="2.0" stroke-linecap="butt" d="m479.223 192.69102c1.8170166 0.006210327 3.2849426 1.4842377 3.278717 3.301239c-0.006225586 1.8170013 -1.4842224 3.2849426 -3.301239 3.278717c-1.8170166 -0.006225586 -3.2849426 -1.4842377 -3.278717 -3.301239c0.006225586 -1.8170013 1.4842224 -3.2849426 3.301239 -3.278717z" fill-rule="nonzero"/><path fill="#000000" fill-opacity="0.0" d="m622.9589 443.67474l-39.552063 -22.836853" fill-rule="evenodd"/><path stroke="#0944a1" stroke-width="2.0" stroke-linejoin="round" stroke-linecap="butt" d="m616.39453 439.88455l-32.98767 -19.046661" fill-rule="evenodd"/><path fill="#0944a1" stroke="#0944a1" stroke-width="2.0" stroke-linecap="butt" d="m622.0929 443.1747c-0.90856934 1.5735779 -2.9207153 2.112671 -4.4942627 1.2041016c-1.5735474 -0.9085388 -2.112671 -2.9206848 -1.2041016 -4.4942627c0.90856934 -1.5735474 2.9207153 -2.1126404 4.4942627 -1.2041016c1.5735474 0.90856934 2.112671 2.9207153 1.2041016 4.4942627z" fill-rule="nonzero"/><path fill="#000000" fill-opacity="0.0" d="m337.22314 440.6419l41.878937 -24.145966" fill-rule="evenodd"/><path stroke="#307bf3" stroke-width="2.0" stroke-linejoin="round" stroke-linecap="butt" d="m343.78986 436.85577l35.312225 -20.359833" fill-rule="evenodd"/><path fill="#307bf3" stroke="#307bf3" stroke-width="2.0" stroke-linecap="butt" d="m338.08945 440.1424c-0.90756226 -1.5740967 -0.36724854 -3.585907 1.2068787 -4.4934998c1.5741272 -0.9075928 3.5859375 -0.36724854 4.4934998 1.2068787c0.9075928 1.5740967 0.36724854 3.585907 -1.2068481 4.4934998c-1.5741272 0.9075928 -3.5859375 0.36724854 -4.4935303 -1.2068787z" fill-rule="nonzero"/><path fill="#000000" fill-opacity="0.0" d="m403.29913 335.95612l151.54974 0.022735596l-0.0053710938 84.4447l-151.5498 -0.022705078z" fill-rule="evenodd"/><path fill="#869fb2" d="m434.81857 370.1032l-0.7655029 -2.109497l-5.328125 -7.9345703E-4l-0.7969971 2.109253l-3.015625 -4.5776367E-4l4.8132935 -12.436768l3.328125 4.8828125E-4l4.7804565 12.438232l-3.015625 -4.5776367E-4zm-3.4368896 -9.797394l-1.9378357 5.3591003l3.890625 5.79834E-4l-1.9527893 -5.35968zm13.373932 9.798889l6.1035156E-5 -1.140625q-1.2032166 1.3591919 -3.1719666 1.3588867q-1.484375 -2.1362305E-4 -2.203064 -0.7503357q-0.7030945 -0.75009155 -0.7030029 -2.0782166l4.272461E-4 -6.40625l2.375 3.6621094E-4l-3.6621094E-4 5.46875q-9.1552734E-5 1.65625 1.6561584 1.6564941q1.21875 1.8310547E-4 2.046936 -1.0153198l3.9672852E-4 -6.109375l2.375 3.3569336E-4l-5.79834E-4 9.015625l-2.375 -3.3569336E-4zm7.755066 0.21990967q-2.5625 -3.9672852E-4 -2.5623474 -2.4535217l3.0517578E-4 -4.703125l-1.484375 -2.1362305E-4l1.5258789E-4 -2.078125l1.484375 2.1362305E-4l1.5258789E-4 -2.453125l2.390625 3.6621094E-4l-1.5258789E-4 2.453125l1.828125 2.746582E-4l-1.5258789E-4 2.078125l-1.828125 -2.746582E-4l-2.4414062E-4 4.0625q-3.0517578E-5 0.4375 0.20306396 0.7187805q0.21875 0.26565552 0.609375 0.26571655q0.5625 9.1552734E-5 0.828125 -0.24987793l0.49987793 1.7813416q-0.6094055 0.57803345 -1.9687805 0.5778198zm7.4620667 0.0011291504q-2.09375 -3.3569336E-4 -3.4374084 -1.3442688q-1.3280334 -1.3439636 -1.3279114 -3.3908386q1.5258789E-4 -2.046875 1.3283386 -3.3747864q1.3438416 -1.3435669 3.4375916 -1.3432312q2.078125 3.0517578E-4 3.4217834 1.3442383q1.343689 1.3283386 1.3435364 3.3752136q-1.2207031E-4 2.078125 -1.3439636 3.4060364q-1.3438416 1.3279419 -3.4219666 1.3276367zm1.5258789E-4 -2.109375q1.015625 1.5258789E-4 1.6562805 -0.73413086q0.65631104 -0.73428345 0.6563721 -1.8905334q9.1552734E-5 -1.125 -0.6561279 -1.8594666q-0.64056396 -0.75009155 -1.656189 -0.75024414q-1.0 -1.5258789E-4 -1.656311 0.71847534q-0.6406555 0.71865845 -0.6407471 1.8905334q-6.1035156E-5 1.1875 0.6405029 1.9063416q0.6562195 0.7188721 1.6562195 0.71902466zm12.599182 1.8924866l3.6621094E-4 -5.453125q9.1552734E-5 -1.671875 -1.6561584 -1.6721191q-1.28125 -1.8310547E-4 -2.046936 1.0621948l-3.9672852E-4 6.0625l-2.375 -3.3569336E-4l5.79834E-4 -9.015625l2.375 3.3569336E-4l-6.1035156E-5 1.1875q0.42190552 -0.53118896 1.218811 -0.9685669q0.8125305 -0.43737793 1.9375305 -0.43719482q1.484375 2.1362305E-4 2.203064 0.7815857q0.71868896 0.76571655 0.7186279 2.0938416l-4.272461E-4 6.359375l-2.375 -3.6621094E-4zm8.911346 0.22009277q-2.09375 -3.0517578E-4 -3.4374084 -1.3442688q-1.328064 -1.3439331 -1.3279114 -3.390808q1.2207031E-4 -2.046875 1.3283386 -3.374817q1.3438416 -1.3435364 3.4375916 -1.3432312q2.078125 3.0517578E-4 3.4217834 1.3442688q1.3436584 1.3283386 1.3435364 3.3752136q-1.5258789E-4 2.078125 -1.3439636 3.4060364q-1.3438416 1.3279114 -3.4219666 1.3276062zm1.2207031E-4 -2.109375q1.015625 1.5258789E-4 1.656311 -0.73413086q0.6562805 -0.7342529 0.6563721 -1.8905029q6.1035156E-5 -1.125 -0.6561279 -1.8594971q-0.6405945 -0.75009155 -1.6562195 -0.75024414q-1.0 -1.5258789E-4 -1.6562805 0.71850586q-0.64068604 0.71865845 -0.6407471 1.8905334q-9.1552734E-5 1.1875 0.6405029 1.9063416q0.65618896 0.71884155 1.656189 0.71899414zm17.692963 1.89328l3.6621094E-4 -5.6875q9.1552734E-5 -1.4375 -1.3436584 -1.4376831q-0.625 -1.2207031E-4 -1.1094055 0.3435669q-0.48440552 0.32806396 -0.75006104 0.7030029l-3.6621094E-4 6.078125l-2.390625 -3.3569336E-4l3.6621094E-4 -5.6875q9.1552734E-5 -1.4375 -1.3436584 -1.4377136q-0.609375 -9.1552734E-5 -1.1094055 0.3435974q-0.48440552 0.34365845 -0.75006104 0.7186279l-3.6621094E-4 6.0625l-2.375 -3.6621094E-4l5.79834E-4 -9.015625l2.375 3.6621094E-4l-9.1552734E-5 1.1875q0.31253052 -0.5155945 1.171936 -0.9529419q0.8750305 -0.45300293 1.7812805 -0.45288086q1.953125 3.0517578E-4 2.4999084 1.6410217q0.42190552 -0.68743896 1.281311 -1.1560669q0.8594055 -0.48425293 1.8125305 -0.48410034q2.640625 3.9672852E-4 2.640442 2.7191467l-3.9672852E-4 6.515625l-2.390625 -3.6621094E-4zm8.910736 0.22009277q-2.09375 -3.0517578E-4 -3.4374084 -1.3442688q-1.328064 -1.3439636 -1.3279114 -3.3908386q1.2207031E-4 -2.046875 1.3283386 -3.3747864q1.3438416 -1.3435364 3.4375916 -1.3432312q2.078125 3.0517578E-4 3.4217834 1.3442688q1.343689 1.3283081 1.3435059 3.375183q-1.2207031E-4 2.078125 -1.3439331 3.406067q-1.3438416 1.3279114 -3.4219666 1.3276062zm1.2207031E-4 -2.109375q1.015625 1.5258789E-4 1.656311 -0.73413086q0.6562805 -0.73428345 0.6563721 -1.8905334q6.1035156E-5 -1.125 -0.6561279 -1.8594666q-0.6405945 -0.75009155 -1.6562195 -0.75024414q-1.0 -1.5258789E-4 -1.6562805 0.71850586q-0.64068604 0.71865845 -0.6407471 1.8905334q-9.1552734E-5 1.1875 0.6405029 1.9063416q0.65618896 0.71884155 1.656189 0.71899414zm12.599213 1.8925171l6.1035156E-5 -1.140625q-1.203186 1.3591919 -3.171936 1.3588867q-1.484375 -2.1362305E-4 -2.203125 -0.7503357q-0.70306396 -0.75009155 -0.7029419 -2.0782166l3.6621094E-4 -6.40625l2.375 3.6621094E-4l-3.0517578E-4 5.46875q-1.2207031E-4 1.65625 1.6561279 1.6564941q1.21875 1.8310547E-4 2.046936 -1.0153198l3.6621094E-4 -6.109375l2.375 3.3569336E-4l-5.493164E-4 9.015625l-2.375 -3.3569336E-4zm7.973816 0.21994019q-1.171875 -1.8310547E-4 -2.249939 -0.3597107q-1.078125 -0.3751526 -1.781189 -1.0315247l1.031311 -1.6560974q0.53125 0.50009155 1.421814 0.8595886q0.90625 0.3595276 1.6875 0.35961914q1.515625 2.4414062E-4 1.515686 -0.96850586q0 -0.375 -0.40618896 -0.56256104q-0.390625 -0.18756104 -0.96875 -0.3126526l-1.296875 -0.2658081q-2.687439 -0.5785217 -2.687317 -2.6878967q6.1035156E-5 -1.25 1.0313721 -2.0310974q1.046936 -0.7967224 2.671936 -0.7964783q2.109375 3.0517578E-4 3.624939 1.2349243l-0.9376221 1.6248474q-0.42181396 -0.43756104 -1.124939 -0.7345581q-0.703125 -0.31259155 -1.546875 -0.31271362q-0.65625 -9.1552734E-5 -1.046875 0.2654724q-0.375 0.24993896 -0.37506104 0.62493896q0 0.34375 0.390625 0.51568604q0.390625 0.15631104 0.98431396 0.2814026q0.609375 0.12509155 1.296875 0.2814331q0.6875 0.15634155 1.28125 0.4689331q0.59368896 0.31259155 0.98431396 0.8595276q0.40618896 0.54693604 0.40612793 1.453186q-6.1035156E-5 1.3125 -1.0782471 2.1092224q-1.062561 0.7810974 -2.828186 0.78082275z" fill-rule="nonzero"/><path fill="#869fb2" d="m443.3279 396.1045l7.9345703E-4 -12.4375l2.640625 3.9672852E-4l-6.4086914E-4 10.109375l5.265625 7.9345703E-4l-1.5258789E-4 2.328125l-7.90625 -0.0011901855zm13.723724 0.22079468q-2.125 -3.0517578E-4 -3.4686584 -1.3130188q-1.3436584 -1.3126831 -1.3435364 -3.422058q1.2207031E-4 -2.015625 1.3283386 -3.359192q1.3438416 -1.3591614 3.3438416 -1.3588562q1.984375 2.746582E-4 3.2499084 1.3754578q1.2655334 1.3595886 1.2654114 3.5939636l-6.1035156E-5 0.515625l-6.703125 -0.0010070801q0.10934448 0.859375 0.76553345 1.4844971q0.6718445 0.60946655 1.8280945 0.60964966q0.5625 6.1035156E-5 1.2500305 -0.2341919q0.6875 -0.23428345 1.1562805 -0.6717224l1.0467834 1.5314026q-0.67193604 0.62490845 -1.671936 0.93725586q-0.9844055 0.3123474 -2.0469055 0.31219482zm2.0784912 -5.57782q-0.062438965 -0.890625 -0.68740845 -1.4375916q-0.6093445 -0.54696655 -1.5312195 -0.5470886q-0.9375 -1.5258789E-4 -1.5312805 0.56225586q-0.5937805 0.56240845 -0.68759155 1.4217834l4.4375 6.4086914E-4zm9.410309 5.3608093l6.1035156E-5 -0.9375q-0.98443604 1.1560974 -2.843811 1.1558228q-1.3125 -2.1362305E-4 -2.2343445 -0.8284607q-0.90618896 -0.8282776 -0.9060974 -2.1564026q9.1552734E-5 -1.3125 0.8594971 -2.109253q0.87506104 -0.7967224 2.281311 -0.7965088q1.9375 2.746582E-4 2.843689 1.0941772l6.1035156E-5 -1.203125q6.1035156E-5 -0.6875 -0.54678345 -1.0938416q-0.53125 -0.42196655 -1.421875 -0.42208862q-1.5 -2.1362305E-4 -2.625061 1.0621033l-0.9061279 -1.5782471q1.6407166 -1.4216309 3.9375916 -1.4212952q1.90625 2.746582E-4 2.921814 0.89105225q1.015564 0.8751526 1.0154419 2.5157776l-3.6621094E-4 5.828125l-2.375 -3.3569336E-4zm-1.8905334 -1.3753052q1.296875 2.1362305E-4 1.890686 -0.7965698l6.1035156E-5 -1.109375q-0.59368896 -0.78134155 -1.890564 -0.7815552q-0.71875 -9.1552734E-5 -1.2187805 0.3591919q-0.48440552 0.34368896 -0.48443604 0.99993896q-6.1035156E-5 0.625 0.48431396 0.98443604q0.49996948 0.34384155 1.2187195 0.3439331zm6.614624 1.3760071l5.79834E-4 -9.015625l2.375 3.6621094E-4l-9.1552734E-5 1.234375q0.48443604 -0.59368896 1.2500916 -1.0154419q0.7812805 -0.43740845 1.6250305 -0.43725586l-1.5258789E-4 2.3125l-0.65625 -0.06262207q-0.640625 -9.1552734E-5 -1.2812805 0.3123169q-0.640625 0.29678345 -0.9375305 0.7186279l-3.9672852E-4 5.953125l-2.375 -3.6621094E-4zm12.794373 0.0019226074l3.6621094E-4 -5.453125q9.1552734E-5 -1.671875 -1.6561584 -1.6721191q-1.28125 -2.1362305E-4 -2.046936 1.0621948l-3.9672852E-4 6.0625l-2.375 -3.6621094E-4l5.79834E-4 -9.015625l2.375 3.6621094E-4l-6.1035156E-5 1.1875q0.42190552 -0.53118896 1.218811 -0.9685974q0.8125305 -0.43737793 1.9375305 -0.43719482q1.484375 2.1362305E-4 2.203064 0.7815857q0.71868896 0.76571655 0.7185974 2.0938416l-3.9672852E-4 6.359375l-2.375 -3.3569336E-4zm5.8963623 -9.98349q-0.578125 -9.1552734E-5 -0.9999695 -0.4064026q-0.40621948 -0.40631104 -0.40618896 -1.015686q3.0517578E-5 -0.59375 0.40631104 -0.98431396q0.42190552 -0.40618896 1.0000305 -0.4060974q0.609375 9.1552734E-5 1.0155945 0.4064026q0.40621948 0.39068604 0.40618896 0.98443604q-3.0517578E-5 0.609375 -0.40631104 1.015564q-0.40628052 0.40618896 -1.0156555 0.4060974zm-1.1725159 9.984192l5.79834E-4 -9.015625l2.375 3.6621094E-4l-5.79834E-4 9.015625l-2.375 -3.6621094E-4zm10.798157 0.0016174316l3.6621094E-4 -5.453125q9.1552734E-5 -1.671875 -1.6561584 -1.6721191q-1.28125 -1.8310547E-4 -2.046936 1.0621948l-3.9672852E-4 6.0625l-2.375 -3.6621094E-4l5.79834E-4 -9.015625l2.375 3.6621094E-4l-6.1035156E-5 1.1875q0.42190552 -0.53118896 1.218811 -0.9685669q0.8125305 -0.43737793 1.9375 -0.43722534q1.484375 2.4414062E-4 2.2030945 0.7815857q0.71868896 0.7657471 0.7185974 2.093872l-3.9672852E-4 6.359375l-2.375 -3.6621094E-4zm8.426727 3.6575012q-1.1875 -1.8310547E-4 -2.1093445 -0.29718018q-0.9218445 -0.2970276 -1.781189 -1.0471497l1.0626221 -1.7185974q1.0155334 1.1251526 2.8280334 1.1254272q1.171875 1.8310547E-4 1.812561 -0.60910034q0.65631104 -0.59365845 0.6563721 -1.6717834l6.1035156E-5 -0.90625q-1.1251221 1.4060974 -2.765747 1.4058533q-1.8125 -2.746582E-4 -2.9061584 -1.2348022q-1.078064 -1.2345581 -1.0779114 -3.343933q1.2207031E-4 -2.09375 1.0783386 -3.343567q1.078186 -1.2498474 2.906311 -1.2495728q1.6875 2.4414062E-4 2.7655334 1.3753967l1.2207031E-4 -1.15625l2.390625 3.6621094E-4l-5.493164E-4 8.40625q-1.2207031E-4 2.046875 -1.2658691 3.156067q-1.265686 1.1091919 -3.593811 1.1088257zm0.43789673 -5.828064q0.59375 9.1552734E-5 1.15625 -0.2966919q0.5781555 -0.29678345 0.8750305 -0.7186279l1.8310547E-4 -2.90625q-0.29681396 -0.45315552 -0.87493896 -0.7344971q-0.5624695 -0.29696655 -1.1562195 -0.2970581q-1.0 -1.2207031E-4 -1.6406555 0.65600586q-0.62506104 0.64053345 -0.6251221 1.8280334q-9.1552734E-5 1.171875 0.6248779 1.8282166q0.6405945 0.6407471 1.6405945 0.64086914z" fill-rule="nonzero"/><g filter="url(#shadowFilter-g9046d6eec0_3_0.1)"><use xlink:href="#g9046d6eec0_3_0.1" transform="matrix(1.0 0.0 0.0 1.0 0.0 1.0)"/></g><defs><filter id="shadowFilter-g9046d6eec0_3_0.1" filterUnits="userSpaceOnUse"><feGaussianBlur in="SourceAlpha" stdDeviation="2.5" result="blur"/><feComponentTransfer in="blur" color-interpolation-filters="sRGB"><feFuncR type="linear" slope="0" intercept="0.0"/><feFuncG type="linear" slope="0" intercept="0.0"/><feFuncB type="linear" slope="0" intercept="0.0"/><feFuncA type="linear" slope="0.4" intercept="0"/></feComponentTransfer></filter></defs><g id="g9046d6eec0_3_0.1"><path fill="#0944a1" d="m602.51984 289.5064l0 0c26.253174 46.090607 24.5625 103.02493 -4.3791504 147.47192c-28.94165 44.44702 -80.269165 68.93503 -132.94913 63.42917l2.5751648 -24.7276l0 0c43.404175 4.540161 85.695435 -15.641113 109.54535 -52.27475c23.849854 -36.633636 25.249573 -83.562195 3.6257324 -121.55713z" fill-rule="evenodd"/></g><g filter="url(#shadowFilter-g9046d6eec0_3_0.2)"><use xlink:href="#g9046d6eec0_3_0.2" transform="matrix(1.0 0.0 0.0 1.0 0.0 1.0)"/></g><defs><filter id="shadowFilter-g9046d6eec0_3_0.2" filterUnits="userSpaceOnUse"><feGaussianBlur in="SourceAlpha" stdDeviation="2.5" result="blur"/><feComponentTransfer in="blur" color-interpolation-filters="sRGB"><feFuncR type="linear" slope="0" intercept="0.0"/><feFuncG type="linear" slope="0" intercept="0.0"/><feFuncB type="linear" slope="0" intercept="0.0"/><feFuncA type="linear" slope="0.4" intercept="0"/></feComponentTransfer></filter></defs><g id="g9046d6eec0_3_0.2"><path fill="#a1c3fa" d="m603.3223 290.7798l0 0c-24.30664 -43.586075 -69.8103 -71.109665 -119.6991 -72.401794c-49.888763 -1.2921448 -96.756195 23.839005 -123.28653 66.10837l22.444885 14.087524c21.552734 -34.338806 59.626892 -54.75482 100.15555 -53.705124c40.528625 1.0497131 77.49487 23.409317 97.24115 58.817764z" fill-rule="evenodd"/></g><path fill="#a1c3fa" d="m604.45636 318.43756l-36.8255 -9.864899l46.69043 -26.960632z" fill-rule="evenodd"/><g filter="url(#shadowFilter-g9046d6eec0_3_0.3)"><use xlink:href="#g9046d6eec0_3_0.3" transform="matrix(1.0 0.0 0.0 1.0 0.0 1.0)"/></g><defs><filter id="shadowFilter-g9046d6eec0_3_0.3" filterUnits="userSpaceOnUse"><feGaussianBlur in="SourceAlpha" stdDeviation="2.5" result="blur"/><feComponentTransfer in="blur" color-interpolation-filters="sRGB"><feFuncR type="linear" slope="0" intercept="0.0"/><feFuncG type="linear" slope="0" intercept="0.0"/><feFuncB type="linear" slope="0" intercept="0.0"/><feFuncA type="linear" slope="0.4" intercept="0"/></feComponentTransfer></filter></defs><g id="g9046d6eec0_3_0.3"><path fill="#307bf3" d="m359.52612 285.81567l0 0c-26.217712 42.98346 -27.56488 96.67514 -3.5358276 140.91934c24.029083 44.24417 69.79874 72.34665 120.1272 73.75778l0.74520874 -26.578247l0 0c-40.851593 -1.1454163 -78.00284 -23.956177 -97.50723 -59.8692c-19.504395 -35.912994 -18.410889 -79.49454 2.8700256 -114.38422z" fill-rule="evenodd"/></g><path fill="#0944a1" d="m453.68066 488.44684l23.211365 -23.221832l0.010437012 46.433197z" fill-rule="evenodd"/><path fill="#307bf3" d="m383.37326 270.55307l9.237457 37.032227l-46.269684 -27.79477z" fill-rule="evenodd"/></g></svg>