<svg viewBox="0 0 900 405" fill="none" xmlns="http://www.w3.org/2000/svg"><path d="M431.774 60.395V49.333h-3.937v-1.375h9.437v1.375h-3.953v11.062h-1.547zm5.923 0V51.38h1.39v1.454c.834-1.094 1.834-1.641 3-1.641v1.438l-.546-.047c-.428 0-.896.15-1.407.453-.51.302-.859.63-1.047.984v6.375h-1.39zm11.781 0v-1.031c-.76.833-1.755 1.25-2.984 1.25-.906 0-1.661-.287-2.266-.86-.593-.572-.89-1.28-.89-2.124 0-.865.297-1.573.89-2.126.594-.562 1.349-.843 2.266-.843 1.292 0 2.286.411 2.984 1.234V54.27c0-.604-.213-1.068-.64-1.39-.427-.334-.974-.5-1.641-.5-1.052 0-1.969.416-2.75 1.25l-.656-.985c.958-.99 2.156-1.484 3.594-1.484 1.114 0 1.974.27 2.578.812.614.532.922 1.276.922 2.235v6.187h-1.407zm-2.484-.781c1.115 0 1.943-.375 2.484-1.125V56.8c-.541-.75-1.369-1.125-2.484-1.125-.656 0-1.193.183-1.609.547-.407.365-.61.839-.61 1.422 0 .573.203 1.047.61 1.422.416.365.953.547 1.609.547zm7.379-9.516a.928.928 0 01-.657-.265.919.919 0 01-.281-.672c0-.26.094-.485.281-.672a.902.902 0 01.657-.281c.26 0 .484.093.672.28a.919.919 0 01.281.673c0 .26-.094.484-.281.672a.946.946 0 01-.672.265zm-.688 10.297V51.38h1.391v9.016h-1.391zm10.276 0v-5.89c0-.803-.187-1.35-.562-1.641-.365-.302-.849-.453-1.454-.453-.52 0-1.036.14-1.546.422-.5.28-.875.609-1.125.984v6.578h-1.391V51.38h1.391v1.313a4.509 4.509 0 011.421-1.094 3.881 3.881 0 011.782-.437c1.916 0 2.875.968 2.875 2.906v6.328h-1.391zM637.988 58.41V45.973h4.25c1.896 0 3.432.588 4.609 1.765 1.188 1.167 1.781 2.651 1.781 4.453 0 1.823-.593 3.318-1.781 4.485-1.187 1.156-2.724 1.734-4.609 1.734h-4.25zm4.25-1.375c1.417 0 2.568-.442 3.453-1.328.885-.896 1.328-2.068 1.328-3.516 0-1.437-.437-2.604-1.312-3.5-.865-.895-2.021-1.343-3.469-1.343h-2.703v9.687h2.703zm12.825 1.594c-1.354 0-2.458-.438-3.313-1.313-.854-.885-1.281-2.026-1.281-3.421 0-1.334.422-2.454 1.266-3.36.854-.906 1.911-1.36 3.172-1.36 1.291 0 2.333.449 3.125 1.345.802.895 1.203 2.057 1.203 3.484v.36h-7.297c.052.916.385 1.666 1 2.25.614.572 1.364.859 2.25.859 1.094 0 2.021-.38 2.781-1.14l.672.921c-.917.917-2.109 1.375-3.578 1.375zm2.797-5.297c0-.833-.276-1.541-.828-2.125-.542-.583-1.256-.875-2.141-.875-.833 0-1.526.292-2.078.875-.552.584-.844 1.292-.875 2.125h5.922zm3.644 5.078V45.973h1.39V58.41h-1.39zm4.885-10.297a.924.924 0 01-.656-.265.916.916 0 01-.282-.672c0-.26.094-.485.282-.672a.898.898 0 01.656-.281c.26 0 .484.093.672.281a.919.919 0 01.281.672c0 .26-.094.484-.281.672a.946.946 0 01-.672.265zm-.688 10.297v-9.015h1.391v9.015h-1.391zm6.604 0l-3.75-9.015h1.5l3.016 7.39 2.984-7.39h1.516l-3.75 9.015h-1.516zm10.798.219c-1.354 0-2.458-.438-3.312-1.313-.854-.885-1.282-2.026-1.282-3.421 0-1.334.422-2.454 1.266-3.36.854-.906 1.912-1.36 3.172-1.36 1.292 0 2.333.449 3.125 1.345.802.895 1.203 2.057 1.203 3.484v.36h-7.297c.052.916.386 1.666 1 2.25.615.572 1.365.859 2.25.859 1.094 0 2.021-.38 2.781-1.14l.672.921c-.916.917-2.109 1.375-3.578 1.375zm2.797-5.297c0-.833-.276-1.541-.828-2.125-.542-.583-1.255-.875-2.141-.875-.833 0-1.526.292-2.078.875-.552.584-.844 1.292-.875 2.125h5.922zm3.644 5.078v-9.015h1.391v1.453c.833-1.094 1.833-1.64 3-1.64v1.437l-.547-.047c-.427 0-.896.15-1.406.453-.511.302-.86.63-1.047.984v6.375h-1.391z" fill="#0A2C61"/><path fill-rule="evenodd" clip-rule="evenodd" d="M683.475 6.881c.353.091.596.249.903.516.172.42.258.818.08 1.149-1.06 3.014-2.492 5.656-4.516 8.046l-5.783-9.667c2.964-.552 6.165-.572 9.316-.044zm-24.074 4.796c-1.023 1.052-2.159 2.171-3.051 3.445-.49-.16-.985-.308-1.481-.435-.993-.256-1.992-.43-2.993-.437.267-.307.71-.57.932-.7 2.104-1.242 4.252-1.912 6.593-1.873zm12.392-4.326l6.479 10.974c-4.626 4.824-10.917 7.714-17.74 7.932l-4.21-7.007c3.462-5.783 9.055-9.98 15.471-11.9zm-17.358 13.388l3.926 6.65-1.846 1.688-4.516-7.65 2.436-.688zm-2.839 4.815l1.136 1.796c-.533.239-1.264.519-1.971.713-1.017.302-1.813.473-2.102.494.29-.397.692-.857 1.448-1.602.621-.592 1.11-1.03 1.489-1.401zm16.942 1.73a12.234 12.234 0 01-5.798 5.368c.738-1.406 1.101-2.816 1.288-4.271 1.634-.146 3.161-.597 4.51-1.097zm15.758-22.742a2.615 2.615 0 00-.295-.061c-2.977-.487-5.867-.572-8.896-.132-2.807.312-5.683 1.263-8.429 2.435-1.596.717-3.234 1.61-4.633 2.662-3.484-.71-7.241.014-10.367 1.933-1.53.829-2.886 2.076-4.064 3.372-.38.373-.34.947-.165 1.368.195.331.525.511.701.557.266.068.353.09.552.047 1.794-.386 3.689-.285 5.449.168.193.05.386.102.576.163-.2.417-.38.747-.581 1.166l-4.358 1.226c-.733.282-1.136 1.118-.631 1.717l1.178 1.995c-.71.569-1.579 1.38-2.444 2.193-.692.854-1.313 1.446-1.625 1.93-.648 1.056-.766 1.87-.283 2.558.27.457.695.695 1.187.822.344.089.72.123 1.1.143.773-.081 1.482-.275 2.5-.576 1.107-.28 2.147-.67 3.098-1.082l1.245 2.105c.171.295.447.485.741.56.375.098.782.011 1.067-.282l3.177-3.221c.466.024.84.028 1.328-.034a12.551 12.551 0 01-2.623 5.431c-.29.397-.339.948-.077 1.392.115.28.421.484.754.57.165.042.341.055.501.033 1.704-.405 3.364-1.013 4.916-1.929 3.212-1.896 5.552-4.772 6.704-8.142 1.615-.805 3.145-1.634 4.588-2.858 2.443-1.817 4.553-3.81 6.269-6.095 1.828-2.348 3.196-5.099 4.186-7.851.424-.547.431-1.674-.18-2.583-.531-.9-1.296-1.476-2.166-1.7z" fill="#5F7D95"/><path fill-rule="evenodd" clip-rule="evenodd" d="M669.328 14.374c.615.159 1.176.54 1.502 1.094.632 1.196.269 2.606-.84 3.26-.553.329-1.228.39-1.844.232-.618-.16-1.177-.539-1.505-1.095-.654-1.108-.269-2.605.84-3.26.556-.328 1.228-.39 1.847-.23zm.573-2.32c-1.169-.3-2.478-.142-3.685.534-2.219 1.308-2.991 4.305-1.68 6.522.655 1.109 1.73 1.857 2.919 2.163 1.192.307 2.495.172 3.603-.483 2.217-1.308 2.989-4.305 1.68-6.522-.643-1.153-1.67-1.913-2.837-2.213zM674.56 315.942l-8.138 3.93v8.047l8.138-4.115v-7.862zM664.318 331.117l-6.033 3.111v10.605l6.033-3.474v-10.242zM656.273 315.942v7.862l8.045 4.115v-8.047l-8.045-3.93zM654.991 325.359l-5.941 3.016 8.228 4.115 5.85-3.018-8.137-4.113zM666.422 331.117v10.242l6.034 3.474v-10.605l-6.034-3.111zM675.746 325.359l-8.044 4.113 5.758 3.018 8.32-4.115-6.034-3.016zM648.043 330.113v9.6c0 .273.183.639.548.914l7.589 4.206v-10.605l-8.137-4.115zM682.787 330.113l-8.138 4.115v10.605l7.497-4.206c.365-.275.641-.641.641-.914v-9.6zM665.38 310.112c-.148 0-.284.023-.421.069l-7.681 3.93 8.137 4.115 8.137-4.115-7.678-3.93a2.037 2.037 0 00-.494-.069z" fill="#5F7D95"/><path d="M628.021 367.666c-1.823 0-3.344-.599-4.563-1.797-1.219-1.208-1.828-2.755-1.828-4.64 0-1.875.609-3.417 1.828-4.625 1.219-1.209 2.74-1.813 4.563-1.813 1.979 0 3.557.823 4.734 2.469l-1.312.734a4.169 4.169 0 00-1.454-1.296 3.91 3.91 0 00-1.968-.516c-1.375 0-2.516.479-3.422 1.437-.906.959-1.36 2.162-1.36 3.61 0 1.469.448 2.682 1.344 3.64.906.948 2.052 1.422 3.438 1.422a4 4 0 001.968-.5 4.311 4.311 0 001.454-1.312l1.328.734c-1.209 1.636-2.792 2.453-4.75 2.453zm12.299-.218v-1.032c-.761.834-1.755 1.25-2.985 1.25-.906 0-1.661-.286-2.265-.859-.594-.573-.891-1.281-.891-2.125 0-.865.297-1.573.891-2.125.594-.563 1.349-.844 2.265-.844 1.292 0 2.287.412 2.985 1.235v-1.625c0-.605-.214-1.068-.641-1.391-.427-.333-.974-.5-1.64-.5-1.053 0-1.969.417-2.75 1.25l-.657-.984c.959-.99 2.157-1.485 3.594-1.485 1.115 0 1.974.271 2.578.813.615.531.922 1.276.922 2.234v6.188h-1.406zm-2.485-.782c1.115 0 1.943-.375 2.485-1.125v-1.687c-.542-.75-1.37-1.125-2.485-1.125-.656 0-1.192.182-1.609.547-.406.364-.609.838-.609 1.422 0 .572.203 1.046.609 1.421.417.365.953.547 1.609.547zm8.957 1c-1.333 0-2-.703-2-2.109v-5.891h-1.484v-1.234h1.484v-2.453h1.407v2.453h1.828v1.234h-1.828v5.594c0 .344.072.625.218.844.157.208.391.312.703.312.386 0 .698-.125.938-.375l.422 1.047c-.386.386-.948.578-1.688.578zm7.282 0c-1.354 0-2.458-.437-3.312-1.312-.855-.886-1.282-2.026-1.282-3.422 0-1.333.422-2.453 1.266-3.359.854-.907 1.911-1.36 3.172-1.36 1.292 0 2.333.448 3.125 1.344.802.896 1.203 2.057 1.203 3.484v.36h-7.297c.052.916.386 1.666 1 2.25.615.573 1.365.859 2.25.859 1.094 0 2.021-.38 2.781-1.141l.672.922c-.916.917-2.109 1.375-3.578 1.375zm2.797-5.297c0-.833-.276-1.541-.828-2.125-.542-.583-1.255-.875-2.141-.875-.833 0-1.526.292-2.078.875-.552.584-.844 1.292-.875 2.125h5.922zm7.253 8.735c-.77 0-1.437-.094-2-.281-.552-.188-1.099-.542-1.64-1.063l.719-1.047c.375.448.791.766 1.25.953.468.188 1.026.282 1.671.282.928 0 1.641-.24 2.141-.719s.75-1.141.75-1.985v-1.296c-.323.468-.75.854-1.281 1.156a3.396 3.396 0 01-1.735.453c-1.218 0-2.192-.427-2.921-1.281-.73-.865-1.094-1.99-1.094-3.375 0-1.448.37-2.589 1.109-3.422.74-.844 1.709-1.266 2.906-1.266 1.24 0 2.245.526 3.016 1.578v-1.359h1.406v8.75c0 1.271-.375 2.24-1.125 2.906-.739.677-1.797 1.016-3.172 1.016zm.204-4.781a3.15 3.15 0 001.515-.407c.511-.271.901-.625 1.172-1.062v-3.938c-.271-.437-.661-.786-1.172-1.047-.51-.27-1.015-.406-1.515-.406-.875 0-1.579.318-2.11.953-.521.636-.781 1.464-.781 2.485 0 1.031.266 1.859.797 2.484.541.625 1.239.938 2.094.938zm10.818 1.343c-1.302 0-2.37-.442-3.203-1.328-.834-.885-1.25-2.021-1.25-3.406 0-1.396.416-2.531 1.25-3.406.833-.875 1.901-1.313 3.203-1.313 1.312 0 2.385.438 3.218 1.313.834.875 1.25 2.01 1.25 3.406 0 1.385-.416 2.521-1.25 3.406-.833.886-1.906 1.328-3.218 1.328zm0-1.25c.875 0 1.593-.323 2.156-.968.562-.657.844-1.495.844-2.516 0-1.01-.282-1.839-.844-2.484-.563-.657-1.281-.985-2.156-.985-.865 0-1.584.323-2.157.969-.562.646-.843 1.479-.843 2.5 0 1.031.281 1.87.843 2.516.563.645 1.282.968 2.157.968zm6.749 1.032v-9.016h1.391v1.453c.833-1.094 1.833-1.641 3-1.641v1.438l-.547-.047c-.427 0-.896.151-1.406.453-.511.302-.86.63-1.047.985v6.375h-1.391zm6.844-10.297a.925.925 0 01-.656-.266.913.913 0 01-.281-.672c0-.26.093-.484.281-.672a.9.9 0 01.656-.281c.261 0 .485.094.672.281a.917.917 0 01.281.672.913.913 0 01-.281.672.944.944 0 01-.672.266zm-.687 10.297v-9.016h1.39v9.016h-1.39zm3.76 0v-1.079l4.969-6.703h-4.969v-1.234h6.797v1.062l-5 6.735h5.062v1.219h-6.859zm13.306.218c-1.355 0-2.459-.437-3.313-1.312-.854-.886-1.281-2.026-1.281-3.422 0-1.333.422-2.453 1.265-3.359.855-.907 1.912-1.36 3.172-1.36 1.292 0 2.334.448 3.125 1.344.802.896 1.203 2.057 1.203 3.484v.36h-7.296c.052.916.385 1.666 1 2.25.614.573 1.364.859 2.25.859 1.093 0 2.02-.38 2.781-1.141l.672.922c-.917.917-2.11 1.375-3.578 1.375zm2.796-5.297c0-.833-.276-1.541-.828-2.125-.541-.583-1.255-.875-2.14-.875-.834 0-1.526.292-2.078.875-.552.584-.844 1.292-.875 2.125h5.921z" fill="#0A2C61"/><path fill-rule="evenodd" clip-rule="evenodd" d="M223.938 310.026c-.183 0-.342.047-.432.137l-16.368 10.331c-.366.183-.456.459-.456.914 0 .276.183.642.456.915l16.185 10.151c.183.09.366.09.638.09.183 0 .276 0 .549-.09l16.368-10.151c.273-.273.455-.456.455-.915 0-.365-.272-.731-.455-.914l-16.368-10.331a1.333 1.333 0 00-.572-.137z" fill="#5F7D95"/><path fill-rule="evenodd" clip-rule="evenodd" d="M208.601 331.833l-1.553 1.007c-.366.183-.459.455-.459.914 0 .366.183.638.459.914l16.365 10.239c.093.182.276.182.548.182.183 0 .366 0 .549-.182l16.368-10.239c.365-.276.455-.458.455-.914 0-.366-.272-.731-.455-.914l-1.646-1.007-14.722 9.141c-.09.093-.366.093-.549.093-.272 0-.365 0-.548-.093l-14.812-9.141z" fill="#5F7D95"/><path fill-rule="evenodd" clip-rule="evenodd" d="M208.601 325.706l-1.553 1.097c-.366.183-.459.459-.459.915 0 .458.183.641.459.914l16.365 10.148c.093.093.276.093.548.093.183 0 .366 0 .549-.093l16.368-10.148c.365-.273.455-.456.455-.914 0-.456-.272-.732-.455-.915l-1.646-1.097-14.722 9.328c-.09.09-.366.09-.549.09-.272 0-.365 0-.548-.09l-14.812-9.328z" fill="#5F7D95"/><path d="M193.764 367.534l-1.094-2.765h-6.187l-1.11 2.765h-1.765l5-12.437h1.921l5.016 12.437h-1.781zm-4.188-10.844l-2.656 6.704h5.281l-2.625-6.704zm13.396 10.844v-1.265c-.354.395-.813.744-1.375 1.046a3.883 3.883 0 01-1.844.438c-1.906 0-2.859-.958-2.859-2.875v-6.359h1.39v5.937c0 .708.162 1.229.485 1.563.323.322.833.484 1.531.484a3.09 3.09 0 001.547-.406c.489-.271.864-.589 1.125-.953v-6.625h1.39v9.015h-1.39zm7.811 3.656c-.771 0-1.438-.093-2-.281-.552-.187-1.099-.541-1.641-1.062l.719-1.047c.375.448.792.765 1.25.953.469.187 1.026.281 1.672.281.927 0 1.64-.239 2.14-.719.5-.479.75-1.14.75-1.984v-1.297c-.323.469-.75.854-1.281 1.156a3.386 3.386 0 01-1.734.454c-1.219 0-2.193-.428-2.922-1.282-.729-.864-1.094-1.989-1.094-3.375 0-1.448.37-2.588 1.109-3.422.74-.843 1.709-1.265 2.907-1.265 1.239 0 2.245.526 3.015 1.578v-1.359h1.407v8.75c0 1.27-.375 2.239-1.125 2.906-.74.677-1.797 1.015-3.172 1.015zm.203-4.781a3.15 3.15 0 001.515-.406c.511-.271.902-.625 1.172-1.063v-3.937c-.27-.438-.661-.787-1.172-1.047-.51-.271-1.015-.406-1.515-.406-.875 0-1.578.318-2.11.953-.52.635-.781 1.463-.781 2.484 0 1.032.266 1.86.797 2.485.542.625 1.24.937 2.094.937zm17.771 1.125v-6.125c0-1.239-.557-1.859-1.672-1.859-.469 0-.927.14-1.375.422-.437.281-.771.599-1 .953v6.609h-1.406v-6.125c0-1.239-.552-1.859-1.656-1.859-.459 0-.907.146-1.344.437a3.556 3.556 0 00-1.031.969v6.578h-1.391v-9.015h1.391v1.312c.208-.365.604-.708 1.187-1.031.594-.334 1.167-.5 1.719-.5.698 0 1.239.161 1.625.484.396.323.667.719.812 1.188.302-.479.74-.875 1.313-1.188.573-.323 1.141-.484 1.703-.484 1.677 0 2.516.906 2.516 2.719v6.515h-1.391zm8.262.219c-1.354 0-2.459-.438-3.313-1.313-.854-.885-1.281-2.026-1.281-3.421 0-1.334.422-2.454 1.266-3.36.854-.906 1.911-1.359 3.172-1.359 1.291 0 2.333.448 3.125 1.344.802.895 1.203 2.057 1.203 3.484v.359h-7.297c.052.917.385 1.667 1 2.25.614.573 1.364.86 2.25.86 1.094 0 2.021-.381 2.781-1.141l.672.922c-.917.917-2.109 1.375-3.578 1.375zm2.797-5.297c0-.833-.276-1.542-.828-2.125-.542-.583-1.256-.875-2.141-.875-.833 0-1.526.292-2.078.875-.552.583-.844 1.292-.875 2.125h5.922zm9.722 5.078v-5.89c0-.803-.188-1.349-.563-1.641-.364-.302-.849-.453-1.453-.453-.521 0-1.036.14-1.547.422-.5.281-.875.609-1.125.984v6.578h-1.39v-9.015h1.39v1.312c.386-.448.86-.812 1.422-1.094a3.888 3.888 0 011.781-.437c1.917 0 2.875.969 2.875 2.906v6.328h-1.39zm6.467.219c-1.333 0-2-.703-2-2.109v-5.891h-1.484v-1.234h1.484v-2.454h1.406v2.454h1.828v1.234h-1.828v5.594c0 .343.073.625.219.843.156.209.391.313.703.313.386 0 .698-.125.938-.375l.421 1.047c-.385.385-.947.578-1.687.578zM204.88 58.63c-1.823 0-3.344-.6-4.563-1.797-1.218-1.209-1.828-2.755-1.828-4.64 0-1.876.61-3.418 1.828-4.626 1.219-1.208 2.74-1.812 4.563-1.812 1.979 0 3.557.822 4.734 2.468l-1.312.735a4.177 4.177 0 00-1.453-1.297 3.918 3.918 0 00-1.969-.516c-1.375 0-2.516.48-3.422 1.438-.906.958-1.359 2.161-1.359 3.61 0 1.468.447 2.681 1.343 3.64.907.948 2.052 1.422 3.438 1.422.708 0 1.364-.167 1.969-.5a4.325 4.325 0 001.453-1.313l1.328.734c-1.209 1.636-2.792 2.454-4.75 2.454zm10.596 0c-1.302 0-2.37-.443-3.203-1.329-.834-.885-1.25-2.02-1.25-3.406 0-1.396.416-2.531 1.25-3.406.833-.875 1.901-1.313 3.203-1.313 1.312 0 2.385.438 3.219 1.313.833.875 1.25 2.01 1.25 3.406 0 1.386-.417 2.521-1.25 3.406-.834.886-1.907 1.329-3.219 1.329zm0-1.25c.875 0 1.594-.323 2.156-.97.563-.655.844-1.494.844-2.515 0-1.01-.281-1.838-.844-2.484-.562-.656-1.281-.985-2.156-.985-.865 0-1.584.323-2.156.97-.563.645-.844 1.478-.844 2.5 0 1.03.281 1.869.844 2.515.562.646 1.281.969 2.156.969zm6.749 1.03V45.974h1.391v12.438h-1.391zm4.198 0V45.974h1.391v12.438h-1.391zm8.26.22c-1.354 0-2.458-.438-3.312-1.313-.855-.885-1.282-2.026-1.282-3.422 0-1.333.422-2.453 1.266-3.36.854-.905 1.911-1.359 3.172-1.359 1.292 0 2.333.448 3.125 1.344.802.896 1.203 2.057 1.203 3.485v.359h-7.297c.052.917.386 1.667 1 2.25.615.573 1.365.86 2.25.86 1.094 0 2.021-.38 2.781-1.141l.672.922c-.916.916-2.109 1.375-3.578 1.375zm2.797-5.297c0-.834-.276-1.542-.828-2.125-.542-.584-1.255-.875-2.141-.875-.833 0-1.526.291-2.078.875-.552.583-.844 1.291-.875 2.125h5.922zm7.613 5.297c-1.323 0-2.406-.448-3.25-1.344-.834-.896-1.25-2.026-1.25-3.39 0-1.355.416-2.48 1.25-3.376.844-.896 1.927-1.344 3.25-1.344 1.396 0 2.495.521 3.297 1.563l-.922.86c-.573-.782-1.339-1.173-2.297-1.173-.927 0-1.682.323-2.266.97-.573.635-.859 1.468-.859 2.5 0 1.04.286 1.885.859 2.53.573.636 1.328.954 2.266.954.937 0 1.703-.391 2.297-1.172l.922.86c-.802 1.04-1.901 1.562-3.297 1.562zm7.532 0c-1.334 0-2-.704-2-2.11v-5.89h-1.485v-1.235h1.485v-2.453h1.406v2.453h1.828v1.235h-1.828v5.593c0 .344.073.625.219.844.156.208.39.313.703.313.385 0 .698-.125.937-.375l.422 1.046c-.385.386-.948.579-1.687.579z" fill="#0A2C61"/><path fill-rule="evenodd" clip-rule="evenodd" d="M208.571 12.95v15.085l4.113-2.011v-10.97l-4.113-2.104zM226.033 17.43a3.08 3.08 0 00-3.108 3.109c0 1.645 1.37 3.018 3.108 3.018 1.739 0 3.108-1.372 3.108-3.018 0-1.738-1.462-3.108-3.108-3.108zM243.405 12.95l-4.115 2.104v10.97l4.115 2.011V12.95z" fill="#5F7D95"/><path fill-rule="evenodd" clip-rule="evenodd" d="M226.033 11.395c5.03 0 9.142 4.115 9.142 9.144 0 5.03-4.112 9.142-9.142 9.142-5.029 0-9.144-4.113-9.144-9.142 0-5.03 4.115-9.145 9.144-9.145zm-12.342-6.217c-.549 0-1.007.459-1.007 1.097v1.007h-1.005a3.08 3.08 0 00-3.108 3.108v.273l5.575 2.743c.366.275.642.641.642.917v12.25c0 .365-.276.73-.642.914l-5.575 2.742v.366a3.083 3.083 0 003.108 3.11h28.708c1.646 0 3.018-1.372 3.018-3.11v-.366l-5.578-2.742a1.006 1.006 0 01-.548-.915v-12.25c0-.275.183-.64.548-.916l5.578-2.743v-.273a3.082 3.082 0 00-3.108-3.108h-25.509V6.275c0-.638-.459-1.097-1.097-1.097z" fill="#5F7D95"/><path fill-rule="evenodd" clip-rule="evenodd" d="M226.033 15.237c2.836 0 5.119 2.284 5.119 5.21-.089 2.834-2.376 5.121-5.119 5.121a5.112 5.112 0 01-5.119-5.122c0-2.925 2.284-5.21 5.119-5.21zm0-1.921c-3.839 0-7.04 3.2-7.04 7.13 0 3.842 3.201 7.04 7.04 7.04 3.932 0 7.131-3.198 7.131-7.04 0-3.93-3.199-7.13-7.131-7.13zM221.918 3.167c-.366 0-.638.183-.914.549l-.639 1.462h11.429l-.824-1.462a1.007 1.007 0 00-.915-.549h-8.137zM457.242 7.236c.549 0 1.004.456 1.004 1.005v20.39c0 .548-.455 1.004-1.004 1.004h-20.3c-.639 0-1.004-.456-1.004-1.004V8.24c0-.549.365-1.005 1.004-1.005h20.3zM438.773.927c-.548 0-1.007.456-1.007 1.004v3.111h-1.097c-1.645 0-3.018 1.37-3.018 3.109v1.004h-3.108c-.549 0-1.004.458-1.004 1.007 0 .548.455 1.004 1.004 1.004h3.108v2.104h-3.108c-.549 0-1.004.458-1.004 1.007 0 .638.455 1.097 1.004 1.097h3.108v2.011h-3.108c-.549 0-1.004.456-1.004 1.004 0 .642.455 1.097 1.004 1.097h3.108V21.5h-3.108c-.549 0-1.004.456-1.004 1.004 0 .642.455 1.097 1.004 1.097h3.108v2.012h-3.108c-.549 0-1.004.458-1.004 1.006 0 .639.455 1.098 1.004 1.098h3.108v1.004c0 1.738 1.373 3.11 3.018 3.11h1.097v3.016c0 .641.459 1.097 1.007 1.097.549 0 1.004-.456 1.004-1.097v-3.291h2.104v3.108c0 .549.456 1.007 1.004 1.007.549 0 1.007-.458 1.007-1.007v-3.108h2.101v3.108c0 .549.459 1.007 1.008 1.007.548 0 1.007-.458 1.007-1.007v-3.108h2.101v3.108c0 .549.458 1.007 1.007 1.007.548 0 1.004-.458 1.004-1.007v-3.108h2.104v3.108c0 .549.455 1.007 1.004 1.007.548 0 1.007-.458 1.007-1.007v-3.108h1.007a3.084 3.084 0 003.108-3.108V27.44h3.108c.549 0 1.004-.456 1.004-1.004 0-.549-.455-1.007-1.004-1.007h-3.108v-2.102h3.108c.549 0 1.004-.458 1.004-1.006 0-.639-.455-1.098-1.004-1.098h-3.108v-2.01h3.108c.549 0 1.004-.46 1.004-1.008 0-.638-.455-1.097-1.004-1.097h-3.108V15.1h3.108v.275c.549 0 1.004-.459 1.004-1.097 0-.549-.455-1.007-1.004-1.007h-3.108v-2.104h3.108c.549 0 1.004-.456 1.004-1.004 0-.549-.455-1.007-1.004-1.007h-3.108V8.15a3.083 3.083 0 00-3.108-3.109h-1.007v-3.11c0-.55-.459-1.005-1.007-1.005-.549 0-1.004.456-1.004 1.004v3.111h-2.104v-3.11c0-.55-.456-1.005-1.004-1.005-.549 0-1.007.456-1.007 1.004v3.111h-2.101v-3.11c0-.55-.459-1.005-1.007-1.005-.549 0-1.008.456-1.008 1.004v3.111h-2.101v-3.11c0-.55-.458-1.005-1.007-1.005-.548 0-1.004.456-1.004 1.004v3.111h-2.104v-3.11c0-.55-.455-1.005-1.004-1.005z" fill="#5F7D95"/><path fill-rule="evenodd" clip-rule="evenodd" d="M438.956 9.155c-.549 0-1.007.458-1.007 1.007 0 .638.458 1.097 1.007 1.097.548 0 1.004-.459 1.004-1.097 0-.549-.456-1.007-1.004-1.007zM438.956 25.523c-.549 0-1.007.455-1.007 1.004 0 .548.458 1.007 1.007 1.007.548 0 1.004-.459 1.004-1.007 0-.549-.456-1.005-1.004-1.005zM455.321 25.523c-.549 0-1.007.455-1.007 1.004 0 .548.458 1.007 1.007 1.007.548 0 1.007-.459 1.007-1.007 0-.549-.459-1.005-1.007-1.005zM455.321 9.155c-.549 0-1.007.458-1.007 1.007 0 .548.458 1.097 1.007 1.097.548 0 1.007-.549 1.007-1.097 0-.549-.459-1.007-1.007-1.007zM448.098 12.356v.365c0 .459.275.825.731.915.548.182 1.097.548 1.555.914.23.116.5.232.758.232.148 0 .296-.04.429-.14l.366-.182 1.007 1.645-.366.273c-.365.183-.548.641-.458 1.007a6.025 6.025 0 010 1.828c-.09.456.093.822.458 1.005l.366.275-1.007 1.646-.366-.183a1.192 1.192 0 00-.531-.128c-.226 0-.455.067-.656.22-.458.456-1.007.732-1.555.915-.456.183-.731.638-.731.914v.366h-2.012v-.366c0-.458-.275-.731-.731-.914-.548-.183-1.097-.549-1.555-.914-.23-.116-.5-.232-.758-.232a.689.689 0 00-.429.139l-.366.183-1.007-1.646.366-.275c.365-.183.548-.639.458-1.005a6.025 6.025 0 010-1.828c.09-.459-.093-.824-.458-1.007l-.366-.273 1.007-1.645.366.182a.908.908 0 00.548.195c.221 0 .444-.09.639-.287.458-.456 1.007-.732 1.555-.915.456-.09.731-.548.731-.914v-.365h2.012zm-2.926-2.194c-.641 0-1.097.455-1.097 1.004v.731c-.275.093-.641.369-.914.552l-.548-.366a1.286 1.286 0 00-.473-.09c-.355 0-.712.142-.9.456l-2.011 3.563c-.273.459-.183 1.097.275 1.373l.639.366v1.097l-.639.365c-.365.183-.641.915-.275 1.37l2.011 3.567a.97.97 0 00.821.47.88.88 0 00.552-.195l.548-.275c.366.183.731.458.914.548v.642c0 .638.456 1.097 1.097 1.097h4.115c.549 0 1.004-.459 1.004-1.097v-.642c.366-.09.642-.365.915-.548l.548.276c.171.101.383.153.586.153.343 0 .671-.142.787-.43l2.101-3.566a1.16 1.16 0 00-.366-1.37l-.548-.365V17.75l.548-.366c.459-.276.642-.914.366-1.373l-2.101-3.563c-.125-.314-.502-.497-.874-.497a.957.957 0 00-.499.13l-.548.367c-.366-.183-.732-.459-.915-.552v-.731c0-.549-.455-1.004-1.004-1.004h-4.115z" fill="#5F7D95"/><path fill-rule="evenodd" clip-rule="evenodd" d="M447.093 17.292c.549 0 1.004.459 1.004 1.007 0 .549-.455 1.004-1.004 1.004a1.013 1.013 0 01-1.007-1.004c0-.548.456-1.007 1.007-1.007zm0-1.918c-1.738 0-3.111 1.37-3.111 3.015a3.086 3.086 0 003.111 3.111 3.085 3.085 0 003.109-3.11c0-1.646-1.373-3.016-3.109-3.016zM448.841 194.727v3.004c0 .636.271 1.092.91 1.182 1.363.364 2.73.821 3.822 1.549.199.159.451.231.696.231.31 0 .607-.119.76-.321l2.185-2.187 2.276 2.277-2.184 2.184c-.274.364-.456 1.002-.092 1.456.82 1.274 1.366 2.548 1.548 3.915.182.546.636.91 1.182.91h3.097v3.187h-3.097c-.546 0-1 .364-1.182.91-.274 1.364-.728 2.73-1.548 3.823-.364.453-.182 1.181.092 1.545l2.184 2.095-2.276 2.277-2.185-2.095c-.164-.22-.497-.341-.835-.341-.219 0-.442.052-.621.159-1.274.821-2.459 1.367-3.822 1.638-.639.093-.91.546-.91 1.092v3.095h-3.187v-3.095c0-.546-.364-.999-1-1.092-1.277-.364-2.641-.817-3.825-1.638a1.237 1.237 0 00-1.456.182l-2.185 2.095-2.274-2.277 2.185-2.095c.364-.364.453-1.092.089-1.545-.817-1.185-1.363-2.459-1.545-3.823-.182-.546-.639-.91-1.185-.91h-3.094v-3.187h3.094c.546 0 1.003-.364 1.185-.91.271-1.367.728-2.73 1.545-3.915.364-.454.275-1.092-.089-1.456l-2.185-2.184 2.274-2.277 2.185 2.187c.205.202.496.321.791.321.231 0 .465-.072.665-.231 1.274-.728 2.548-1.367 3.825-1.549.636-.09 1-.546 1-1.182v-3.004h3.187zm-3.459-2.638c-1.366 0-2.369.999-2.369 2.366v2.184c-1.092.364-2.092.636-3.002 1.274l-1.456-1.548a2.334 2.334 0 00-1.661-.682c-.616 0-1.251.228-1.798.682l-2.276 2.276c-.91.911-.91 2.459 0 3.459l1.548 1.456c-.638.91-.913 1.913-1.277 3.005h-2.184c-1.364 0-2.366.999-2.366 2.366v3.187c0 1.364 1.002 2.366 2.366 2.366h2.184c.364 1 .639 2.092 1.277 2.913l-1.548 1.548c-.91.91-.91 2.367 0 3.366l2.276 2.277a2.383 2.383 0 001.694.682c.627 0 1.262-.228 1.765-.682l1.456-1.456c.91.546 1.91.91 3.002 1.274v2.092c0 1.366 1.003 2.458 2.369 2.458h3.184c1.367 0 2.366-1.092 2.366-2.458v-2.092c1.003-.364 2.095-.728 3.005-1.274l1.456 1.456a2.322 2.322 0 001.65.682 2.56 2.56 0 001.719-.682l2.274-2.277c.913-.91.913-2.366 0-3.366l-1.456-1.548c.546-.911.91-1.913 1.274-2.913h2.187c1.364 0 2.366-1.002 2.366-2.366v-3.187c0-1.367-1.184-2.366-2.366-2.366h-2.187c-.364-1.092-.728-2.095-1.274-3.005l1.456-1.456c.913-.91.913-2.366 0-3.459l-2.274-2.276a2.32 2.32 0 00-1.65-.682c-.603 0-1.219.228-1.719.682l-1.456 1.548c-.91-.638-2.002-.91-3.005-1.274v-2.184c0-1.367-.999-2.366-2.366-2.366h-3.184z" fill="#5F7D95"/><path fill-rule="evenodd" clip-rule="evenodd" d="M447.11 204.923c3.005 0 5.553 2.548 5.553 5.553 0 3.094-2.548 5.642-5.553 5.642-3.094 0-5.643-2.548-5.643-5.642 0-3.005 2.549-5.553 5.643-5.553zm0-2.367c-4.461 0-8.009 3.459-8.009 7.92a7.963 7.963 0 008.009 8.009c4.368 0 7.919-3.551 7.919-8.009 0-4.372-3.64-7.92-7.919-7.92z" fill="#5F7D95"/><path d="M37.903 144.635v-12.437h1.547v12.437h-1.547zm10.49 0v-5.89c0-.802-.187-1.349-.562-1.641-.365-.302-.85-.453-1.453-.453-.521 0-1.037.14-1.547.422-.5.281-.875.609-1.125.984v6.578h-1.39v-9.015h1.39v1.312c.385-.448.86-.812 1.422-1.094a3.887 3.887 0 011.78-.437c1.918 0 2.876.969 2.876 2.906v6.328h-1.39zm4.89-10.297a.926.926 0 01-.657-.265.919.919 0 01-.281-.672c0-.261.093-.485.281-.672a.897.897 0 01.656-.281c.26 0 .485.093.672.281a.916.916 0 01.281.672c0 .26-.093.484-.28.672a.944.944 0 01-.673.265zm-.688 10.297v-9.015h1.39v9.015h-1.39zm6.463.219c-1.333 0-2-.703-2-2.109v-5.891h-1.484v-1.234h1.484v-2.454h1.406v2.454h1.828v1.234h-1.828v5.594c0 .343.073.625.22.843.155.209.39.313.702.313.386 0 .698-.125.938-.375l.422 1.047c-.386.385-.948.578-1.688.578zm3.907-10.516a.926.926 0 01-.656-.265.919.919 0 01-.282-.672c0-.261.094-.485.282-.672a.897.897 0 01.656-.281c.26 0 .484.093.672.281a.916.916 0 01.281.672c0 .26-.094.484-.281.672a.944.944 0 01-.672.265zm-.688 10.297v-9.015h1.391v9.015h-1.39zm9.823 0v-1.031c-.76.833-1.755 1.25-2.984 1.25-.907 0-1.662-.286-2.266-.859-.594-.573-.89-1.282-.89-2.125 0-.865.296-1.573.89-2.125.594-.563 1.349-.844 2.266-.844 1.291 0 2.286.411 2.984 1.234v-1.625c0-.604-.213-1.067-.64-1.39-.428-.334-.974-.5-1.641-.5-1.052 0-1.969.416-2.75 1.25l-.657-.985c.959-.989 2.157-1.484 3.594-1.484 1.115 0 1.974.271 2.578.812.615.532.922 1.276.922 2.235v6.187H72.1zm-2.484-.781c1.114 0 1.942-.375 2.484-1.125v-1.688c-.542-.75-1.37-1.125-2.484-1.125-.657 0-1.193.183-1.61.547-.406.365-.61.839-.61 1.422 0 .573.204 1.047.61 1.422.417.365.953.547 1.61.547zm6.69.781v-12.437h1.392v12.437h-1.391zM44.272 166.635v-10.25l-4.235 10.25h-.64l-4.22-10.25v10.25h-1.546v-12.437h2.219l3.86 9.359 3.89-9.359h2.218v12.437h-1.546zm8.327.219c-1.302 0-2.37-.443-3.203-1.328-.834-.886-1.25-2.021-1.25-3.406 0-1.396.416-2.532 1.25-3.407.833-.875 1.9-1.312 3.203-1.312 1.312 0 2.385.437 3.219 1.312.833.875 1.25 2.011 1.25 3.407 0 1.385-.417 2.52-1.25 3.406-.834.885-1.907 1.328-3.22 1.328zm0-1.25c.875 0 1.594-.323 2.156-.969.563-.656.844-1.495.844-2.515 0-1.011-.281-1.839-.844-2.485-.562-.656-1.281-.984-2.156-.984-.865 0-1.583.323-2.156.969-.563.645-.844 1.479-.844 2.5 0 1.031.281 1.869.844 2.515.562.646 1.28.969 2.156.969zm13.265 1.031v-1.344a3.875 3.875 0 01-1.297 1.125 3.485 3.485 0 01-1.734.438c-1.209 0-2.182-.427-2.922-1.281-.73-.854-1.094-2-1.094-3.438 0-1.437.37-2.583 1.11-3.437.74-.865 1.708-1.297 2.906-1.297.604 0 1.172.14 1.703.422.531.281.974.666 1.328 1.156v-4.781h1.406v12.437h-1.406zm-2.703-1.031c.562 0 1.094-.135 1.594-.406s.87-.604 1.109-1v-4.094c-.24-.396-.61-.734-1.11-1.016a3.119 3.119 0 00-1.593-.437c-.865 0-1.563.318-2.094.953-.531.635-.797 1.479-.797 2.531 0 1.031.26 1.87.781 2.516.532.635 1.235.953 2.11.953zm10.977 1.25c-1.354 0-2.458-.438-3.312-1.313-.854-.885-1.281-2.026-1.281-3.421 0-1.334.421-2.454 1.265-3.36.854-.906 1.912-1.359 3.172-1.359 1.292 0 2.333.448 3.125 1.344.802.895 1.203 2.057 1.203 3.484v.359h-7.297c.052.917.386 1.667 1 2.25.615.573 1.365.86 2.25.86 1.094 0 2.021-.38 2.781-1.141l.672.922c-.916.917-2.109 1.375-3.578 1.375zm2.797-5.297c0-.833-.276-1.542-.828-2.125-.542-.583-1.255-.875-2.14-.875-.834 0-1.527.292-2.079.875-.552.583-.844 1.292-.875 2.125h5.922zm3.644 5.078v-12.437h1.39v12.437h-1.39z" fill="#0A2C61"/><path fill-rule="evenodd" clip-rule="evenodd" d="M42.533 182.469v2.011h-2.104v-2.011h2.104zm28.617 0v2.011h-2.01v-2.011h2.01zm-4.115 2.011v1.097c0 .548.459 1.004 1.007 1.004h1.097v22.494h-1.097c-.548 0-1.007.456-1.007 1.004v1.097H44.544v-1.097c0-.548-.459-1.004-1.007-1.004h-1.004v-22.494h1.004c.548 0 1.007-.456 1.007-1.004v-1.097h22.491zM42.44 211.176v2.011h-2.011v-2.011h2.01zm28.71 0v2.011h-2.01v-2.011h2.01zm-31.726-30.811c-.64 0-1.096.458-1.096 1.097v4.022c0 .641.455 1.097 1.096 1.097h1.005v22.494h-1.005c-.64 0-1.096.456-1.096 1.004v4.115c0 .639.455 1.097 1.096 1.097h4.113c.548 0 1.007-.458 1.007-1.097v-1.007h22.491v1.007c0 .639.459 1.097 1.007 1.097h4.112c.642 0 1.1-.458 1.1-1.097v-4.115c0-.548-.458-1.004-1.1-1.004H71.15v-22.494h1.004c.642 0 1.1-.456 1.1-1.097v-4.022c0-.639-.458-1.097-1.1-1.097h-4.112c-.548 0-1.007.458-1.007 1.097v1.007H44.544v-1.007c0-.639-.459-1.097-1.007-1.097h-4.112z" fill="#5F7D95"/><path fill-rule="evenodd" clip-rule="evenodd" d="M65.024 190.606v12.891l-4.388-4.388c-.183-.183-.459-.365-.731-.365-.276 0-.642.182-.732.365l-3.2 3.474-3.567-3.567a.973.973 0 00-.697-.272c-.261 0-.537.09-.766.272l-4.388 4.388v-12.798h18.469zm-13.257 10.697l3.657 3.657H48.11l3.656-3.657zm8.228.09l3.66 3.657h-5.396v-.09l-.824-.824 2.56-2.743zM45.64 188.595c-.549 0-1.007.456-1.007 1.097v16.272c0 .641.458 1.1 1.007 1.1h20.39c.548 0 1.004-.459 1.004-1.1v-16.272c0-.641-.456-1.097-1.004-1.097h-20.39z" fill="#5F7D95"/><path fill-rule="evenodd" clip-rule="evenodd" d="M55.7 193.804c.638 0 1.096.459 1.096 1.007 0 .549-.458 1.004-1.096 1.004a1.014 1.014 0 01-1.008-1.004c0-.548.459-1.007 1.008-1.007zm0-2.101c-1.649 0-3.019 1.37-3.019 3.108.09 1.736 1.463 3.108 3.019 3.108a3.084 3.084 0 003.108-3.108 3.083 3.083 0 00-3.108-3.108z" fill="#5F7D95"/><path d="M805.627 144.635v-12.437h1.547v12.437h-1.547zm15.287 0v-6.125c0-1.239-.557-1.859-1.672-1.859-.468 0-.927.14-1.375.422-.437.281-.77.599-1 .953v6.609h-1.406v-6.125c0-1.239-.552-1.859-1.656-1.859-.458 0-.906.146-1.344.437a3.582 3.582 0 00-1.031.969v6.578h-1.391v-9.015h1.391v1.312c.208-.364.604-.708 1.187-1.031.594-.333 1.167-.5 1.719-.5.698 0 1.24.161 1.625.484.396.323.667.719.813 1.188.302-.479.739-.875 1.312-1.188.573-.323 1.141-.484 1.703-.484 1.677 0 2.516.906 2.516 2.719v6.515h-1.391zm8.637.219c-1.281 0-2.297-.526-3.047-1.578v4.797h-1.39V135.62h1.39v1.343c.323-.458.75-.833 1.281-1.125a3.676 3.676 0 011.766-.437c1.208 0 2.177.422 2.906 1.265.729.844 1.094 1.995 1.094 3.454 0 1.448-.365 2.599-1.094 3.453-.718.854-1.687 1.281-2.906 1.281zm-.359-1.25c.875 0 1.573-.313 2.093-.938.532-.635.797-1.484.797-2.546 0-1.032-.26-1.865-.781-2.5-.521-.646-1.224-.969-2.109-.969-.563 0-1.089.14-1.578.422-.49.281-.86.62-1.11 1.015v4.063c.25.396.62.739 1.11 1.031a3.115 3.115 0 001.578.422zm6.593 1.031v-9.015h1.391v1.453c.833-1.094 1.833-1.641 3-1.641v1.438l-.547-.047c-.427 0-.896.151-1.407.453-.51.302-.859.63-1.046.984v6.375h-1.391zm10.078.219c-1.302 0-2.369-.443-3.203-1.328-.833-.886-1.25-2.021-1.25-3.406 0-1.396.417-2.532 1.25-3.407.834-.875 1.901-1.312 3.203-1.312 1.313 0 2.386.437 3.219 1.312.833.875 1.25 2.011 1.25 3.407 0 1.385-.417 2.52-1.25 3.406-.833.885-1.906 1.328-3.219 1.328zm0-1.25c.875 0 1.594-.323 2.157-.969.562-.656.843-1.495.843-2.515 0-1.011-.281-1.839-.843-2.485-.563-.656-1.282-.984-2.157-.984-.864 0-1.583.323-2.156.969-.562.645-.844 1.479-.844 2.5 0 1.031.282 1.869.844 2.515.563.646 1.281.969 2.156.969zm9.156 1.031l-3.75-9.015h1.5l3.016 7.39 2.984-7.39h1.516l-3.75 9.015h-1.516zm10.798.219c-1.354 0-2.458-.438-3.313-1.313-.854-.885-1.281-2.026-1.281-3.421 0-1.334.422-2.454 1.266-3.36.854-.906 1.911-1.359 3.172-1.359 1.291 0 2.333.448 3.125 1.344.802.895 1.203 2.057 1.203 3.484v.359h-7.297c.052.917.385 1.667 1 2.25.614.573 1.364.86 2.25.86 1.094 0 2.021-.38 2.781-1.141l.672.922c-.917.917-2.109 1.375-3.578 1.375zm2.797-5.297c0-.833-.276-1.542-.828-2.125-.542-.583-1.256-.875-2.141-.875-.833 0-1.526.292-2.078.875-.552.583-.844 1.292-.875 2.125h5.922zm10.159 5.078v-1.344a3.872 3.872 0 01-1.296 1.125 3.487 3.487 0 01-1.735.438c-1.208 0-2.182-.427-2.922-1.281-.729-.854-1.093-2-1.093-3.438 0-1.437.369-2.583 1.109-3.437.74-.865 1.708-1.297 2.906-1.297.604 0 1.172.14 1.703.422.532.281.974.666 1.328 1.156v-4.781h1.407v12.437h-1.407zm-2.703-1.031c.563 0 1.094-.135 1.594-.406s.87-.604 1.109-1v-4.094c-.239-.396-.609-.734-1.109-1.016a3.118 3.118 0 00-1.594-.437c-.864 0-1.562.318-2.093.953-.532.635-.797 1.479-.797 2.531 0 1.031.26 1.87.781 2.516.531.635 1.234.953 2.109.953zM829.374 166.635v-10.25l-4.234 10.25h-.641l-4.219-10.25v10.25h-1.547v-12.437h2.219l3.859 9.359 3.891-9.359h2.219v12.437h-1.547zm8.327.219c-1.302 0-2.37-.443-3.203-1.328-.833-.886-1.25-2.021-1.25-3.406 0-1.396.417-2.532 1.25-3.407s1.901-1.312 3.203-1.312c1.313 0 2.386.437 3.219 1.312.833.875 1.25 2.011 1.25 3.407 0 1.385-.417 2.52-1.25 3.406-.833.885-1.906 1.328-3.219 1.328zm0-1.25c.875 0 1.594-.323 2.156-.969.563-.656.844-1.495.844-2.515 0-1.011-.281-1.839-.844-2.485-.562-.656-1.281-.984-2.156-.984-.864 0-1.583.323-2.156.969-.563.645-.844 1.479-.844 2.5 0 1.031.281 1.869.844 2.515.562.646 1.281.969 2.156.969zm13.265 1.031v-1.344a3.866 3.866 0 01-1.297 1.125 3.48 3.48 0 01-1.734.438c-1.208 0-2.182-.427-2.922-1.281-.729-.854-1.094-2-1.094-3.438 0-1.437.37-2.583 1.11-3.437.739-.865 1.708-1.297 2.906-1.297.604 0 1.172.14 1.703.422.531.281.974.666 1.328 1.156v-4.781h1.407v12.437h-1.407zm-2.703-1.031c.563 0 1.094-.135 1.594-.406s.87-.604 1.109-1v-4.094c-.239-.396-.609-.734-1.109-1.016a3.118 3.118 0 00-1.594-.437c-.864 0-1.562.318-2.094.953-.531.635-.796 1.479-.796 2.531 0 1.031.26 1.87.781 2.516.531.635 1.234.953 2.109.953zm10.978 1.25c-1.355 0-2.459-.438-3.313-1.313-.854-.885-1.281-2.026-1.281-3.421 0-1.334.422-2.454 1.265-3.36.855-.906 1.912-1.359 3.172-1.359 1.292 0 2.334.448 3.125 1.344.802.895 1.203 2.057 1.203 3.484v.359h-7.296c.052.917.385 1.667 1 2.25.614.573 1.364.86 2.25.86 1.093 0 2.02-.38 2.781-1.141l.672.922c-.917.917-2.11 1.375-3.578 1.375zm2.796-5.297c0-.833-.276-1.542-.828-2.125-.541-.583-1.255-.875-2.14-.875-.834 0-1.526.292-2.078.875-.552.583-.844 1.292-.875 2.125h5.921zm3.645 5.078v-12.437h1.39v12.437h-1.39z" fill="#0A2C61"/><path fill-rule="evenodd" clip-rule="evenodd" d="M829.619 182.468v2.011h-2.104v-2.011h2.104zm28.618 0v2.011h-2.011v-2.011h2.011zm-4.115 2.011v1.097c0 .549.458 1.004 1.007 1.004h1.097v22.495h-1.097c-.549 0-1.007.455-1.007 1.004v1.097H831.63v-1.097c0-.549-.458-1.004-1.007-1.004h-1.004V186.58h1.004c.549 0 1.007-.455 1.007-1.004v-1.097h22.492zm-24.596 26.697v2.011h-2.011v-2.011h2.011zm28.711 0v2.011h-2.011v-2.011h2.011zm-31.726-30.812c-.641 0-1.097.459-1.097 1.097v4.022c0 .642.456 1.097 1.097 1.097h1.004v22.495h-1.004c-.641 0-1.097.455-1.097 1.004v4.115c0 .638.456 1.097 1.097 1.097h4.112c.549 0 1.007-.459 1.007-1.097v-1.007h22.492v1.007c0 .638.458 1.097 1.007 1.097h4.112c.641 0 1.1-.459 1.1-1.097v-4.115c0-.549-.459-1.004-1.1-1.004h-1.004V186.58h1.004c.641 0 1.1-.455 1.1-1.097v-4.022c0-.638-.459-1.097-1.1-1.097h-4.112c-.549 0-1.007.459-1.007 1.097v1.007H831.63v-1.007c0-.638-.458-1.097-1.007-1.097h-4.112z" fill="#5F7D95"/><path fill-rule="evenodd" clip-rule="evenodd" d="M852.111 190.606v12.891l-4.388-4.388c-.183-.183-.459-.366-.732-.366-.275 0-.641.183-.731.366l-3.201 3.474-3.567-3.567a.97.97 0 00-.696-.273c-.262 0-.537.09-.766.273l-4.388 4.388v-12.798h18.469zm-13.257 10.697l3.656 3.656h-7.313l3.657-3.656zm8.227.09l3.66 3.656h-5.395v-.09l-.825-.824 2.56-2.742zm-14.354-12.798c-.548 0-1.007.455-1.007 1.097v16.272c0 .641.459 1.1 1.007 1.1h20.391c.548 0 1.004-.459 1.004-1.1v-16.272c0-.642-.456-1.097-1.004-1.097h-20.391z" fill="#5F7D95"/><path fill-rule="evenodd" clip-rule="evenodd" d="M842.786 193.804c.638 0 1.097.458 1.097 1.007 0 .548-.459 1.004-1.097 1.004a1.015 1.015 0 01-1.007-1.004c0-.549.459-1.007 1.007-1.007zm0-2.101c-1.648 0-3.018 1.369-3.018 3.108.09 1.735 1.463 3.108 3.018 3.108a3.085 3.085 0 003.108-3.108 3.082 3.082 0 00-3.108-3.108z" fill="#5F7D95"/><path d="M396.069 42.466l-115.003-.483" stroke="#5F7D95" stroke-width="2" stroke-miterlimit="10" stroke-linejoin="round"/><path d="M402.649 42.494a3.29 3.29 0 11-6.58-.029 3.29 3.29 0 016.58.029v0z" fill="#5F7D95" stroke="#5F7D95" stroke-width="2" stroke-miterlimit="10"/><path d="M280.765 42.71l42.927-.525" stroke="#5F7D95" stroke-width="2" stroke-miterlimit="10" stroke-linejoin="round"/><path d="M274.185 42.79a3.29 3.29 0 116.58-.079 3.29 3.29 0 01-6.58.08z" fill="#5F7D95" stroke="#5F7D95" stroke-width="2" stroke-miterlimit="10"/><path d="M716.757 69.314l69.781 51.422" stroke="#5F7D95" stroke-width="2" stroke-miterlimit="10" stroke-linejoin="round"/><path d="M711.46 65.41a3.29 3.29 0 115.297 3.903 3.29 3.29 0 01-5.297-3.903v0z" fill="#5F7D95" stroke="#5F7D95" stroke-width="2" stroke-miterlimit="10"/><path d="M785.043 120.313l-24.901-19.006" stroke="#5F7D95" stroke-width="2" stroke-miterlimit="10" stroke-linejoin="round"/><path d="M790.273 124.305a3.29 3.29 0 11-5.23-3.993 3.29 3.29 0 015.23 3.993v0z" fill="#5F7D95" stroke="#5F7D95" stroke-width="2" stroke-miterlimit="10"/><path d="M611.4 42.465l-115.004-.483" stroke="#5F7D95" stroke-width="2" stroke-miterlimit="10" stroke-linejoin="round"/><path d="M617.98 42.492a3.29 3.29 0 11-6.58-.028 3.29 3.29 0 016.58.028v0z" fill="#5F7D95" stroke="#5F7D95" stroke-width="2" stroke-miterlimit="10"/><path d="M496.095 42.709l42.927-.526" stroke="#5F7D95" stroke-width="2" stroke-miterlimit="10" stroke-linejoin="round"/><path d="M489.516 42.79a3.29 3.29 0 116.579-.082 3.29 3.29 0 01-6.579.081z" fill="#5F7D95" stroke="#5F7D95" stroke-width="2" stroke-miterlimit="10"/><path d="M168.333 69.314l-69.78 51.422" stroke="#5F7D95" stroke-width="2" stroke-miterlimit="10" stroke-linejoin="round"/><path d="M173.63 65.41a3.29 3.29 0 11-5.298 3.904 3.29 3.29 0 015.298-3.904z" fill="#5F7D95" stroke="#5F7D95" stroke-width="2" stroke-miterlimit="10"/><path d="M100.048 120.313l24.901-19.006" stroke="#5F7D95" stroke-width="2" stroke-miterlimit="10" stroke-linejoin="round"/><path d="M94.817 124.305a3.29 3.29 0 115.232-3.993 3.29 3.29 0 01-5.232 3.993v0z" fill="#5F7D95" stroke="#5F7D95" stroke-width="2" stroke-miterlimit="10"/><path fill-rule="evenodd" clip-rule="evenodd" d="M379.95 137.33c63.766-36.821 145.307-14.977 182.127 48.788a133.326 133.326 0 01-48.788 182.127c-63.766 36.821-145.307 14.977-182.128-48.788-36.82-63.766-14.977-145.307 48.789-182.127zm21.424 37.101c-43.276 24.988-58.1 80.327-33.111 123.602 24.988 43.275 80.327 58.1 123.602 33.111 43.275-24.988 58.1-80.327 33.111-123.602-24.989-43.276-80.327-58.1-123.602-33.111z" fill="#000" fill-opacity=".108"/><path d="M446.2 92.271l-.154 45.073" stroke="#A1C3FA" stroke-width="2" stroke-miterlimit="10" stroke-linejoin="round"/><path d="M446.223 85.691a3.29 3.29 0 11-.023 6.58 3.29 3.29 0 01.023-6.58z" fill="#A1C3FA" stroke="#A1C3FA" stroke-width="2" stroke-miterlimit="10"/><path d="M583.394 332.885l-32.987-19.047" stroke="#0944A1" stroke-width="2" stroke-miterlimit="10" stroke-linejoin="round"/><path d="M589.093 336.175a3.29 3.29 0 11-5.699-3.293 3.29 3.29 0 015.699 3.293z" fill="#0944A1" stroke="#0944A1" stroke-width="2" stroke-miterlimit="10"/><path d="M310.79 329.856l35.312-20.36" stroke="#307BF3" stroke-width="2" stroke-miterlimit="10" stroke-linejoin="round"/><path d="M305.089 333.142a3.29 3.29 0 115.7-3.286 3.29 3.29 0 01-5.7 3.286v0z" fill="#307BF3" stroke="#307BF3" stroke-width="2" stroke-miterlimit="10"/><path d="M401.818 263.103l-.765-2.109-5.328-.001-.797 2.109h-3.016l4.814-12.437h3.328l4.78 12.439-3.016-.001zm-3.436-9.797l-1.938 5.359h3.89l-1.952-5.359zm13.374 9.799v-1.141c-.803.906-1.86 1.359-3.172 1.359-.99 0-1.724-.25-2.203-.75-.469-.5-.704-1.193-.703-2.079v-6.406l2.375.001v5.468c0 1.104.552 1.657 1.656 1.657.812 0 1.495-.339 2.047-1.016v-6.109h2.375v9.016h-2.375zm7.755.22c-1.709-.001-2.563-.818-2.563-2.454l.001-4.703h-1.485v-2.078h1.485v-2.453h2.39v2.453h1.828v2.079l-1.828-.001v4.063c0 .292.068.531.203.719.146.177.349.265.609.265.375 0 .651-.083.828-.25l.5 1.782c-.406.385-1.062.578-1.968.578zm7.462.001c-1.396 0-2.542-.449-3.438-1.345-.885-.895-1.328-2.026-1.328-3.39 0-1.365.443-2.49 1.329-3.375.896-.896 2.041-1.344 3.437-1.343 1.386 0 2.526.448 3.422 1.344.896.885 1.344 2.01 1.344 3.375 0 1.385-.448 2.521-1.344 3.406-.896.885-2.037 1.328-3.422 1.328zm0-2.11c.677 0 1.229-.244 1.656-.734.438-.489.656-1.119.656-1.89.001-.75-.218-1.37-.656-1.86-.427-.5-.979-.75-1.656-.75-.667 0-1.219.239-1.656.718-.427.48-.641 1.11-.641 1.891 0 .792.214 1.427.641 1.906.437.48.989.719 1.656.719zm12.599 1.893v-5.453c0-1.115-.552-1.672-1.656-1.672-.854-.001-1.536.354-2.047 1.062v6.062h-2.375v-9.016l2.375.001v1.187c.282-.354.688-.677 1.219-.968.542-.292 1.188-.438 1.938-.438.989.001 1.724.261 2.203.782.479.51.718 1.208.718 2.094v6.359h-2.375zm8.911.22c-1.395 0-2.541-.448-3.437-1.344-.885-.896-1.328-2.027-1.328-3.391 0-1.365.443-2.49 1.328-3.375.896-.896 2.042-1.343 3.438-1.343 1.385 0 2.526.448 3.422 1.344.896.886 1.343 2.011 1.343 3.375 0 1.386-.448 2.521-1.344 3.406-.896.886-2.036 1.328-3.422 1.328zm0-2.109c.678 0 1.23-.245 1.657-.735.437-.489.656-1.119.656-1.89 0-.75-.219-1.37-.656-1.86-.427-.5-.979-.75-1.656-.75-.667 0-1.219.24-1.656.719-.428.479-.641 1.109-.641 1.89 0 .792.213 1.427.64 1.907.438.479.99.718 1.656.719zm17.693 1.893l.001-5.688c0-.958-.448-1.437-1.344-1.437-.417 0-.786.114-1.109.343a2.888 2.888 0 00-.75.703l-.001 6.078h-2.39v-5.687c0-.959-.448-1.438-1.344-1.438-.406 0-.776.114-1.109.343-.323.23-.573.469-.75.719v6.063l-2.375-.001v-9.015h2.375v1.187c.208-.343.599-.661 1.172-.953a3.832 3.832 0 011.781-.452c1.302 0 2.136.547 2.5 1.641.281-.459.709-.844 1.281-1.156a3.64 3.64 0 011.813-.485c1.76.001 2.641.907 2.64 2.72v6.515h-2.391zm8.911.22c-1.396 0-2.541-.448-3.437-1.344-.886-.896-1.328-2.027-1.328-3.391 0-1.365.443-2.49 1.328-3.375.896-.896 2.042-1.343 3.438-1.343 1.385 0 2.526.448 3.422 1.344.895.886 1.343 2.011 1.343 3.375 0 1.386-.448 2.521-1.344 3.406-.896.886-2.036 1.328-3.422 1.328zm0-2.109c.677 0 1.229-.245 1.657-.735.437-.489.656-1.119.656-1.89 0-.75-.219-1.37-.656-1.86-.427-.5-.979-.75-1.656-.75-.667 0-1.219.24-1.657.719-.427.479-.64 1.109-.64 1.89 0 .792.213 1.427.64 1.907.438.479.99.718 1.656.719zm12.599 1.892l.001-1.141c-.803.907-1.86 1.36-3.172 1.359-.99 0-1.724-.25-2.204-.75-.468-.5-.703-1.193-.702-2.078V254.1h2.375v5.469c0 1.104.552 1.656 1.656 1.656.812 0 1.495-.338 2.047-1.015v-6.11l2.375.001-.001 9.015h-2.375zm7.974.22c-.781 0-1.531-.12-2.25-.36-.718-.25-1.312-.594-1.781-1.031l1.031-1.656c.355.333.829.62 1.422.859.604.24 1.167.36 1.688.36 1.01 0 1.515-.323 1.515-.969 0-.25-.135-.437-.406-.562a4.44 4.44 0 00-.968-.313l-1.297-.266c-1.792-.385-2.688-1.281-2.688-2.688 0-.833.344-1.51 1.032-2.031.698-.531 1.588-.796 2.672-.796 1.406 0 2.614.412 3.625 1.235l-.938 1.625c-.281-.292-.656-.537-1.125-.735a3.772 3.772 0 00-1.547-.313c-.437 0-.786.089-1.047.266-.25.167-.375.375-.375.625 0 .229.13.401.391.516.26.104.588.198.984.281.406.083.839.177 1.297.281.458.105.885.261 1.281.469.396.209.724.495.985.86.27.364.406.849.406 1.453 0 .875-.36 1.578-1.079 2.109-.708.521-1.651.781-2.828.781zM410.328 289.104l.001-12.437h2.64v10.11l5.265.001v2.328l-7.906-.002zm13.724.221c-1.417 0-2.573-.438-3.469-1.313-.896-.875-1.344-2.016-1.344-3.422 0-1.344.443-2.463 1.329-3.359.896-.906 2.01-1.359 3.344-1.359 1.323 0 2.406.459 3.249 1.376.844.906 1.266 2.104 1.266 3.594v.515l-6.703-.001c.073.573.328 1.068.765 1.485.448.406 1.058.609 1.828.609.375 0 .792-.078 1.25-.234.459-.156.844-.38 1.157-.672l1.046 1.532c-.448.416-1.005.729-1.671.937a6.74 6.74 0 01-2.047.312zm2.078-5.578c-.042-.593-.271-1.072-.687-1.437-.407-.365-.917-.547-1.532-.547-.625 0-1.135.187-1.531.562-.396.375-.625.849-.687 1.422h4.437zm9.41 5.361v-.937c-.656.771-1.604 1.156-2.843 1.156-.875-.001-1.62-.277-2.235-.829-.604-.552-.906-1.271-.906-2.156 0-.875.287-1.578.86-2.11.583-.531 1.344-.796 2.281-.796 1.292 0 2.24.365 2.844 1.094v-1.203c0-.458-.182-.823-.547-1.094-.354-.281-.828-.422-1.422-.422-1 0-1.875.354-2.625 1.062l-.906-1.578c1.094-.948 2.406-1.422 3.938-1.421 1.27 0 2.244.297 2.921.891.677.583 1.016 1.422 1.016 2.515l-.001 5.829-2.375-.001zm-1.89-1.375c.864 0 1.495-.265 1.891-.797v-1.109c-.396-.521-1.026-.781-1.891-.782-.479 0-.885.12-1.219.36-.323.229-.484.562-.484 1 0 .416.161.744.484.984.333.229.74.344 1.219.344zm6.614 1.376l.001-9.016 2.375.001v1.234c.323-.396.74-.734 1.25-1.015a3.28 3.28 0 011.625-.438v2.313l-.656-.063c-.427 0-.854.104-1.282.313-.427.197-.739.437-.937.718l-.001 5.953h-2.375zm12.795.002v-5.453c0-1.115-.552-1.672-1.656-1.672-.854 0-1.536.354-2.047 1.062v6.062h-2.375v-9.016l2.375.001v1.187c.282-.354.688-.677 1.219-.968.542-.292 1.188-.438 1.938-.438.989.001 1.724.261 2.203.782.479.51.718 1.208.718 2.094v6.359h-2.375zm5.896-9.984c-.385 0-.719-.135-1-.406a1.377 1.377 0 01-.406-1.016c0-.396.136-.724.406-.984a1.394 1.394 0 011-.406c.407 0 .745.135 1.016.406.271.261.406.589.406.985 0 .406-.135.745-.406 1.015-.271.271-.61.406-1.016.406zm-1.172 9.985v-9.016h2.375v9.016h-2.375zm10.798.001v-5.453c0-1.114-.552-1.672-1.656-1.672-.854 0-1.536.354-2.047 1.062v6.063l-2.375-.001v-9.015h2.375v1.188c.282-.355.688-.677 1.219-.969.542-.292 1.188-.437 1.938-.437.989 0 1.724.26 2.203.781.479.511.718 1.209.718 2.094v6.36l-2.375-.001zm8.427 3.658c-.792 0-1.495-.099-2.11-.297-.614-.198-1.208-.548-1.781-1.048l1.063-1.718c.677.75 1.619 1.125 2.828 1.125.781 0 1.385-.203 1.812-.609.438-.396.657-.953.657-1.672v-.906c-.75.937-1.672 1.406-2.766 1.406-1.208 0-2.177-.412-2.906-1.235-.719-.823-1.078-1.938-1.078-3.344 0-1.396.359-2.51 1.078-3.343.719-.834 1.688-1.25 2.907-1.25 1.125 0 2.046.459 2.765 1.375v-1.156l2.391.001-.001 8.406c0 1.364-.422 2.416-1.266 3.156-.843.739-2.041 1.109-3.593 1.109zm.437-5.828a2.45 2.45 0 001.157-.297c.385-.198.677-.437.875-.719v-2.906c-.198-.302-.49-.547-.875-.734a2.447 2.447 0 00-1.156-.297c-.667-.001-1.214.218-1.641.656-.417.427-.625 1.036-.625 1.828 0 .781.208 1.39.625 1.828.427.427.974.641 1.64.641z" fill="#869FB2"/><path fill-rule="evenodd" clip-rule="evenodd" d="M569.52 182.506c26.253 46.091 24.562 103.025-4.379 147.472-28.942 44.447-80.27 68.935-132.949 63.43l2.575-24.728c43.404 4.54 85.695-15.641 109.545-52.275 23.85-36.633 25.25-83.562 3.626-121.557l21.582-12.342z" fill="#0944A1"/><path fill-rule="evenodd" clip-rule="evenodd" d="M570.322 183.78c-24.306-43.586-69.81-71.11-119.699-72.402-49.889-1.292-96.756 23.839-123.286 66.108l22.445 14.088a114.738 114.738 0 01100.155-53.705 114.738 114.738 0 0197.241 58.818l23.144-12.907z" fill="#A1C3FA"/><path fill-rule="evenodd" clip-rule="evenodd" d="M571.456 211.438l-36.825-9.865 46.69-26.961-9.865 36.826z" fill="#A1C3FA"/><path fill-rule="evenodd" clip-rule="evenodd" d="M326.526 178.816c-26.218 42.983-27.565 96.675-3.536 140.919 24.029 44.244 69.799 72.347 120.127 73.758l.746-26.578c-40.852-1.146-78.003-23.957-97.508-59.87-19.504-35.913-18.411-79.494 2.87-114.384l-22.699-13.845z" fill="#307BF3"/><path fill-rule="evenodd" clip-rule="evenodd" d="M420.681 381.447l23.211-23.222.01 46.433-23.221-23.211z" fill="#0944A1"/><path fill-rule="evenodd" clip-rule="evenodd" d="M350.373 163.553l9.238 37.032-46.27-27.794 37.032-9.238z" fill="#307BF3"/></svg>